<?xml version="1.0" encoding="UTF-8" standalone="no"?>
<svg
   xmlns:dc="http://purl.org/dc/elements/1.1/"
   xmlns:cc="http://creativecommons.org/ns#"
   xmlns:rdf="http://www.w3.org/1999/02/22-rdf-syntax-ns#"
   xmlns:svg="http://www.w3.org/2000/svg"
   xmlns="http://www.w3.org/2000/svg"
   xmlns:sodipodi="http://sodipodi.sourceforge.net/DTD/sodipodi-0.dtd"
   xmlns:inkscape="http://www.inkscape.org/namespaces/inkscape"
   height="65"
   width="65"
   id="svg4713"
   version="1.1"
   inkscape:version="0.91 r13725"
   sodipodi:docname="ice_climbing.svg">
  <metadata
     id="metadata4741">
    <rdf:RDF>
      <cc:Work
         rdf:about="">
        <dc:format>image/svg+xml</dc:format>
        <dc:type
           rdf:resource="http://purl.org/dc/dcmitype/StillImage" />
      </cc:Work>
    </rdf:RDF>
  </metadata>
  <defs
     id="defs4739" />
  <sodipodi:namedview
     pagecolor="#ffffff"
     bordercolor="#666666"
     borderopacity="1"
     objecttolerance="10"
     gridtolerance="10"
     guidetolerance="10"
     inkscape:pageopacity="0"
     inkscape:pageshadow="2"
     inkscape:window-width="1855"
     inkscape:window-height="1056"
     id="namedview4737"
     showgrid="false"
     inkscape:zoom="11.6"
     inkscape:cx="30.163519"
     inkscape:cy="29.828282"
     inkscape:window-x="1665"
     inkscape:window-y="24"
     inkscape:window-maximized="1"
     inkscape:current-layer="svg4713" />
  <g
     id="ice_climbing"
     ng-click="editCtrl.pushToArray(route, 'activities', 'ice_climbing', $event)"
     class="activity-icon"
     transform="matrix(1.0328109,0,0,-1.0328109,-101.11911,172.18596)">
    <title
       id="title4716">ice_climbing</title>
    <g
       id="g5202"
       transform="translate(-6.4,30.4)">
      <g
         transform="translate(-54.576271,-166.00678)"
         id="g5173">
        <g
           id="g150"
           transform="translate(219.7496,270.3391)">
          <path
             style="fill:#ffaa45;fill-opacity:1;fill-rule:nonzero;stroke:none"
             d="M 32.679688 2.3320312 C 15.750884 2.3320312 1.9785156 16.1044 1.9785156 33.033203 C 1.9785156 49.962007 15.750884 63.734375 32.679688 63.734375 C 49.608491 63.734375 63.380859 49.962007 63.380859 33.033203 C 63.380859 25.55322 60.692332 18.688989 56.230469 13.357422 C 50.594181 6.6225115 42.128507 2.3320312 32.679688 2.3320312 z M 27.40625 3.84375 C 28.402621 4.9499182 28.22753 7.6630603 26.458984 12.599609 C 26.201814 13.113949 25.882631 13.708817 25.527344 14.357422 L 25.339844 14.699219 C 25.278865 14.809407 25.201487 14.945806 25.138672 15.058594 C 25.564029 15.414423 25.520821 15.371871 26.208984 15.960938 C 27.887302 17.398609 27.650391 19.677734 27.650391 19.677734 L 27.443359 20.859375 C 27.750787 21.284915 27.86633 21.972601 27.998047 22.234375 C 28.193248 22.622712 28.45262 22.611274 29.107422 23.257812 C 29.761191 23.904352 30.066637 24.936463 30.761719 25.726562 C 31.455768 26.516663 32.426817 28.00616 32.03125 27.373047 C 32.003364 27.328636 31.979753 27.275442 31.957031 27.220703 C 31.708119 26.622706 31.725775 25.460245 31.740234 25.060547 C 31.744366 24.965528 31.719966 24.873753 31.679688 24.789062 C 31.381195 24.154917 31.399337 23.676759 31.382812 22.636719 C 31.376622 22.205004 31.332083 21.933973 31.277344 21.765625 C 31.229834 21.619999 31.118753 21.505666 30.982422 21.4375 C 30.264618 21.079115 30.155218 20.439515 29.958984 20.294922 C 29.752419 20.143099 30.093567 19.972023 29.935547 19.822266 C 29.776493 19.672508 30.042867 19.520307 29.955078 19.398438 C 29.866262 19.275533 29.96423 19.208895 30.029297 18.833984 C 30.071643 18.585077 30.093892 18.484334 30.414062 18.449219 C 31.573909 18.320117 31.884766 18.775391 31.884766 18.775391 C 31.890054 18.780648 31.89132 18.787598 31.896484 18.792969 L 32.347656 18.25 C 33.535389 16.680127 32.757812 14.662109 32.757812 14.662109 L 31.714844 11.880859 C 31.020795 11.206434 30.606952 11.85781 30.400391 11.994141 C 30.192796 12.131504 27.865234 13.095703 27.865234 13.095703 L 27.904297 12.824219 C 29.306854 12.228287 31.207031 10.488281 31.207031 10.488281 L 34.009766 10.257812 L 33.876953 10.488281 L 32.378906 11.003906 L 32.507812 11.603516 C 32.507812 11.603516 32.936965 12.732081 33.664062 14.818359 C 34.391161 16.904637 33.037109 18.755859 33.037109 18.755859 L 32.308594 19.621094 C 32.360317 19.744682 32.420115 19.864152 32.505859 19.96875 C 32.930345 20.485155 33.762678 21.375988 33.996094 21.931641 C 34.229509 22.486261 34.230774 23.929593 34.494141 24.34375 C 34.75854 24.75894 34.775185 24.900354 34.994141 25.761719 C 35.123242 26.269862 35.4579 26.771288 35.710938 27.097656 C 35.842103 27.266005 36.052058 27.348648 36.261719 27.3125 C 36.414575 27.28668 36.594608 27.330661 36.740234 27.337891 C 36.975715 27.349251 37.232422 26.935547 37.232422 26.935547 C 37.467903 25.977098 38.783203 25.638672 38.783203 25.638672 C 40.83953 24.674026 42.349609 27.228516 42.349609 27.228516 C 43.489833 29.110297 41.08541 30.982726 40.431641 31.443359 C 40.292211 31.542509 40.198861 31.693788 40.1875 31.865234 C 40.166844 32.173012 40.265999 32.710125 40.886719 33.496094 C 41.935022 34.824289 40.943322 36.312652 40.316406 36.542969 C 39.691558 36.773286 40.031528 36.554017 39.775391 37.462891 C 39.518221 38.37383 38.773212 39.636029 37.486328 40.330078 C 36.199446 41.026193 36.747247 45.506416 37.048828 46.482422 C 37.231636 47.081452 36.535148 49.222701 36.230469 50.154297 C 35.98776 50.898954 35.95335 52.633585 35.949219 53.300781 C 35.948186 53.451572 36.00093 53.598811 36.109375 53.703125 C 36.735258 54.312483 36.935739 55.718693 37.201172 56.5625 C 37.48726 57.475506 38.102041 59.963867 38.416016 60.806641 C 38.520777 61.485805 38.096745 61.989988 37.537109 62.296875 C 36.933911 62.396699 36.327663 62.484163 35.712891 62.546875 C 35.461765 62.443161 35.316214 62.252061 35.378906 61.960938 C 35.45017 61.468287 35.295291 60.752599 35.216797 60.417969 C 35.139336 60.083338 34.434803 58.465063 34.089844 57.761719 C 33.855396 57.28456 33.608875 56.607781 33.474609 56.224609 C 33.413674 56.051097 33.270136 55.927316 33.097656 55.863281 C 32.807436 55.756902 32.660792 55.554904 32.416016 55.246094 C 32.354047 55.168633 32.233813 55.057603 32.244141 54.896484 C 32.524032 50.678485 31.626953 48.681641 31.626953 48.681641 C 31.527797 48.4317 31.451172 48.294922 31.451172 48.294922 C 30.549528 49.339094 29.099609 49.955078 29.099609 49.955078 C 29.099609 49.955078 28.927958 49.636737 29.121094 50.048828 C 29.314229 50.459887 30.194524 53.270578 30.40625 54.273438 C 30.617976 55.276296 30.666649 56.201883 30.816406 57.013672 C 30.966164 57.824428 31.062702 57.804705 31.435547 58.414062 C 31.808392 59.022388 31.323741 59.261642 30.8125 60.087891 C 30.29816 60.915172 29.776582 60.438891 29.019531 60.449219 C 28.370926 60.459547 26.651212 60.416691 26.169922 60.404297 C 26.145372 60.403398 26.121979 60.390437 26.097656 60.386719 C 26.43943 61.084279 26.658944 61.648657 26.787109 62.111328 C 20.55689 60.850842 15.031451 57.631548 10.876953 53.126953 L 7.3222656 48.419922 C 4.5878288 43.930515 3.0117188 38.663081 3.0117188 33.033203 C 3.0117188 31.821485 3.0944562 30.62916 3.2363281 29.455078 L 3.7539062 26.458984 C 4.3386649 23.884956 5.2573725 21.437264 6.4648438 19.164062 L 6.5273438 19.09375 C 6.571564 18.986204 6.6257102 18.880615 6.671875 18.773438 C 10.910469 11.073265 18.469663 5.4543496 27.40625 3.84375 z M 24.732422 15.779297 C 23.681205 17.649986 22.490213 19.726291 21.472656 21.648438 C 19.809831 24.788182 18.517083 28.297438 17.59375 29.775391 C 17.082247 30.592652 16.582807 31.122604 16.384766 31.53125 L 16.517578 32.240234 C 16.565699 32.280595 16.603182 32.321348 16.669922 32.361328 C 17.175206 32.664498 17.0204 33.310231 16.894531 34.275391 L 18.166016 41.158203 C 19.707695 46.159764 22.285275 53.973247 23.523438 56.037109 C 24.25376 57.133022 24.810893 58.053539 25.294922 58.898438 C 25.642613 58.371731 26.389288 57.921192 26.623047 57.708984 C 27.068188 57.305154 27.265816 57.125588 27.728516 56.34375 C 28.192248 55.562945 26.901917 52.922809 26.533203 52.242188 C 26.163457 51.562598 26.383613 51.360462 25.884766 50.910156 C 25.386951 50.460884 25.251135 49.815317 25.140625 49.171875 C 25.030114 48.528435 25.436739 47.934694 26.167969 47 C 26.736015 46.274967 28.345239 44.941563 29.035156 44.382812 C 29.212797 44.239253 29.286466 44.007098 29.226562 43.787109 C 29.032395 43.075503 29.703075 43.272547 29.757812 41.710938 C 29.758845 41.664462 29.760573 41.615869 29.763672 41.568359 C 29.885544 39.869385 31.089158 38.610852 31.191406 37.902344 C 31.298819 37.174212 31.563388 36.59432 31.833984 35.400391 C 32.104581 34.207494 32.704893 34.047577 32.941406 33.066406 C 33.17792 32.085236 32.235574 31.968374 31.783203 31.544922 C 31.330832 31.121469 30.369361 29.963408 29.46875 29.021484 C 28.843899 28.369781 28.702634 27.807459 28.675781 27.523438 C 28.66442 27.400533 28.611114 27.289073 28.525391 27.199219 C 28.252729 26.908999 28.131015 26.446095 27.769531 25.535156 C 27.348144 24.474458 27.017578 24.410156 27.017578 24.410156 C 25.892847 24.1912 25.807214 23.053095 25.707031 22.669922 C 25.605816 22.286749 25.583094 21.789045 25.707031 21.179688 C 25.797919 20.73248 25.940933 20.569106 26.326172 20.519531 L 26.638672 20.529297 L 26.798828 19.587891 C 27.036375 17.633812 25.347656 16.28125 25.347656 16.28125 L 24.732422 15.779297 z "
             transform="matrix(0.96823145,0,0,-0.96823145,-60.866626,31.983543)"
             id="path152" />
        </g>
        <g
           id="g154"
           transform="translate(194.7535,257.3167)" />
      </g>
      <g
         id="g5159">
        <g
           id="g158"
           transform="translate(-54.576271,-166.00678)">
          <g
             id="g160"
             clip-path="url(#clipPath162)">
            <g
               id="g166"
               transform="translate(183.6001,288.4223)" />
            <g
               id="g170"
               transform="translate(174.3465,296.625)">
              <g
                 id="g6639" />
            </g>
          </g>
        </g>
        <g
           id="g182"
           transform="translate(135.94793,133.05772)" />
        <g
           id="g186"
           transform="translate(131.32513,123.89912)" />
        <g
           id="g190"
           transform="translate(123.89373,119.72572)" />
      </g>
    </g>
  </g>
</svg>
