<?xml version="1.0" standalone="no"?>
<!DOCTYPE svg PUBLIC "-//W3C//DTD SVG 20010904//EN"
 "http://www.w3.org/TR/2001/REC-SVG-20010904/DTD/svg10.dtd">
<svg version="1.0" xmlns="http://www.w3.org/2000/svg"
 width="326.000000pt" height="326.000000pt" viewBox="0 0 326.000000 326.000000"
 preserveAspectRatio="xMidYMid meet">
<metadata>
Created by potrace 1.11, written by Peter Selinger 2001-2013
</metadata>
<g transform="translate(0.000000,326.000000) scale(0.100000,-0.100000)"
fill="#000000" stroke="none">
<path d="M943 2174 c-7 -3 -13 -16 -13 -29 0 -18 8 -26 38 -35 124 -40 211
-129 287 -295 54 -116 114 -202 201 -284 88 -85 90 -79 -47 -132 -80 -31 -89
-37 -102 -71 -8 -20 -12 -39 -9 -42 23 -23 145 12 257 73 l71 40 45 -26 c141
-81 421 -183 692 -253 87 -22 159 -40 160 -40 1 0 4 11 5 24 1 18 -6 27 -31
37 -237 95 -552 269 -678 373 l-26 22 38 44 c40 46 41 60 4 84 -23 15 -25 14
-61 -29 -20 -25 -40 -45 -44 -45 -14 0 -91 79 -175 180 -44 52 -84 100 -90
106 -5 6 -27 32 -49 58 -56 68 -181 164 -264 204 -70 33 -175 51 -209 36z"/>
<path d="M672 1923 c-101 -149 -378 -381 -599 -503 -34 -19 -45 -32 -58 -72
-20 -64 -9 -82 45 -73 224 38 589 336 667 545 12 30 27 70 34 88 13 31 12 34
-11 52 -14 11 -28 20 -32 20 -4 0 -25 -26 -46 -57z"/>
<path d="M1913 1779 c-32 -12 -29 -37 5 -45 82 -18 103 -27 154 -64 31 -22 79
-70 106 -107 81 -110 130 -155 241 -218 108 -61 373 -137 551 -159 25 -3 56
-8 70 -10 14 -3 45 -7 70 -10 25 -3 69 -8 98 -12 47 -5 53 -4 50 11 -2 12 -35
26 -123 51 -222 64 -309 96 -439 160 -139 69 -179 96 -333 220 -153 124 -269
182 -378 189 -27 2 -60 -1 -72 -6z"/>
</g>
</svg>
