<?xml version="1.0" encoding="UTF-8" standalone="no"?>
<svg
   xmlns:dc="http://purl.org/dc/elements/1.1/"
   xmlns:cc="http://creativecommons.org/ns#"
   xmlns:rdf="http://www.w3.org/1999/02/22-rdf-syntax-ns#"
   xmlns:svg="http://www.w3.org/2000/svg"
   xmlns="http://www.w3.org/2000/svg"
   version="1.1"
   id="svg2"
   viewBox="0 0 65.000001 65.000001"
   height="65"
   width="65">
  <defs
     id="defs4" />
  <metadata
     id="metadata7">
    <rdf:RDF>
      <cc:Work
         rdf:about="">
        <dc:format>image/svg+xml</dc:format>
        <dc:type
           rdf:resource="http://purl.org/dc/dcmitype/StillImage" />
        <dc:title></dc:title>
      </cc:Work>
    </rdf:RDF>
  </metadata>
  <g
     transform="translate(0,-987.36216)"
     id="layer1">
    <path
       id="path4179"
       d="m 27.210333,1051.0228 c -8.193435,-1.3286 -15.443451,-5.8675 -20.6680667,-12.9394 -5.2507093,-7.1072 -7.09828941,-16.3196 -5.1123779,-25.4913 1.8061596,-8.3415 7.7871068,-16.29678 15.5029926,-20.6203 3.26711,-1.83068 7.025288,-3.06823 10.823642,-3.56435 2.618754,-0.34196 9.110752,-0.12641 11.449218,0.38029 6.116395,1.32516 10.745276,3.8902 15.421108,8.54546 2.975999,2.963 4.77996,5.4288 6.286899,8.5933 2.919167,6.1303 3.750966,13.6988 2.301347,20.9398 -2.306277,11.5201 -12.240054,21.2554 -24.373146,23.8859 -2.477253,0.537 -9.045912,0.6899 -11.631616,0.2706 z m 10.431042,-5.9398 c 4.899867,-1.0833 9.222848,-3.4716 13.018888,-7.1925 5.344456,-5.2386 7.695274,-11.2741 7.430695,-19.0774 -0.231548,-6.8294 -2.391332,-12.0098 -7.019633,-16.8379 -4.049805,-4.22467 -8.681246,-6.76996 -14.08986,-7.7434 -2.355659,-0.42403 -6.926633,-0.42332 -9.25784,10e-4 -5.396068,0.98296 -9.323955,3.07305 -13.392826,7.1262 -5.3048139,5.2846 -7.9416493,11.3978 -7.9416493,18.4123 0,6.8474 2.6199691,13.0258 7.6614513,18.0672 4.224245,4.2243 8.901993,6.6532 14.482872,7.5201 1.743614,0.271 7.411017,0.099 9.107902,-0.2761 z m -10.354248,-12.5601 0,-7.6699 -1.725707,0 -1.725707,0 0,-6.9175 0,-6.9177 0.560485,-0.5605 0.560486,-0.5604 7.258408,0 c 6.400129,0 7.311193,0.037 7.704817,0.3127 0.924243,0.6473 0.981135,1.118 0.981135,8.118 l 0,6.5254 -1.82158,0 -1.821581,0 0,7.6699 0,7.6698 -4.985378,0 -4.985378,0 0,-7.6698 z m 3.001809,-24.6314 c -1.500141,-0.5349 -2.204538,-1.5856 -2.367693,-3.5317 -0.276355,-3.2964 1.231558,-5.01436 4.393041,-5.00484 2.931524,0.0117 4.366226,1.45664 4.366226,4.40604 0,0.5801 -0.09528,1.3979 -0.211731,1.8173 -0.271354,0.9774 -1.401595,2.1076 -2.379017,2.379 -1.033563,0.2869 -2.902211,0.2546 -3.800826,-0.065 z"
       style="fill:#000000" />
  </g>
</svg>
