<?xml version="1.0" encoding="UTF-8" standalone="no"?>
<svg
   xmlns:dc="http://purl.org/dc/elements/1.1/"
   xmlns:cc="http://creativecommons.org/ns#"
   xmlns:rdf="http://www.w3.org/1999/02/22-rdf-syntax-ns#"
   xmlns:svg="http://www.w3.org/2000/svg"
   xmlns="http://www.w3.org/2000/svg"
   version="1.1"
   id="svg2"
   viewBox="0 0 65.000001 65.000001"
   height="65"
   width="65">
  <defs
     id="defs4" />
  <metadata
     id="metadata7">
    <rdf:RDF>
      <cc:Work
         rdf:about="">
        <dc:format>image/svg+xml</dc:format>
        <dc:type
           rdf:resource="http://purl.org/dc/dcmitype/StillImage" />
        <dc:title></dc:title>
      </cc:Work>
    </rdf:RDF>
  </metadata>
  <g
     transform="translate(0,-987.36216)"
     id="layer1">
    <path
       id="path4147"
       d="m 28.807814,1051.1642 c -6.898133,-0.7792 -13.577648,-4.0712 -18.773819,-9.2524 -5.9509656,-5.9337 -9.25134104,-13.8892 -9.25134104,-22.3001 0,-9.468 4.20099254,-18.3346 11.65648204,-24.6017 5.633752,-4.73586 12.265653,-7.11898 19.86464,-7.13854 9.273998,-0.0233 17.054416,3.26148 23.383485,9.87395 2.263557,2.36499 3.688673,4.38399 5.171022,7.32619 2.519636,5.0012 3.584648,10.025 3.362757,15.8628 -0.400034,10.5246 -5.228843,19.1624 -14.001672,25.0462 -1.861132,1.2483 -5.61292,3.0739 -7.770989,3.7819 -4.228929,1.3867 -9.227663,1.9004 -13.640565,1.4017 z m 6.034917,-5.7626 c 5.602803,-0.5805 10.43297,-2.6473 14.849218,-6.3537 4.333275,-3.6366 7.066498,-8.2064 8.32808,-13.9237 0.307177,-1.3921 0.360495,-2.1641 0.369248,-5.3471 0.0089,-3.2601 -0.03529,-3.9267 -0.357899,-5.3909 -1.579155,-7.1663 -5.491529,-12.8164 -11.657562,-16.8357 -2.515273,-1.63936 -5.556463,-2.85237 -8.808969,-3.51312 -2.293927,-0.46613 -8.139923,-0.42222 -10.441587,0.079 -4.928208,1.07172 -8.844181,3.2089 -12.473417,6.80742 -1.05754,1.0485 -2.375826,2.5235 -2.929527,3.2778 -2.6306668,3.5832 -4.3930615,7.8376 -4.9724652,12.0033 -0.2848841,2.0482 -0.2206956,5.4418 0.1431129,7.5659 1.5675073,9.1518 8.3795373,17.1791 17.2046553,20.2743 3.579397,1.2554 7.253065,1.7192 10.747112,1.3571 z m -12.752692,-16.036 c -3.708492,-0.5871 -6.340594,-2.9606 -7.257084,-6.5439 -0.402818,-1.575 -0.441348,-4.606 -0.07814,-6.1464 1.108991,-4.7037 5.40106,-7.49 10.525096,-6.8329 1.807422,0.2318 3.000214,0.6641 4.315418,1.5641 1.023549,0.7003 2.686414,2.6437 2.508495,2.9318 -0.088,0.1423 -3.925582,2.132 -4.112227,2.132 -0.04249,0 -0.306428,-0.3332 -0.586508,-0.7402 -1.403954,-2.0406 -4.344237,-2.2906 -5.917672,-0.503 -0.934312,1.0615 -1.270854,2.2366 -1.255522,4.3846 0.01863,2.6111 0.713314,4.2214 2.19734,5.0938 0.640101,0.3763 0.948519,0.4451 1.997063,0.4451 1.062169,0 1.353708,-0.067 2.032387,-0.4658 0.697941,-0.4102 1.62159,-1.418 1.818095,-1.9838 0.04427,-0.1269 0.717862,0.1218 1.926633,0.7136 1.02221,0.5 1.89505,0.9679 1.939645,1.0392 0.125355,0.201 -0.840863,1.6107 -1.632141,2.3815 -0.942523,0.918 -2.451615,1.8068 -3.74755,2.2073 -1.240675,0.3833 -3.364801,0.5301 -4.673331,0.323 z m 18.35276,0 c -3.834664,-0.6071 -6.509798,-3.1224 -7.353377,-6.914 -0.405644,-1.8234 -0.25591,-5.1719 0.297922,-6.6624 0.573569,-1.5439 1.176565,-2.5071 2.199679,-3.514 2.011512,-1.9796 4.978801,-2.8595 8.166191,-2.4216 1.710215,0.2348 2.857818,0.6535 4.14151,1.5107 0.940968,0.6284 2.489985,2.4117 2.489985,2.8667 0,0.114 -0.906908,0.6769 -2.01535,1.2498 l -2.01535,1.0416 -0.258077,-0.3912 c -1.201064,-1.8211 -2.783159,-2.464 -4.695894,-1.9078 -1.175382,0.3416 -1.936896,1.0794 -2.436352,2.3608 -0.502864,1.2897 -0.557818,4.3136 -0.102128,5.6197 0.839648,2.4067 2.790147,3.4768 5.109031,2.8025 1.002204,-0.2913 2.082918,-1.2115 2.442518,-2.0796 l 0.202876,-0.4897 1.967033,0.986 c 1.081871,0.5423 1.967037,1.0516 1.967037,1.1318 0,0.3365 -1.537973,2.1982 -2.338725,2.8312 -2.140373,1.6917 -4.993391,2.4188 -7.768526,1.9795 z"
       style="fill:#000000" />
  </g>
</svg>
