<?xml version="1.0" encoding="UTF-8" standalone="no"?>
<svg
   xmlns:dc="http://purl.org/dc/elements/1.1/"
   xmlns:cc="http://creativecommons.org/ns#"
   xmlns:rdf="http://www.w3.org/1999/02/22-rdf-syntax-ns#"
   xmlns:svg="http://www.w3.org/2000/svg"
   xmlns="http://www.w3.org/2000/svg"
   version="1.1"
   id="svg2"
   viewBox="0 0 65.000001 65.000001"
   height="65"
   width="65">
  <defs
     id="defs4" />
  <metadata
     id="metadata7">
    <rdf:RDF>
      <cc:Work
         rdf:about="">
        <dc:format>image/svg+xml</dc:format>
        <dc:type
           rdf:resource="http://purl.org/dc/dcmitype/StillImage" />
        <dc:title></dc:title>
      </cc:Work>
    </rdf:RDF>
  </metadata>
  <g
     transform="translate(0,-987.36216)"
     id="layer1">
    <path
       id="path4211"
       d="m 24.83358,1050.7341 c -5.187028,-1.2555 -10.026954,-4.1258 -14.500435,-8.5992 -6.3981657,-6.3982 -9.49724158,-13.6455 -9.49724158,-22.21 0,-8.7719 3.11166578,-15.9758 9.72289658,-22.50977 6.893872,-6.81334 14.184143,-9.59652 23.714721,-9.05366 18.015693,1.02624 30.95192,15.59293 29.819514,33.57793 -0.55964,8.8882 -3.362443,14.841 -9.835234,20.8888 -8.115495,7.5826 -18.847214,10.4661 -29.424221,7.9059 z m 12.828982,-5.4161 c 4.95661,-0.94 9.267383,-3.3549 13.482495,-7.5529 2.141387,-2.1326 3.893431,-4.2317 3.893431,-4.6646 0,-0.8933 -10.752152,-5.8732 -11.578418,-5.3626 -0.293964,0.1817 -0.534479,0.6535 -0.534479,1.0484 0,1.2488 -3.760224,4.4216 -5.960283,5.029 -1.980264,0.5468 -2.114982,0.7292 -2.114982,2.8641 0,2.2213 -0.05206,2.2801 -2.018816,2.2801 -1.956369,0 -2.018816,-0.069 -2.018816,-2.2126 0,-2.1989 -0.02064,-2.2187 -3.316627,-3.1636 -1.824145,-0.523 -3.937264,-1.4378 -4.69582,-2.033 l -1.379193,-1.0822 2.015061,-2.1988 2.015061,-2.1988 2.17436,1.3438 c 2.484962,1.5358 6.541953,1.8702 8.001113,0.6595 0.52475,-0.4354 0.954091,-1.4933 0.954091,-2.3507 0,-1.4802 -0.723016,-1.8829 -14.275915,-7.9497 l -14.2759152,-6.3905 -0.6766769,2.1081 c -0.9705836,3.0235 -0.9103442,9.0956 0.1298675,13.0902 3.3668936,12.9298 16.8060886,21.2731 30.1804616,18.7368 z m 20.473202,-20.346 c 0.614231,-2.292 0.373808,-8.7064 -0.441048,-11.7667 -1.898737,-7.1312 -7.559523,-13.75733 -14.603234,-17.09366 -7.189206,-2.70322 -14.908233,-2.91404 -21.055875,-0.0191 -3.687534,1.74679 -10.834271,7.8132 -10.834271,9.1965 0,0.326 2.550148,1.7666 5.666994,3.2014 l 5.666993,2.6086 1.84901,-2.2023 c 1.141573,-1.3598 2.725045,-2.4649 4.138685,-2.8885 2.151984,-0.6447 2.289676,-0.8193 2.289676,-2.9019 0,-2.148 0.06193,-2.2159 2.018816,-2.2159 1.96393,0 2.018816,0.061 2.018816,2.2614 0,2.0818 0.148737,2.294 1.872304,2.6726 2.190346,0.4811 5.626156,2.0433 5.626156,2.5582 0,0.1962 -0.846602,1.1773 -1.881336,2.1802 l -1.881337,1.8234 -2.530966,-0.8719 c -1.436087,-0.4948 -3.244287,-0.7153 -4.179909,-0.5098 -1.953827,0.4291 -3.127528,2.1596 -2.059832,3.037 0.915496,0.7523 26.456269,12.1553 27.318826,12.1968 0.359553,0.017 0.810243,-0.5526 1.001532,-1.2663 z"
       style="fill:#000000" />
  </g>
</svg>
