<?xml version="1.0" encoding="UTF-8" standalone="no"?>
<svg
   xmlns:dc="http://purl.org/dc/elements/1.1/"
   xmlns:cc="http://creativecommons.org/ns#"
   xmlns:rdf="http://www.w3.org/1999/02/22-rdf-syntax-ns#"
   xmlns:svg="http://www.w3.org/2000/svg"
   xmlns="http://www.w3.org/2000/svg"
   version="1.1"
   id="svg2"
   viewBox="0 0 65.000001 65.000001"
   height="65"
   width="65">
  <defs
     id="defs4" />
  <metadata
     id="metadata7">
    <rdf:RDF>
      <cc:Work
         rdf:about="">
        <dc:format>image/svg+xml</dc:format>
        <dc:type
           rdf:resource="http://purl.org/dc/dcmitype/StillImage" />
        <dc:title></dc:title>
      </cc:Work>
    </rdf:RDF>
  </metadata>
  <g
     transform="translate(0,-987.36216)"
     id="layer1">
    <path
       id="path4243"
       d="m 28.742611,1051.7443 c -10.314449,-1.0772 -20.0913049,-8.1128 -24.835034,-17.8719 -4.06929496,-8.3716 -4.09864176,-18.6378 -0.077429,-27.0864 3.9654121,-8.33153 11.664635,-14.86983 20.153869,-17.11513 4.730981,-1.2514 10.431577,-1.3996 15.388459,-0.4003 10.623264,2.1418 19.923139,10.4786 23.334642,20.91823 2.113371,6.4672 1.942757,15.0755 -0.42438,21.412 -3.708165,9.9262 -12.939071,17.7101 -23.405089,19.736 -3.011295,0.5829 -6.941702,0.7409 -10.135038,0.4075 z m 7.298191,-5.8273 c 5.917114,-0.7875 10.900405,-3.402 15.454934,-8.1083 3.522272,-3.6397 5.377894,-7.1164 6.458555,-12.101 0.328235,-1.5139 0.375478,-2.1988 0.375478,-5.4431 0,-3.2172 -0.04862,-3.934 -0.365272,-5.385 -0.437859,-2.0064 -1.34099,-4.6593 -2.093081,-6.1484 -2.392257,-4.7363 -7.086524,-9.43323 -11.800611,-11.80723 -6.107832,-2.80424 -13.956556,-3.14543 -19.738223,-1.3151 -7.490562,2.5044 -14.017839,9.17303 -16.5481449,16.90643 -1.97228,6.0278 -1.429067,13.3334 1.412874,19.0016 2.0756429,4.1397 6.1350419,8.5184 10.2171459,11.0206 2.958714,1.8135 6.864657,3.122 10.473837,3.5085 1.425791,0.1527 4.524445,0.088 6.152508,-0.129 z m -14.564566,-20.2917 0,-2.7216 11.545962,0 11.545961,0 0,2.7216 0,2.7215 -11.545961,0 -11.545962,0 z m 0,-10.0615 0,-2.7216 11.545962,0 11.545961,0 0,2.7216 0,2.7215 -11.545961,0 -11.545962,0 z"
       style="fill:#000000" />
  </g>
</svg>
