<?xml version="1.0" encoding="UTF-8" standalone="no"?>
<svg
   xmlns:dc="http://purl.org/dc/elements/1.1/"
   xmlns:cc="http://creativecommons.org/ns#"
   xmlns:rdf="http://www.w3.org/1999/02/22-rdf-syntax-ns#"
   xmlns:svg="http://www.w3.org/2000/svg"
   xmlns="http://www.w3.org/2000/svg"
   version="1.1"
   id="svg2"
   viewBox="0 0 65.000001 65.000001"
   height="65"
   width="65">
  <defs
     id="defs4" />
  <metadata
     id="metadata7">
    <rdf:RDF>
      <cc:Work
         rdf:about="">
        <dc:format>image/svg+xml</dc:format>
        <dc:type
           rdf:resource="http://purl.org/dc/dcmitype/StillImage" />
        <dc:title></dc:title>
      </cc:Work>
    </rdf:RDF>
  </metadata>
  <g
     transform="translate(0,-987.36216)"
     id="layer1">
    <path
       id="path4275"
       d="m 28.128285,1051.6827 c -4.726433,-0.7519 -9.594467,-2.6876 -13.605925,-5.4103 -2.586026,-1.7552 -6.1023892,-5.2716 -7.8575982,-7.8576 -1.994964,-2.9393 -4.0258207,-7.4266 -4.830641,-10.6735 -1.00819085,-4.0675 -1.01200885,-10.854 -0.00836,-14.8555 2.2725821,-9.0607 8.4166782,-16.72504 16.7584582,-20.90504 12.057872,-6.04198 26.794721,-3.62135 36.394086,5.978 3.963818,3.96384 7.084362,9.48514 8.436532,14.92704 1.001792,4.0317 1.001792,10.8237 0,14.8555 -1.35217,5.4418 -4.472714,10.9631 -8.436532,14.9269 -3.93224,3.9322 -9.510802,7.0995 -14.763264,8.3819 -3.063911,0.7481 -9.30662,1.0748 -12.086759,0.6326 z m 8.106558,-5.4001 c 8.098303,-1.1264 15.397721,-6.158 19.329723,-13.3242 7.268608,-13.2474 1.910255,-29.8708 -11.691552,-36.27114 -4.178453,-1.9661 -6.545227,-2.4885 -11.249394,-2.4829 -4.765227,0.01 -7.195074,0.5378 -11.23469,2.4605 -7.013257,3.33814 -12.3351322,9.83664 -14.3062932,17.46944 -0.78778,3.0504 -0.78778,9.308 0,12.3585 3.3901842,13.1275 15.9162102,21.6307 29.1522062,19.7898 z m -5.987856,-9.1973 c -3.508703,-0.5888 -6.609913,-2.2258 -8.582905,-4.5307 -1.323932,-1.5465 -2.871145,-4.6279 -3.163188,-6.2995 l -0.207603,-1.1883 4.115153,0 4.115152,0 0.175103,0.8714 c 0.246956,1.229 1.479221,2.9513 2.700388,3.7743 1.159387,0.7813 3.911025,1.2377 5.577272,0.9251 3.462881,-0.6496 6.113586,-4.3406 6.429732,-8.9531 0.340274,-4.9644 -1.278685,-9.2936 -4.060131,-10.8568 -1.614282,-0.9073 -5.011323,-1.2389 -6.764435,-0.6603 -1.514059,0.4997 -3.319408,2.0855 -3.867468,3.3972 -0.605485,1.4491 -0.550327,1.6261 0.541656,1.7379 l 0.96978,0.099 -2.935427,3.2959 -2.935428,3.2958 -2.319752,-2.5036 c -1.275864,-1.377 -2.611301,-2.8958 -2.967638,-3.3751 l -0.647886,-0.8714 1.289115,0 c 1.259359,0 1.289116,-0.025 1.289116,-1.0972 0,-1.6825 1.151683,-4.3859 2.540709,-5.9639 4.314439,-4.9015 12.362213,-6.3376 18.670496,-3.3316 9.700543,4.6223 11.927634,19.5275 4.130936,27.6469 -3.758436,3.9141 -8.63911,5.5029 -14.092747,4.5877 z"
       style="fill:#000000" />
  </g>
</svg>
