<?xml version="1.0" encoding="UTF-8" standalone="no"?>
<!-- Created with Inkscape (http://www.inkscape.org/) -->

<svg
   xmlns:dc="http://purl.org/dc/elements/1.1/"
   xmlns:cc="http://creativecommons.org/ns#"
   xmlns:rdf="http://www.w3.org/1999/02/22-rdf-syntax-ns#"
   xmlns:svg="http://www.w3.org/2000/svg"
   xmlns="http://www.w3.org/2000/svg"
   xmlns:sodipodi="http://sodipodi.sourceforge.net/DTD/sodipodi-0.dtd"
   xmlns:inkscape="http://www.inkscape.org/namespaces/inkscape"
   width="65"
   height="65"
   viewBox="0 0 65.000001 65.000001"
   id="svg4604"
   version="1.1"
   inkscape:version="0.91 r13725"
   sodipodi:docname="waterfall.svg">
  <defs
     id="defs4606">
    <clipPath
       clipPathUnits="userSpaceOnUse"
       id="clipPath286">
      <path
         d="m 513.739,235.444 21.56,0 0,25.556 -21.56,0 0,-25.556 z"
         id="path288"
         inkscape:connector-curvature="0" />
    </clipPath>
    <clipPath
       clipPathUnits="userSpaceOnUse"
       id="clipPath406">
      <path
         d="m 57.255,313.364 43.245,0 0,29.167 -43.245,0 0,-29.167 z"
         id="path408"
         inkscape:connector-curvature="0" />
    </clipPath>
  </defs>
  <sodipodi:namedview
     id="base"
     pagecolor="#ffffff"
     bordercolor="#666666"
     borderopacity="1.0"
     inkscape:pageopacity="0.0"
     inkscape:pageshadow="2"
     inkscape:zoom="2.8"
     inkscape:cx="12.985911"
     inkscape:cy="5.826634"
     inkscape:document-units="px"
     inkscape:current-layer="svg4604"
     showgrid="false"
     units="px"
     inkscape:window-width="768"
     inkscape:window-height="848"
     inkscape:window-x="75"
     inkscape:window-y="24"
     inkscape:window-maximized="0" />
  <metadata
     id="metadata4609">
    <rdf:RDF>
      <cc:Work
         rdf:about="">
        <dc:format>image/svg+xml</dc:format>
        <dc:type
           rdf:resource="http://purl.org/dc/dcmitype/StillImage" />
        <dc:title />
      </cc:Work>
    </rdf:RDF>
  </metadata>
  <path
     d="m 42.952935,18.031435 c -1.379562,-0.594251 -2.570874,-1.105616 -5.11646,-1.105616 -2.542777,0 -3.735493,0.511365 -5.115055,1.105616 -1.490545,0.64061 -3.179173,1.366917 -6.386444,1.366917 -3.207269,0 -4.895898,-0.726307 -6.386443,-1.366917 -1.379561,-0.594251 -2.570873,-1.107022 -5.115055,-1.107022 -0.97918,0 -1.758871,0.07727 -2.424769,0.203704 -0.0071,0.02388 -0.01264,0.04636 -0.02107,0.07024 -0.709448,1.921833 -0.171391,3.30842 0.404596,4.134471 0.816217,1.171644 2.201399,1.927452 3.528981,1.927452 1.098592,0 2.162063,-0.396167 2.993733,-1.116855 0.323115,-0.280969 0.74738,-0.42005 1.174454,-0.387738 0.427074,0.03231 0.823241,0.23461 1.101402,0.560535 1.014301,1.189907 2.490797,1.872664 4.050179,1.872664 0.896293,0 1.784158,-0.228991 2.565254,-0.660279 0.598466,-0.33014 1.340226,-0.245849 1.850186,0.209322 1.35006,1.20817 3.092073,1.872664 4.902923,1.872664 1.765895,0 3.474191,-0.636397 4.811607,-1.792587 0.508555,-0.441123 1.237672,-0.51839 1.827709,-0.192465 0.816217,0.448147 1.743417,0.685566 2.680451,0.685566 2.850439,0 5.204966,-2.153633 5.528081,-4.916971 -0.153128,0.0028 -0.307662,0.0057 -0.467815,0.0057 -3.20727,0 -4.895899,-0.727712 -6.386443,-1.368323 M 28.036247,51.466873 26.76205,27.328759 c -0.37088,0.04917 -0.745975,0.07586 -1.12107,0.07586 -1.055041,0 -2.084796,-0.195274 -3.045712,-0.563345 l 2.409316,24.625597 3.031663,0 z m 3.219914,0 2.509061,0 1.094377,-22.641951 c -1.711105,-0.01549 -3.375851,-0.44537 -4.863586,-1.236301 l 1.260149,23.878218 z M 42.336206,27.307652 c -0.443933,-0.09974 -0.879436,-0.233205 -1.302295,-0.400383 -0.900509,0.632182 -1.889522,1.115451 -2.930515,1.439971 l -1.118259,23.119599 3.037283,0 2.313786,-24.159187 z M 1.7234286,17.791206 c 0,-0.88927 0.7206872,-1.608553 1.6085518,-1.608553 2.5441815,0 3.7354937,-0.51277 5.1150552,-1.105616 1.4905451,-0.642015 3.1791724,-1.368323 6.3864424,-1.368323 3.205865,0 4.895899,0.726308 6.386443,1.368323 1.379563,0.592846 2.570874,1.105616 5.115055,1.105616 2.544182,0 3.735494,-0.51277 5.115056,-1.105616 1.490545,-0.642015 3.180578,-1.368323 6.386443,-1.368323 3.20727,0 4.895898,0.726308 6.387848,1.368323 1.379561,0.592846 2.570873,1.105616 5.115055,1.105616 2.544181,0 3.735493,-0.51277 5.115055,-1.105616 1.490544,-0.642015 3.180578,-1.368323 6.387848,-1.368323 0.887864,0 1.607147,0.720688 1.607147,1.608552 L 62.381994,49.7754 c 0,0.88927 -0.720689,1.608553 -1.608552,1.608553 l -17.512848,0 -0.17701,1.844566 c -0.07868,0.824646 -0.771263,1.454019 -1.600124,1.454019 l -17.937111,0 c -0.827455,0 -1.520046,-0.627967 -1.601527,-1.451209 l -0.17982,-1.847376 -17.3175731,0 c -0.8892692,0 -1.6085518,-0.719283 -1.6085518,-1.608553 L 1.7234286,17.791206"
     style="fill:#ffaa45;fill-opacity:1;fill-rule:nonzero;stroke:none"
     id="path412"
     inkscape:connector-curvature="0" />
</svg>
