<?xml version="1.0" encoding="UTF-8" standalone="no"?>
<!-- Created with Inkscape (http://www.inkscape.org/) -->

<svg
   xmlns:dc="http://purl.org/dc/elements/1.1/"
   xmlns:cc="http://creativecommons.org/ns#"
   xmlns:rdf="http://www.w3.org/1999/02/22-rdf-syntax-ns#"
   xmlns:svg="http://www.w3.org/2000/svg"
   xmlns="http://www.w3.org/2000/svg"
   xmlns:sodipodi="http://sodipodi.sourceforge.net/DTD/sodipodi-0.dtd"
   xmlns:inkscape="http://www.inkscape.org/namespaces/inkscape"
   width="65.094482"
   height="65.362198"
   sodipodi:docname="activities_sprite.svg"
   id="svg2"
   version="1.1"
   inkscape:version="0.91 r13725">
  <defs
     id="defs4">
    <style
       type="text/css"
       id="style6"><![CDATA[
                .activity-icon { display: none; }
                .activity-icon:target { display: inline; }
        ]]></style>
  </defs>
  <sodipodi:namedview
     id="base"
     pagecolor="#ffffff"
     bordercolor="#666666"
     borderopacity="1.0"
     inkscape:pageopacity="0.0"
     inkscape:pageshadow="2"
     inkscape:zoom="3.959798"
     inkscape:cx="91.1697"
     inkscape:cy="82.627105"
     inkscape:document-units="px"
     inkscape:current-layer="svg2"
     showgrid="false"
     inkscape:window-width="1855"
     inkscape:window-height="1056"
     inkscape:window-x="3585"
     inkscape:window-y="24"
     inkscape:window-maximized="1"
     units="px" />
  <metadata
     id="metadata4382">
    <rdf:RDF>
      <cc:Work
         rdf:about="">
        <dc:format>image/svg+xml</dc:format>
        <dc:type
           rdf:resource="http://purl.org/dc/dcmitype/StillImage" />
        <dc:title></dc:title>
      </cc:Work>
    </rdf:RDF>
  </metadata>
  <g
     id="hiking"
    tooltip-placement="left" uib-tooltip="{{'Add to favorites' | translate}}"
     ng-click="editCtrl.pushToArray(route, 'activities', 'hiking', $event)"
     class="activity-icon"
     transform="matrix(1,0,0,-1,0,167.58241)">
    <title>hiking</title>
    <g
       id="g306"
       transform="translate(42.43023,144.71482)">
      <g
         id="g4695">
        <g
           id="g4700">
          <path
             transform="translate(22.3433,-2.7656)"
             style="fill:#ffaa45;fill-opacity:1;fill-rule:nonzero;stroke:none"
             inkscape:connector-curvature="0"
             class="activity-background"
             ng-class="{'activity-selected' : route.activities.indexOf('hiking') &gt; -1}"
             d="m -3.5084746,-7.0169492 c 0,-16.1409998 -13.0850004,-29.2249998 -29.2250004,-29.2249998 -16.141,0 -29.226,13.084 -29.226,29.2249998 0,16.141 13.085,29.2250002 29.226,29.2250002 16.14,0 29.2250004,-13.0840002 29.2250004,-29.2250002"
             id="path31" />
          <path
             transform="translate(-19.8716,9.430704)"
             d="m -3.5084746,-7.0169492 c 0.411,-3.0609998 0.497,-8.6199998 0.467,-9.8769998 -0.029,-1.257 -0.292,-1.257 0.292,-2.133 0.585,-0.877 2.54300002,-2.25 3.74000002,-2.426 1.19899998,-0.176 1.81299998,0.497 2.16299998,0.702 0.351,0.204 0.264,-0.351 0.264,-0.351 -0.088,-0.556 0.204,-0.994 0.204,-0.994 0,-0.175 0.409,-0.437 0.935,-1.695 0.526,-1.257 0.905,-3.243 0.847,-3.681 -0.058,-0.439 0.292,-0.526 0.292,-0.526 l 0.439,0.028 c 0.263,-0.38 0.029,-1.11 -0.468,-1.431 -0.497,-0.321 -1.169,-0.643 -2.543,-1.403 -1.373,-0.76 -2.55399998,-2.622 -2.55399998,-2.622 -0.627,-0.627 -1.67000002,-1.253 -1.98300002,-1.357 -0.313,-0.104 -1.461,-0.313 -2.609,-0.835 -1.149,-0.521 -0.105,-1.67 -0.105,-1.67 0.455,-0.075 2.556,-2.434 2.932,-2.768 0.37700002,-0.335 1.84000002,-0.209 2.676,-0.167 0.836,0.042 0.46,0.794 0.126,0.919 -0.335,0.126 -0.87799998,-0.083 -0.83699998,0.21 0.042,0.292 -0.543,1.756 -0.041,2.425 0.50099998,0.669 1.04499998,0.669 1.58899998,1.255 0.543,0.585 2.132,1.045 2.592,1.504 0.46,0.46 0.92,0.837 1.757,1.339 0.836,0.502 1.881,1.004 2.676,1.421 0.7939996,0.418 0.7939996,2.007 0.7939996,2.007 0.125,-0.084 0.335,-0.752 0.335,-0.752 -0.9209996,-2.593 -0.042,-3.973 -0.042,-3.973 0.669,-2.508 0.125,-1.254 0,-2.216 -0.126,-0.961 -0.5849996,-0.669 -0.6689996,-1.129 -0.084,-0.459 0.125,-0.376 -0.042,-1.338 -0.168,-0.962 0.9619996,-0.92 1.4629996,-0.794 0.502,0.125 0.879,0.041 1.589,0.041 0.711,0 2.049,0.084 2.844,0.126 0.794,0.042 1.044,0.502 0.836,1.045 -0.209,0.544 -0.878,0 -1.212,0.209 -0.335,0.209 -1.214,0.252 -1.255,0.544 -0.042,0.293 -0.377,0.836 -0.377,0.836 -0.543,1.004 0.33,8.107 0.33,8.107 -0.03,0.702 -0.38,1.958 -0.38,1.958 l 0.029,0.321 c -0.233,1.227 -2.425,8.649 -2.425,8.649 0.176,-0.086 1.344,-0.408 2.133,-0.583 0.79,-0.176 0.965,-0.409 0.965,-0.409 0.205,-0.386 1.718,-0.612 2.598,-0.444 l 0.397,0.135 c 0.216,0.129 0.297,0.368 0.293,0.654 -0.045,0.849 -0.734,1.814 -0.734,1.814 -0.452,0.397 -1.152,-0.202 -1.152,-0.202 -0.467,0.38 -2.279,0.117 -2.279,0.117 -0.584,0.351 -2.775,1.988 -2.775,1.988 0.701,0.613 0.847,3.389 0.847,3.389 0,0 0.084,1.6279998 0.009,2.7509998 -0.029,0.614 -0.418,2.247 -0.71,2.861 -0.292,0.613 -0.117,0.759 0.731,0.672 0.847,-0.088 0.935,0.614 0.935,0.614 0.146,0 0.263,0.409 0.263,0.409 0.175,-0.088 0.438,0.379 0.438,0.379 0.673,-0.35 0.614,0.468 0.614,0.848 0,0.38 0.292,0.876 0.292,0.876 0.351,0.059 0.468,0.03 0.643,0.468 0.176,0.43800004 -0.76,1.16800004 -0.76,1.16800004 -1.168,2.57299996 -3.535,1.72499996 -3.535,1.72499996 -2.0459996,-0.525 -1.7829996,-3.039 -1.7829996,-3.039 0,0 -1.315,-1.052 -2.046,-1.374 -0.731,-0.321 -1.344,-0.291 -1.344,-0.029 0,0.263 -0.73,0.702 -1.14,0.994 -0.409,0.292 -1.432,0.81800004 -2.016,0.73000004 -0.585,-0.087 -1.13999998,0.234 -1.92899998,0.439 -0.789,0.204 -1.082,0.263 -2.01600002,-0.322 -0.936,-0.58400004 -1.929,-1.75300004 -2.31,-2.42500004 -0.379,-0.673 -0.145,-2.514 -0.058,-2.719 0.088,-0.204 0.438,-0.583 0.438,-0.583 l 0.322,-0.41"
             style="fill:#ffffff;fill-opacity:1;fill-rule:nonzero;stroke:none"
             id="path140"
             inkscape:connector-curvature="0" />
          <path
             d="m -3.5084746,-7.0169492 2.58400002,-17.4729998 0.315,-2.368 c 0,0 0.118,0.072 0.138,-0.127 0.02,-0.199 0.172,-1.867 0.172,-1.867 0,0 0.106,-0.208 -0.12,-0.259 l 0.226,-0.408 c 0,0 0.711,-0.028 0.71,-0.275 -0.002,-0.247 -0.736,-0.358 -0.736,-0.358 0,0 0.12,-1.078 0.011,-1.264 l -0.111,-0.016 -0.059,-0.008 c 0,0 -0.214,0.349 -0.311,1.203 0,0 -0.80400002,-0.117 -0.83200002,0.137 -0.028,0.254 0.55800002,0.466 0.55800002,0.466 l 0.145,0.387 -0.033,0.087 c 0,0 -0.086,-0.042 -0.113,0.1 -0.027,0.143 -0.36000002,1.998 -0.36000002,1.998 0,0 -0.02,0.093 0.071,0.105 0,0 -0.176,1.193 -0.353,2.389 -0.159,1.076 -2.585,17.2419998 -2.618,17.4579998"
             style="fill:#ffffff;fill-opacity:1;fill-rule:nonzero;stroke:none"
             id="path308"
             inkscape:connector-curvature="0" />
        </g>
      </g>
    </g>
  </g>
  <g
     id="ice_climbing"
     ng-click="editCtrl.pushToArray(route, 'activities', 'ice_climbing', $event)"
     class="activity-icon"
     transform="matrix(1,0,0,-1,-97.6,167.58241)">
    <title>ice_climbing</title>
    <g
       id="g5202"
       transform="translate(-6.4,30.4)">
      <g
         transform="translate(-54.576271,-166.00678)"
         id="g5173">
        <g
           id="g150"
           transform="translate(219.7496,270.3391)">
          <path
             d="m 0,0 c 0,-16.141 -13.085,-29.225 -29.225,-29.225 -16.141,0 -29.226,13.084 -29.226,29.225 0,16.141 13.085,29.225 29.226,29.225 C -13.085,29.225 0,16.141 0,0"
             style="fill:#ffaa45;fill-opacity:1;fill-rule:nonzero;stroke:none"
             id="path152"
             inkscape:connector-curvature="0"
             class="activity-background"
             ng-class="{'activity-selected' : route.activities.indexOf('ice_climbing') &gt; -1}" />
        </g>
        <g
           id="g154"
           transform="translate(194.7535,257.3167)">
          <path
             d="m 0,0 c -0.292,0.945 -0.822,5.282 0.424,5.956 1.246,0.672 1.968,1.896 2.217,2.778 0.248,0.88 -0.082,0.667 0.523,0.89 0.607,0.223 1.569,1.664 0.554,2.95 -0.601,0.761 -0.698,1.281 -0.678,1.579 0.011,0.166 0.101,0.312 0.236,0.408 0.633,0.446 2.961,2.259 1.857,4.081 0,0 -1.461,2.474 -3.452,1.54 0,0 -1.275,-0.328 -1.503,-1.256 0,0 -0.248,-0.4 -0.476,-0.389 -0.141,0.007 -0.315,0.05 -0.463,0.025 -0.203,-0.035 -0.407,0.043 -0.534,0.206 -0.245,0.316 -0.568,0.801 -0.693,1.293 -0.212,0.834 -0.228,0.972 -0.484,1.374 -0.255,0.401 -0.256,1.798 -0.482,2.335 -0.226,0.538 -1.032,1.401 -1.443,1.901 -0.282,0.344 -0.288,0.845 -0.602,1.157 0,0 -0.302,0.439 -1.425,0.314 -0.31,-0.034 -0.329,-0.13 -0.37,-0.371 -0.063,-0.363 -0.158,-0.427 -0.072,-0.546 0.085,-0.118 -0.174,-0.266 -0.02,-0.411 0.153,-0.145 -0.176,-0.312 0.024,-0.459 0.19,-0.14 0.294,-0.759 0.989,-1.106 0.132,-0.066 0.24,-0.176 0.286,-0.317 0.053,-0.163 0.098,-0.424 0.104,-0.842 0.016,-1.007 -0.002,-1.471 0.287,-2.085 0.039,-0.082 0.062,-0.172 0.058,-0.264 -0.014,-0.387 -0.033,-1.512 0.208,-2.091 0.022,-0.053 0.046,-0.103 0.073,-0.146 0.383,-0.613 -0.556,0.828 -1.228,1.593 -0.673,0.765 -0.969,1.764 -1.602,2.39 -0.634,0.626 -0.886,0.615 -1.075,0.991 -0.159,0.316 -0.287,1.281 -0.791,1.584 -0.068,0.041 -0.15,0.054 -0.23,0.057 l -0.597,0.02 c -0.373,-0.048 -0.511,-0.206 -0.599,-0.639 -0.12,-0.59 -0.099,-1.072 -0.001,-1.443 0.097,-0.371 0.181,-1.474 1.27,-1.686 0,0 0.318,-0.061 0.726,-1.088 0.35,-0.882 0.469,-1.33 0.733,-1.611 0.083,-0.087 0.136,-0.197 0.147,-0.316 0.026,-0.275 0.162,-0.819 0.767,-1.45 0.872,-0.912 1.802,-2.033 2.24,-2.443 0.438,-0.41 1.349,-0.523 1.12,-1.473 C -4.206,12.04 -4.786,11.884 -5.048,10.729 -5.31,9.573 -5.565,9.014 -5.669,8.309 -5.768,7.623 -6.934,6.403 -7.052,4.758 -7.055,4.712 -7.058,4.666 -7.059,4.621 -7.112,3.109 -7.759,3.3 -7.571,2.611 -7.513,2.398 -7.586,2.171 -7.758,2.032 -8.426,1.491 -9.984,0.202 -10.534,-0.5 c -0.708,-0.905 -1.101,-1.482 -0.994,-2.105 0.107,-0.623 0.238,-1.248 0.72,-1.683 0.483,-0.436 0.268,-0.631 0.626,-1.289 0.357,-0.659 1.608,-3.215 1.159,-3.971 -0.448,-0.757 -0.64,-0.931 -1.071,-1.322 -0.423,-0.384 -2.627,-1.566 -0.675,-2.551 0.073,-0.037 0.155,-0.056 0.237,-0.059 0.466,-0.012 2.132,-0.053 2.76,-0.043 0.733,0.01 1.237,-0.45 1.735,0.351 0.495,0.8 0.965,1.03 0.604,1.619 -0.361,0.59 -0.454,0.572 -0.599,1.357 -0.145,0.786 -0.194,1.681 -0.399,2.652 -0.205,0.971 -1.058,3.692 -1.245,4.09 -0.187,0.399 -0.019,0.093 -0.019,0.093 0,0 1.402,0.596 2.275,1.607 0,0 0.077,-0.133 0.173,-0.375 0,0 0.869,-1.935 0.598,-6.019 -0.01,-0.156 0.105,-0.262 0.165,-0.337 0.237,-0.299 0.38,-0.494 0.661,-0.597 0.167,-0.062 0.306,-0.182 0.365,-0.35 0.13,-0.371 0.369,-1.026 0.596,-1.488 0.334,-0.681 1.015,-2.248 1.09,-2.572 0.076,-0.324 0.226,-1.018 0.157,-1.495 -0.068,-0.478 0.18,-0.078 -0.015,-0.801 -0.196,-0.723 -1.014,-1.553 -1.082,-2.031 -0.07,-0.478 -0.042,-0.869 0.68,-1.086 0.723,-0.218 1.025,-0.095 1.624,-0.032 0.599,0.062 1.315,0.189 1.568,0.244 0.256,0.056 0.506,0.044 0.403,1.217 -0.104,1.173 0.023,0.961 0.047,1.464 0.024,0.502 0.018,1.327 -0.286,2.143 -0.304,0.816 -0.898,3.225 -1.175,4.109 -0.257,0.817 -0.45,2.179 -1.056,2.769 -0.105,0.101 -0.157,0.242 -0.156,0.388 0.004,0.646 0.038,2.326 0.273,3.047 C -0.495,-2.654 0.177,-0.58 0,0"
             style="fill:#ffffff;fill-opacity:1;fill-rule:nonzero;stroke:none"
             id="path156"
             inkscape:connector-curvature="0" />
        </g>
      </g>
      <g
         id="g5159">
        <g
           id="g158"
           transform="translate(-54.576271,-166.00678)">
          <g
             id="g160"
             clip-path="url(#clipPath162)">
            <g
               id="g166"
               transform="translate(183.6001,288.4223)">
              <path
                 d="m 0,0 c 0.344,0.628 0.652,1.203 0.901,1.701 1.073,2.147 1.788,6.08 0.715,6.974 -1.073,0.895 -0.179,1.967 0,3.219 C 1.717117,13.1178 -9.1041928,5.3588949 -9.1756925,6.5847829 -17.563138,36.211776 -24.592582,-60.718147 9.788,-62.645 c -0.467,1.522 -1.008,3.252 -1.198,3.726 -0.357,0.895 -4.292,8.226 -5.364,10.372 -1.073,2.146 -3.04,6.974 -4.65,9.656 -1.609,2.682 -6.08,13.948 -6.795,16.63 -0.715,2.683 0.537,4.292 -0.358,4.829 -0.893,0.535 0,1.073 0.895,2.503 0.894,1.431 2.145,4.828 3.755,7.868 1.171,2.212 2.625,4.706 3.744,6.728"
                 style="fill:#ffffff;fill-opacity:1;fill-rule:nonzero;stroke:none"
                 id="path168"
                 inkscape:connector-curvature="0" />
            </g>
            <g
               id="g170"
               transform="translate(174.3465,296.625)">
              <path
                 d="M 0,0 -11.75,-10 -12.988109,-26.614717 -10.75,-42.25 l 6,-8.125 8.7033898,-5.495763 L -1,-17.25 Z"
                 style="fill:#ffffff;fill-opacity:1;fill-rule:nonzero;stroke:none"
                 id="path172"
                 inkscape:connector-curvature="0"
                 sodipodi:nodetypes="cccccccc" />
            </g>
          </g>
        </g>
        <g
           id="g182"
           transform="translate(135.94793,133.05772)">
          <path
             d="m 0,0 c -15.839,0 -28.725,-12.886 -28.725,-28.725 0,-15.839 12.886,-28.726 28.725,-28.726 15.839,0 28.726,12.887 28.726,28.726 C 28.726,-12.886 15.839,0 0,0 m 0,-58.451 c -16.391,0 -29.725,13.335 -29.725,29.726 C -29.725,-12.334 -16.391,1 0,1 16.391,1 29.726,-12.334 29.726,-28.725 29.726,-45.116 16.391,-58.451 0,-58.451"
             style="fill:#ffaa45;fill-opacity:1;fill-rule:nonzero;stroke:none"
             id="path184"
             inkscape:connector-curvature="0"
             class="activity-background"
             ng-class="{'activity-selected' : route.activities.indexOf('ice_climbing') &gt; -1}" />
        </g>
        <g
           id="g186"
           transform="translate(131.32513,123.89912)">
          <path
             d="m 0,0 -0.038,-0.263 c 0,0 2.254,0.932 2.455,1.065 0.2,0.132 0.599,0.766 1.271,0.113 l 1.01,-2.695 c 0,0 0.754,-1.953 -0.396,-3.473 l -1.264,-1.517 0.63,-0.52 1.301,1.546 c 0,0 1.31,1.792 0.606,3.812 C 4.871,0.088 4.457,1.181 4.457,1.181 L 4.332,1.762 5.783,2.261 5.911,2.485 3.196,2.261 C 3.196,2.261 1.358,0.577 0,0"
             style="fill:#ffffff;fill-opacity:1;fill-rule:nonzero;stroke:none"
             id="path188"
             inkscape:connector-curvature="0" />
        </g>
        <g
           id="g190"
           transform="translate(123.89373,119.72572)">
          <path
             d="m 0,0 0.1,-0.246 c 0,0 1.479,1.94 1.585,2.155 0.106,0.215 0.133,0.964 1.042,0.737 l 2.228,-1.82 c 0,0 1.635,-1.309 1.405,-3.201 l -0.329,-1.947 0.806,-0.132 0.348,1.99 c 0,0 0.23,2.208 -1.395,3.6 C 4.165,2.527 3.258,3.263 3.258,3.263 L 2.857,3.703 3.861,4.863 3.858,5.122 1.624,3.562 C 1.624,3.562 0.883,1.182 0,0"
             style="fill:#ffffff;fill-opacity:1;fill-rule:nonzero;stroke:none"
             id="path192"
             inkscape:connector-curvature="0" />
        </g>
      </g>
    </g>
  </g>
  <g
     id="skitouring"
     ng-click="editCtrl.pushToArray(route, 'activities', 'skitouring', $event)"
     class="activity-icon"
     transform="matrix(1,0,0,-1,-292.47645,168.08749)">
    <title>skitouring</title>
    <g
       id="g5222"
       transform="translate(-6.4,32)">
      <g
         transform="translate(361.08393,103.96732)"
         id="g298">
        <path
           id="path300"
           style="fill:#ffaa45;fill-opacity:1;fill-rule:nonzero;stroke:none"
           d="m 0,0 c 0,-16.141 -13.085,-29.225 -29.225,-29.225 -16.141,0 -29.226,13.084 -29.226,29.225 0,16.141 13.085,29.225 29.226,29.225 C -13.085,29.225 0,16.141 0,0"
           inkscape:connector-curvature="0"
           class="activity-background"
           ng-class="{'activity-selected' : route.activities.indexOf('skitouring') &gt; -1}" />
      </g>
      <g
         transform="translate(321.83253,93.03852)"
         id="g302">
        <path
           id="path304"
           style="fill:#ffffff;fill-opacity:1;fill-rule:nonzero;stroke:none"
           d="m 0,0 -9.617,-6.004 1.331,-2.5 2.988,0 L 13.475,6.901 11.248,7.009 10.161,6.357 9.183,6.466 9.156,9.291 c 0,0 6.167,1.386 5.922,5.706 -0.244,1.521 -0.57,2.255 -0.57,2.255 l 0.577,0.516 c 0,0 -0.454,0.761 0,1.059 0.455,0.299 1.297,-1.467 2.112,-1.684 0,0 -0.19,-1.005 0.191,-1.413 0.38,-0.407 1.521,-1.249 1.548,-1.63 0.027,-0.38 -0.788,-4.401 2.255,-2.363 1.684,1.059 1.06,1.63 1.06,1.63 L 34.34,20.43 c 0,0 0.897,-0.163 1.06,0.435 0.163,0.598 -0.734,0.788 -1.087,0.571 -0.353,-0.218 -0.299,-0.408 -0.299,-0.408 l -11.899,-6.683 -0.652,0.081 c 0,0 -1.359,1.848 -1.44,2.581 -0.082,0.734 -1.033,2.554 -1.033,2.554 0,0 -3.07,2.744 -3.341,3.722 -0.272,0.978 -2.119,1.195 -2.119,1.195 0,0 -0.163,1.902 -1.141,2.473 -0.978,0.57 -1.63,0.652 -1.848,1.114 -0.217,0.461 -0.434,1.766 -1.087,1.793 l 1.576,2.092 c 0,0 0.951,0.353 0.951,0.787 0,0.435 -0.57,0.843 -0.57,0.843 0,0 -1.44,-0.163 -0.924,-1.223 L 8.504,29.993 c 0,0 -1.766,0.164 -2.853,-0.896 -1.087,-1.06 -0.842,-2.961 -0.842,-2.961 0,0 0.625,-1.44 -3.559,-4.13 -4.184,-2.69 -0.625,-2.717 -0.625,-2.717 0,0 4.401,2.636 5.95,1.658 0,0 0.299,-0.924 0.136,-1.522 -0.164,-0.598 0.624,-0.462 0.624,-0.462 0,0 -0.027,-0.978 -0.407,-1.114 C 6.547,17.714 6.656,14.426 6.221,13.611 5.787,12.796 2.527,6.819 2.527,4.075 2.472,3.613 1.494,2.445 1.494,2.445 1.494,2.445 -0.082,0.978 0,0"
           inkscape:connector-curvature="0" />
      </g>
    </g>
  </g>
  <g
     id="snowshoeing"
     ng-click="editCtrl.pushToArray(route, 'activities', 'snowshoeing', $event)"
     class="activity-icon"
     transform="matrix(1,0,0,-1,-97.6,76.861824)">
    <title>snowshoeing</title>
    <g
       id="g5283"
       transform="translate(-6.4,11.2)">
      <g
         transform="translate(164.91963,33.02392)"
         id="g24">
        <path
           id="path26"
           style="fill:#ffaa45;fill-opacity:1;fill-rule:nonzero;stroke:none"
           d="m 0,0 c 0,-16.141 -13.085,-29.225 -29.225,-29.225 -16.141,0 -29.226,13.084 -29.226,29.225 0,16.141 13.085,29.225 29.226,29.225 C -13.085,29.225 0,16.141 0,0"
           inkscape:connector-curvature="0"
           class="activity-background"
           ng-class="{'activity-selected' : route.activities.indexOf('snowshoeing') &gt; -1}" />
      </g>
      <g
         transform="translate(141.20323,31.55672)"
         id="g28">
        <path
           id="path30"
           style="fill:#ffffff;fill-opacity:1;fill-rule:nonzero;stroke:none"
           d="m 0,0 c 0.128,0.576 -0.805,1.107 -0.052,1.682 0.025,0.02 -0.208,0.32 -0.26,0.507 -0.194,0.7 0.077,1.356 0.697,1.754 C 0.711,4.153 1.102,3.865 1.123,3.392 1.128,3.279 1.095,3.165 1.079,3.052 1.224,3.079 1.425,3.057 1.501,3.144 1.623,3.285 1.664,3.498 1.738,3.681 1.811,3.499 1.884,3.317 1.981,3.076 1.675,2.301 1.377,1.516 1.053,0.741 0.939,0.468 0.725,0.235 0.62,-0.04 0.532,-0.272 0.535,-0.539 0.498,-0.791 0.32,-0.525 -0.048,-0.216 0,0 M 0.503,6.531 C 0.53,6.537 0.574,6.466 0.61,6.43 0.539,6.391 0.469,6.353 0.401,6.315 0.358,6.358 0.322,6.394 0.286,6.43 0.358,6.466 0.427,6.514 0.503,6.531 M -4.564,-5.392 C -4.768,-5.838 -5.137,-6.265 -5.168,-6.718 -5.202,-7.215 -5.457,-7.287 -5.787,-7.4 -5.9,-7.438 -6.012,-7.479 -6.124,-7.519 c 10e-4,0.144 -0.041,0.306 0.01,0.429 0.416,1.006 1.276,1.771 1.561,2.853 0.013,0.05 0.142,0.068 0.217,0.101 0.033,-0.093 0.066,-0.185 0.13,-0.367 -0.101,-0.253 -0.216,-0.577 -0.358,-0.889 M 8.919,-17.404 c -0.196,0.217 -0.359,0.529 -0.776,0.352 -0.687,-0.291 -1.388,-0.553 -2.092,-0.799 -0.237,-0.082 -0.505,-0.079 -0.758,-0.116 -0.039,0.798 -0.883,0.5 -1.217,0.895 -0.304,0.36 -0.535,0.542 -1.036,0.139 0,0 -1.903,-0.474 -1.09,7.391 C 2.057,-8.5 2.099,-7.862 1.9,-7.039 1.557,-5.623 1.3,-4.177 0.773,-2.82 0.564,-2.281 0.469,-1.705 0.681,-1.307 1.273,-0.198 1.623,1 2.116,2.142 2.356,2.698 2.666,3.107 3.209,3.368 3.436,3.477 3.622,3.673 3.826,3.829 4.221,4.133 4.29,4.495 4.051,4.935 3.956,5.108 3.853,5.307 3.854,5.494 3.854,5.838 3.734,5.949 3.391,5.955 2.944,5.963 2.555,5.939 2.271,5.517 2.03,5.161 1.77,5.257 1.491,5.536 1.209,5.816 1.129,6.064 1.474,6.319 1.886,6.624 2.115,7.094 2.69,7.291 3.089,7.428 3.313,8.065 3.624,8.472 3.789,8.687 3.604,9.798 3.376,9.785 2.719,9.747 1.961,10.165 1.425,9.493 1.09,9.072 0.668,9.191 0.258,9.184 0.169,9.182 0.012,9.257 0.004,9.314 -0.017,9.453 -0.022,9.653 0.06,9.74 c 0,0 0.272,2.701 -0.294,5.33 -0.073,0.338 -0.007,0.785 0.003,1.184 0.756,-0.084 0.485,0.818 0.999,1.031 0.4,0.166 0.57,0.575 0.51,1.074 -0.025,0.209 0.189,0.449 0.299,0.672 0.353,0.719 0.482,1.414 0.015,2.163 -0.286,0.459 -0.496,0.983 -0.646,1.505 0,0 -2.165,2.486 -4.581,-0.184 -0.182,-0.202 -0.356,-0.698 -0.252,-0.822 0.487,-0.576 0.197,-1.225 0.298,-1.828 0.178,-1.057 -0.063,-1.929 -0.758,-2.633 -0.312,0.024 -0.785,0.266 -0.929,0.329 -0.141,0.065 -0.4,0.137 -0.643,0.142 -0.243,0.006 -0.546,-0.181 -0.711,-0.242 -0.164,-0.059 -0.741,-0.537 -0.741,-0.537 0,0 -0.415,-0.219 -0.852,-1.038 -0.437,-0.818 -0.288,-0.74 -1.005,-1.751 -0.718,-1.011 -1.124,-0.939 -1.586,-1.605 -0.463,-0.667 -0.619,-1.056 -0.802,-1.367 -1.476,-2.512 -0.362,-5.764 -0.362,-5.764 -0.07,-0.319 0.963,-0.865 0.963,-0.865 0.162,-0.109 0.311,-0.252 0.311,-0.252 l 0.633,-0.366 c 0,0 0.55,-0.458 1.006,-0.561 0.455,-0.102 1.712,0.127 1.806,0.135 0,0 0.036,0.023 0.085,0.051 0.021,-0.782 0.175,-1.565 0.473,-2.11 0.739,-1.352 1.493,-2.703 1.989,-4.184 0.155,-0.462 0.151,-0.714 -0.106,-1.125 -0.526,-0.845 -0.936,-1.762 -1.391,-2.651 -1.126,-2.205 -6.201,-4.722 -6.201,-4.722 -0.185,-0.158 -0.501,-0.298 -0.525,-0.478 -0.046,-0.342 -0.055,-0.863 0.15,-1.034 0.625,-0.52 0.673,-1.227 0.941,-1.892 0.258,-0.642 0.201,-0.667 -0.409,-0.75 l -10.154,-1.617 c -0.201,-0.04 -0.658,-0.191 -0.421,-0.594 0.145,-0.244 0.359,-0.758 0.777,-0.485 0.238,0.156 0.574,0.197 0.872,0.22 l 8.228,0.852 c 1.438,0.141 1.75,0.229 2.762,-0.199 0.319,-0.135 0.833,0.123 0.761,0.44 -0.161,0.707 0.414,0.84 0.778,1.11 0.61,0.452 1.266,0.841 1.891,1.273 0.091,0.063 0.115,0.449 0.171,0.564 -0.152,0.024 -0.324,0.107 -0.451,0.062 -0.373,-0.135 -0.726,-0.324 -1.09,-0.486 -0.364,-0.161 -0.722,-0.35 -1.102,-0.454 -0.137,-0.037 -0.332,0.138 -0.501,0.216 0.46,0.406 5.839,3.497 5.839,3.497 0.052,0.046 0.206,0.073 0.215,0.056 0.047,-0.086 0.105,-0.203 0.08,-0.284 -0.299,-0.951 -0.881,-1.792 -1.071,-2.789 -0.026,-0.132 -0.295,-0.346 -0.32,-0.329 -0.718,0.494 -0.661,-0.214 -0.512,-0.422 0.33,-0.462 0.362,-0.807 -0.021,-1.215 -0.036,-0.038 0.044,-0.186 0.071,-0.282 0.114,0.059 0.222,0.138 0.344,0.174 0.364,0.108 0.033,0.807 0.648,0.723 0.471,-0.065 0.714,0.064 0.423,0.621 -0.157,0.302 -0.301,0.773 -0.174,1.032 0.55,1.124 0.974,2.291 1.394,3.464 0.05,0.137 0.22,0.232 0.334,0.346 0.061,-0.122 0.173,-0.244 0.175,-0.367 0.016,-0.807 -0.034,-1.618 0.02,-2.422 0.055,-0.821 0.048,-1.67 0.305,-2.453 0.902,-2.747 0.528,-2.732 0.528,-2.732 -0.319,-0.264 -0.842,-0.282 -1.275,-0.406 -0.05,-0.014 -0.108,0.001 -0.161,-0.002 -1.733,-0.107 -3.465,-0.215 -5.198,-0.322 -0.107,-0.006 -0.245,0.041 -0.316,-0.01 -0.139,-0.099 -0.32,-0.394 -0.34,-0.537 -0.032,-0.223 -0.141,-0.573 0.304,-0.578 0.672,-0.008 1.252,-0.367 1.967,-0.354 3.714,0.067 7.431,0.05 11.146,0.022 1.668,-0.012 3.205,0.857 4.357,1.938 0.201,0.189 0.131,0.463 -0.111,0.73"
           inkscape:connector-curvature="0" />
      </g>
    </g>
  </g>
  <g
     id="via_ferrata"
     ng-click="editCtrl.pushToArray(route, 'activities', 'via_ferrata', $event)"
     class="activity-icon"
     transform="matrix(1,0,0,-1,-394.17875,166.74002)">
    <title>via_ferrata</title>
    <g
       id="g4319"
       transform="translate(-6.4,27.2)"
       inkscape:label="#g5238">
      <g
         id="g5228">
        <g
           id="g86"
           transform="translate(461.45203,107.52282)">
          <path
             d="m 0,0 c 0,-16.141 -13.085,-29.225 -29.225,-29.225 -16.141,0 -29.226,13.084 -29.226,29.225 0,16.141 13.085,29.225 29.226,29.225 C -13.085,29.225 0,16.141 0,0"
             style="fill:#ffaa45;fill-opacity:1;fill-rule:nonzero;stroke:none"
             id="path88"
             inkscape:connector-curvature="0"
             class="activity-background"
             ng-class="{'activity-selected' : route.activities.indexOf('via_ferrata') &gt; -1}" />
        </g>
        <g
           id="g90"
           transform="translate(-54.576271,-166.00678)">
          <g
             id="g92"
             clip-path="url(#clipPath94)">
            <g
               id="g98"
               transform="translate(499.4168,304.5395)">
              <path
                 d="M 6.529661,-8.7711865 -1.185,-6.74 c 0,0 -0.8,-5.017 -0.88,-5.207 -0.079,-0.189 -0.397,-2.658 0,-4.78 0.398,-2.122 0.471,-4.998 0.935,-6.685 0.463,-1.687 1.276,-4.963 -1.13,-7.95 -2.407,-2.987 -3.157,-4.737 -3.157,-6.237 0,-1.5 0.25,-6.217 1.25,-7.734 1,-1.516 1.417,-0.016 1.459,-3.516 0.041,-3.5 -2.209,-5 -2.709,-5.75 -0.5,-0.75 -2.489,-4.155 -2.489,-4.155 l 0.4442144,-0.70523 c 0,0 9.9857518,2.336523 10.8417518,4.586523 0.855,2.25 9.0416088,8.477235 9.5873908,10.228836 l 3.238908,11.101667 -1.429079,12.251679 z"
                 style="fill:#ffffff;fill-opacity:1;fill-rule:nonzero;stroke:none"
                 id="path100"
                 inkscape:connector-curvature="0" />
            </g>
          </g>
        </g>
        <g
           id="g110"
           transform="translate(428.57673,100.75792)">
          <path
             d="m 0,0 c -0.52,1.054 -2.181,3.691 -2.552,4.963 0.631,0.179 1.256,0.396 1.898,0.531 0.812,0.17 0.818,0.141 0.957,0.98 C 0.311,6.523 0.285,6.594 0.31,6.623 0.427,6.751 0.556,6.867 0.681,6.988 0.772,6.885 0.946,6.779 0.942,6.68 0.893,5.473 1.376,4.435 1.835,3.412 2.061,2.777 2.082,2.813 2.378,1.941 2.933,0.718 2.391,-0.67 3.035,-1.898 4.63,-1.927 6.306,-1.963 7.981,-1.981 8.161,-1.983 8.342,-1.879 8.522,-1.824 8.46,-1.658 8.429,-1.47 8.33,-1.33 7.941,-0.776 7.365,-0.528 6.717,-0.464 6.411,-0.434 6.149,-0.428 5.919,-0.158 5.673,0.131 5.465,0.489 4.955,0.477 4.816,0.473 4.629,0.909 4.527,1.169 3.996,2.507 4.015,3.949 4.003,5.331 3.991,6.676 3.665,7.956 3.565,9.274 3.493,10.216 2.769,10.768 1.783,10.845 0.743,10.926 -0.228,10.718 -1.101,10.096 -1.343,9.924 -1.672,9.874 -1.9,9.791 c -0.024,0.602 -0.045,1.104 -0.073,1.778 0.803,-0.016 1.498,0.104 2.095,-0.084 0.459,-0.145 0.785,-0.058 1.211,-0.019 1.125,0.105 2.063,0.697 3.091,1.028 0.795,0.256 1.497,0.577 2.385,0.47 0.38,-0.045 1.087,-0.221 1.238,0.081 0.216,0.431 0.391,0.545 0.815,0.491 0.119,-0.015 0.369,0.118 0.364,0.162 C 9.207,13.869 9.154,14.084 9.033,14.187 8.821,14.366 8.547,14.594 8.302,14.59 7.677,14.58 7.045,14.493 6.43,14.365 5.082,14.085 3.747,13.744 2.399,13.461 1.58,13.289 0.708,13.693 -0.095,13.257 c -0.629,0.318 -1.265,0.626 -1.883,0.966 -0.09,0.049 -0.173,0.278 -0.134,0.373 0.445,1.089 0.43,2.451 1.559,3.545 l 2.774,3.166 c 0.532,0.611 1.167,1.13 1.739,1.709 0.233,0.236 0.397,0.584 0.584,0.801 0.736,0.853 1.242,1.878 2.088,2.654 0.417,0.382 0.929,0.014 1.236,0.33 0.326,0.337 0.537,0.785 0.818,1.17 0.034,0.047 0.211,-0.031 0.291,0.009 0.171,0.087 0.376,0.184 0.461,0.335 0.063,0.114 -0.012,0.452 -0.075,0.466 C 8.675,28.932 7.988,28.858 7.415,28.443 5.499,27.054 3.515,25.746 1.898,23.986 1.693,23.764 1.429,23.585 1.267,23.337 c -0.937,-1.44 -2.492,-2.94 -3.796,-3.621 -0.43,-0.225 -0.63,-0.13 -0.567,0.386 0.087,0.728 -0.136,1.259 -0.691,1.712 -0.172,0.14 -0.232,0.41 -0.365,0.605 -0.192,0.282 -0.348,0.636 -0.616,0.807 -1.213,0.775 -3.937,-0.079 -4.317,-1.437 -0.245,-0.88 -0.124,-1.899 0.341,-2.712 0.335,-0.584 0.527,-1.268 0.889,-1.756 0.487,-0.656 0.174,-1.032 -0.062,-1.521 0,0 -1.343,-2.494 0.21,-6.634 0.325,-0.864 0.408,-1.701 -0.032,-2.504 0,0 -1.37,-2.196 -0.152,-4.291 0.453,-0.78 1.214,-1.365 1.916,-1.925 0.858,-0.685 3.782,-3.173 3.782,-3.173 0.482,-0.45 0.942,-0.927 1.375,-1.426 0.145,-0.167 0.255,-0.428 0.257,-0.646 0.01,-1.432 0.533,-2.683 1.175,-3.935 0.382,-0.746 0.863,-1.661 0.601,-2.442 -0.28,-0.833 0.061,-1.528 0.015,-2.28 -0.026,-0.415 0.19,-0.5 0.549,-0.502 1.067,-0.006 2.135,-0.07 3.2,-0.035 0.399,0.013 1.045,-0.355 1.153,0.264 0.049,0.28 -0.476,0.718 -0.816,0.989 -0.283,0.227 -0.678,0.312 -1.02,0.467 -0.552,0.251 -0.995,0.572 -1.09,1.253 -0.071,0.511 -0.304,0.999 -0.381,1.51 C 2.667,-8.454 2.7,-7.35 2.403,-6.34 2.132,-5.423 2.022,-4.536 2.054,-3.603 2.06,-3.418 2.047,-3.146 1.933,-3.057 0.983,-2.319 0.499,-0.968 0,0"
             style="fill:#ffffff;fill-opacity:1;fill-rule:nonzero;stroke:none"
             id="path112"
             inkscape:connector-curvature="0" />
        </g>
      </g>
      <g
         transform="translate(444.13683,84.64732)"
         id="g114">
        <path
           id="path116"
           style="fill:#ffffff;fill-opacity:1;fill-rule:nonzero;stroke:none"
           d="m 0,0 -12.197,0 c -0.642,0 -1.167,0.525 -1.167,1.167 l 0,0 c 0,0.641 0.525,1.166 1.167,1.166 L 0,2.333 c 0.642,0 1.167,-0.525 1.167,-1.166 l 0,0 C 1.167,0.525 0.642,0 0,0"
           inkscape:connector-curvature="0" />
      </g>
      <g
         transform="translate(446.13683,96.68892)"
         id="g118">
        <path
           id="path120"
           style="fill:#ffffff;fill-opacity:1;fill-rule:nonzero;stroke:none"
           d="m 0,0 -12.197,0 c -0.642,0 -1.167,0.525 -1.167,1.167 0,0.641 0.525,1.166 1.167,1.166 L 0,2.333 C 0.642,2.333 1.167,1.808 1.167,1.167 1.167,0.525 0.642,0 0,0"
           inkscape:connector-curvature="0" />
      </g>
      <g
         transform="translate(449.94543,112.28272)"
         id="g122">
        <path
           id="path124"
           style="fill:#ffffff;fill-opacity:1;fill-rule:nonzero;stroke:none"
           d="m 0,0 -12.197,0 c -0.642,0 -1.167,0.525 -1.167,1.167 0,0.641 0.525,1.166 1.167,1.166 L 0,2.333 C 0.642,2.333 1.167,1.808 1.167,1.167 1.167,0.525 0.642,0 0,0"
           inkscape:connector-curvature="0" />
      </g>
      <g
         transform="translate(447.94543,127.27792)"
         id="g126">
        <path
           id="path128"
           style="fill:#ffffff;fill-opacity:1;fill-rule:nonzero;stroke:none"
           d="m 0,0 -10.197,0 c -0.642,0 -1.167,0.525 -1.167,1.167 0,0.641 0.525,1.166 1.167,1.166 l 7.197,0 c 0.642,0 3.167,-0.525 3.167,-1.166 l -1,0 C -0.833,0.525 0.642,0 0,0"
           inkscape:connector-curvature="0" />
      </g>
    </g>
  </g>
  <g
     id="rock_climbing"
     ng-click="editCtrl.pushToArray(route, 'activities', 'rock_climbing', $event)"
     class="activity-icon"
     transform="matrix(1,0,0,-1,-293.4866,76.069934)">
    <title>rock_climbing</title>
    <g
       id="g5269"
       transform="translate(-6.4,11.2)">
      <g
         transform="translate(360.87533,32.99862)"
         id="g278">
        <path
           id="path280"
           style="fill:#ffaa45;fill-opacity:1;fill-rule:nonzero;stroke:none"
           d="m 0,0 c 0,-16.141 -13.085,-29.225 -29.225,-29.225 -16.141,0 -29.226,13.084 -29.226,29.225 0,16.141 13.085,29.225 29.226,29.225 C -13.085,29.225 0,16.141 0,0"
           inkscape:connector-curvature="0"
           class="activity-background"
           ng-class="{'activity-selected' : route.activities.indexOf('rock_climbing') &gt; -1}" />
      </g>
      <g
         transform="translate(326.83263,21.94902)"
         id="g286">
        <path
           id="path288"
           style="fill:#ffffff;fill-opacity:1;fill-rule:nonzero;stroke:none"
           d="M 0,0 C 0.012,0.027 0.028,0.038 0.028,0.038 0.028,0.038 0.015,0.021 0,0 m -4.093,16.715 1.423,0.107 c 0.313,-0.023 0.582,0.007 0.69,0.145 0.333,0.424 1.159,0.883 1.392,1.115 0.233,0.232 1.648,1.131 1.859,1.239 0.21,0.109 0.282,0.394 0.525,0.093 C 3.232,17.63 4.33,15.538 4.33,15.538 3.544,14.737 1.666,13.497 1.666,13.497 1.504,13.422 1.464,13.386 1.428,13.013 1.227,10.927 0.592,9.659 0.592,9.659 c 0,0 -0.01,0.742 -0.312,1.052 -0.302,0.309 -0.481,0.596 -0.716,0.81 0,0 -3.007,3.817 -3.657,5.194 m 8.804,-28.311 c -0.383,0.569 -3.693,8.078 -3.926,8.892 -0.189,0.664 -0.081,0.364 -0.31,0.945 -0.21,0.534 -0.042,0.453 0.039,0.776 0.082,0.323 -0.125,0.235 -0.379,0.578 -0.126,0.172 -0.153,0.283 -0.149,0.351 0.027,0.024 0.069,0.067 0.135,0.138 0.317,0.343 0.752,-0.167 1.616,-0.745 0.551,-0.369 2.207,-1.32 2.207,-1.32 0.202,0.068 0.377,0.437 0.377,0.437 0.229,0.336 0.739,2.378 0.739,2.378 0,0 -0.389,6.069 0.4,9.335 0.026,-0.022 0.291,0.18 0.368,0.19 C 6.154,10.404 6.535,10.116 7.77,9.823 8.132,9.737 8.531,9.67 8.912,9.617 L 9.473,9.55 C 10.144,9.477 10.661,9.454 10.661,9.454 10.784,8.521 11.814,3.721 11.956,3.123 12.099,2.526 12.298,2.235 12.564,1.847 12.83,1.459 13.596,0.915 13.846,0.784 l 1.544,-1.436 c 0.222,-0.312 2.775,-3.872 2.944,-4.094 0.171,-0.222 0.092,-0.419 -0.009,-0.505 -0.101,-0.088 -0.198,-0.154 -0.324,-0.49 -0.126,-0.336 0.132,-0.427 0.402,-0.794 0.27,-0.367 0.209,-0.124 -0.088,-0.47 -0.296,-0.346 -0.3,-0.705 -0.245,-1.201 0.056,-0.497 -0.078,-0.536 -0.349,-0.971 -0.272,-0.436 -0.286,-0.285 -0.735,-1.449 -0.45,-1.164 0.68,-0.888 1.44,-0.67 0.759,0.218 1.788,1.025 2.076,1.339 l 1.213,1.452 c 0.193,0.239 0.418,0.43 0.525,0.663 0.108,0.234 0.031,0.735 -0.12,1.059 -0.151,0.324 -0.332,0.308 -0.667,0.505 -0.977,0.574 -1.672,2.489 -1.672,2.489 -0.15,0.557 -0.654,1.94 -0.87,2.932 -0.217,0.992 -1.674,2.933 -2.246,3.611 -0.571,0.677 -0.617,0.432 -0.541,0.841 L 16.1,8.8 c -0.01,0.404 0.091,0.153 0.289,0.644 0,0 1.013,4.004 -0.7,6.009 -0.22,0.257 -0.118,0.277 0.025,0.249 2.4,-0.481 1.409,3.247 1.409,3.247 -0.009,0.473 -0.064,0.476 -0.129,0.786 0,0 -1.686,5.5 -6.663,6.907 0,0 -3.483,0.937 -5.656,0.06 0,0 -0.111,-0.255 -0.042,0.114 0.068,0.367 -0.072,0.521 -0.278,0.665 -0.206,0.143 -0.714,0.623 -0.957,0.875 0,0 -1.932,1.349 -4.66,-0.612 -1.033,-0.742 -0.367,-2.427 -0.358,-2.491 0.009,-0.066 0.011,-0.278 0.14,-0.492 0.13,-0.214 0.157,-0.41 0.13,-0.553 -0.026,-0.143 0.013,-0.383 -0.083,-0.788 -0.097,-0.405 0.159,-0.622 0.432,-0.63 0.274,-0.009 0.218,-0.422 0.218,-0.422 -0.968,-1.366 -2.169,-2.45 -2.169,-2.45 -0.499,-0.182 -0.117,-0.063 -1.512,0.282 -1.395,0.344 -1.175,0.388 -1.448,0.629 -0.272,0.241 -1.078,0.793 -1.157,0.935 -0.08,0.141 -0.386,0.198 -0.607,0.26 -0.221,0.063 -0.574,0.551 -0.574,0.551 -0.19,0.458 -0.727,0.981 -1.146,1.228 -0.419,0.248 -0.53,-0.007 -0.696,-0.103 -0.165,-0.095 -0.466,0.108 -0.466,0.108 -0.622,0.518 -0.88,-0.068 -0.88,-0.068 -0.353,0.256 -0.564,-0.191 -0.564,-0.191 -0.378,0.239 -0.566,-0.317 -0.566,-0.317 -0.886,-0.475 -1.114,0.037 -1.967,0.111 -0.853,0.074 -7.141741,2.557828 -7.141741,2.557828 l -2.845128,-13.16797 c -6.323447,-23.960722 20.6832455,-30.128801 31.9685632,-33.293684 0,0 -1.5166942,4.952826 -1.5846942,5.493826 -0.069,0.542 -0.341,0.783 -0.346,1.778 -0.005,0.994 -0.47,0.996 -0.805,1.693"
           inkscape:connector-curvature="0" />
      </g>
      <g
         transform="translate(331.64973,61.72392)"
         id="g290">
        <path
           id="path292"
           style="fill:#ffaa45;fill-opacity:1;fill-rule:nonzero;stroke:none"
           d="m 0,0 c -15.839,0 -28.725,-12.886 -28.725,-28.725 0,-15.839 12.886,-28.726 28.725,-28.726 15.839,0 28.726,12.887 28.726,28.726 C 28.726,-12.886 15.839,0 0,0 m 0,-58.451 c -16.391,0 -29.725,13.335 -29.725,29.726 C -29.725,-12.334 -16.391,1 0,1 16.391,1 29.726,-12.334 29.726,-28.725 29.726,-45.116 16.391,-58.451 0,-58.451"
           inkscape:connector-curvature="0"
           class="activity-background"
           ng-class="{'activity-selected' : route.activities.indexOf('rock_climbing') &gt; -1}" />
      </g>
    </g>
  </g>
  <g
     id="snow_ice_mixed"
     ng-click="editCtrl.pushToArray(route, 'activities', 'snow_ice_mixed', $event)"
     class="activity-icon"
     transform="matrix(1,0,0,-1,-394.43129,76.069934)">
    <title>snow_ice_mixed</title>
    <g
       id="g5257"
       transform="translate(-6.4,12.8)">
      <g
         transform="translate(-54.576271,-87.60678)"
         id="g250" />
      <g
         id="g5300">
        <g
           transform="translate(443.01023,44.468824)"
           id="g242">
          <path
             id="path244"
             style="fill:#ffffff;fill-opacity:1;fill-rule:nonzero;stroke:none"
             d="M 0,0 C 0.012,-0.005 0.012,-0.004 0,0"
             inkscape:connector-curvature="0" />
        </g>
        <g
           id="g238"
           transform="translate(462.07693,31.27282)">
          <path
             d="m 0,0 c 0,-16.141 -13.085,-29.225 -29.225,-29.225 -16.141,0 -29.226,13.084 -29.226,29.225 0,16.141 13.085,29.225 29.226,29.225 C -13.085,29.225 0,16.141 0,0"
             style="fill:#ffaa45;fill-opacity:1;fill-rule:nonzero;stroke:none"
             id="path240"
             inkscape:connector-curvature="0"
             class="activity-background"
             ng-class="{'activity-selected' : route.activities.indexOf('snow_ice_mixed') &gt; -1}" />
        </g>
        <g
           id="g246"
           transform="translate(444.64243,51.54942)">
          <path
             d="M 0,0 C -0.012,0.209 -1.76,0.288 -1.76,0.288 -2.023,0.236 -2.025,0.314 -2.025,0.314 L -3.519,0.067 c -0.546,-0.14 0.536,-0.326 0.536,-0.326 0,0 0.511,0.162 0.925,0.215 0.414,0.053 0.35,-0.535 0.35,-0.535 -0.256,-0.478 -0.938,-4.544 -1.163,-5.914 -0.259,-0.139 -0.468,-0.257 -0.543,-0.453 -0.096,-0.249 -0.141,-0.186 -0.417,-0.314 -0.277,-0.129 -0.623,-0.376 -1.017,-0.549 -0.393,-0.172 -1.38,-0.61 -2.052,-0.745 -0.672,-0.135 -1.368,-0.097 -1.873,-0.188 -0.503,-0.091 -0.611,-0.279 -0.836,-0.199 -0.224,0.08 -0.426,0.178 -0.518,0.24 -1.226,0.82 -0.57,0.918 -0.57,0.918 0,0 0.505,0.082 0.474,0.44 -0.029,0.359 -0.084,0.891 -0.046,1.17 0.037,0.279 0.159,0.616 0.083,0.726 0,0 0.333,0.214 0.24,0.623 0,0 0.091,0.539 -0.443,0.599 -0.534,0.06 -0.25,1.557 -1.018,1.956 -0.768,0.399 -1.247,0.543 -1.704,0.482 -0.457,-0.06 -1.621,-0.451 -1.928,-0.742 -0.307,-0.291 -0.468,-1.304 -0.356,-1.97 0.113,-0.666 -0.971,-0.049 -1.203,0.061 -0.138,0.07 -0.395,0.15 -0.637,0.164 -0.243,0.014 -0.552,-0.162 -0.719,-0.217 -0.166,-0.054 -0.759,-0.512 -0.759,-0.512 0,0 -0.423,-0.205 -0.887,-1.008 -0.465,-0.803 -0.313,-0.73 -1.065,-1.716 -0.752,-0.986 -1.155,-0.9 -1.64,-1.55 -0.485,-0.651 -0.654,-1.034 -0.847,-1.339 -1.561,-2.459 -0.559,-5.747 -0.559,-5.747 -0.081,-0.317 0.932,-0.898 0.932,-0.898 0.158,-0.114 0.303,-0.263 0.303,-0.263 l 0.62,-0.387 c 0,0 0.534,-0.477 0.986,-0.595 0.451,-0.118 1.715,0.068 1.81,0.074 0,0 -0.347,-0.983 -0.428,-1.481 0,0 -0.45,-1.931 0.42,-4.044 0,0 0.947,-3.882 1.076,-4.526 0.13,-0.644 0.043,-0.772 -0.181,-1.598 -0.224,-0.826 -1.649,-3.734 -1.595,-5.119 0,0 -0.062,-1.346 -0.406,-2.145 -0.186,-0.432 -0.503,-1.385 -0.631,-1.856 0,0 -0.32,-1.407 -0.364,-2.081 -0.018,-0.279 0.076,-0.656 0.076,-0.656 0,0 0.943,-0.433 2.159,-0.513 1.217,-0.079 1.656,-0.085 2.187,-0.083 0.532,0.003 3.279,0.251 2.65,1.355 -0.628,1.106 -0.507,1.068 -0.921,1.163 -0.416,0.094 -0.733,0.218 -1.037,0.324 -0.302,0.106 -0.517,0.449 -0.638,0.633 -0.12,0.185 -0.184,0.193 -0.277,0.289 -0.092,0.097 -0.064,0.112 0.024,0.246 0.088,0.132 0.245,0.236 0.058,0.439 -0.187,0.203 -0.259,0.041 -0.231,0.318 0.027,0.277 0.152,0.385 0.275,0.556 0.729,0.534 2.542,0.072 2.939,-0.088 0.397,-0.161 0.781,-0.25 1.276,-0.328 0.496,-0.078 1.514,-0.416 1.932,0.096 0.419,0.511 0.628,0.981 0.218,1.462 -0.409,0.482 -1.549,1.369 -1.787,1.52 -0.238,0.15 -0.398,0.733 -0.259,0.981 0.138,0.246 0.514,0.405 0.471,0.616 -0.042,0.211 -0.11,0.291 -0.271,0.363 -0.161,0.072 -0.537,0.307 -0.177,1.248 l 0.813,1.614 c 0.526,0.762 1.251,2.087 1.235,2.48 -0.017,0.393 -0.005,1.116 -0.311,2.014 -0.306,0.899 -0.735,1.95 -0.934,2.787 -0.199,0.836 -0.383,1.123 -0.485,1.27 0,0 -0.508,0.831 -0.322,2.439 0.023,0.205 0.141,1.322 0.626,1.66 l 0.355,0.468 c 0,0 0.48,0.889 0.451,1.238 0,0 0.206,0.428 0.253,-0.064 0.047,-0.491 0.158,-0.584 0.415,-0.876 0.258,-0.293 1.925,-2.463 2.465,-2.814 0.54,-0.351 0.7,-0.684 0.951,-0.894 0.251,-0.211 0.508,-0.399 0.655,-0.505 0.147,-0.106 0.323,-0.311 0.844,-0.145 0.518,0.167 1.132,1.324 1.258,1.474 0.126,0.151 0.817,1.124 -0.092,0.869 0,0 -0.658,-0.132 -0.965,-0.486 -0.304,-0.35 -0.261,-0.313 -0.258,-0.385 0.004,-0.072 -0.768,0.816 -0.909,1.048 -0.141,0.233 -0.288,0.391 -0.431,0.801 -0.146,0.409 -0.443,1.163 -0.566,1.514 -0.122,0.351 -0.381,0.757 -0.468,0.981 -0.097,0.25 -0.348,0.483 -0.45,0.756 -0.106,0.282 -0.129,0.494 -0.23,0.808 -0.079,0.247 -0.263,1.418 -0.391,1.539 0,0 1.531,0.38 2.046,0.723 0.515,0.344 1.739,1.164 2.119,1.407 0.379,0.243 0.988,0.532 1.325,0.516 0.337,-0.016 0.926,-0.085 1.01,-0.142 0.084,-0.056 0.597,0.089 0.76,0.581 0,0 0.503,0.455 0.126,0.777 -0.378,0.32 0.479,0.628 -0.062,0.821 0,0 0.022,-0.008 0.037,-0.014 -0.006,0.003 -0.009,0.004 -0.024,0.01 -0.021,0.008 -0.229,0.242 -0.255,0.3 0.09,2.35 0.968,4.931 1.177,5.459 0.22,0.559 0.254,0.041 0.254,0.041 C 0.637,-1.877 1.461,-2.296 1.461,-2.296 0.976,-1.661 0,0 0,0"
             style="fill:#ffffff;fill-opacity:1;fill-rule:nonzero;stroke:none"
             id="path248"
             inkscape:connector-curvature="0" />
        </g>
        <g
           transform="matrix(0.92993088,0,0,1,-19.432366,-87.606776)"
           id="g252"
           clip-path="url(#clipPath254)">
          <g
             id="g258"
             transform="translate(506.6153,300.114)">
            <path
               d="M 4.1233163,-148.24955 C 36.20597,-176.11386 10.060724,-225.33643 -28.256091,-210.64766"
               style="fill:#ffffff;fill-opacity:1;fill-rule:nonzero;stroke:none"
               id="path260"
               inkscape:connector-curvature="0" />
          </g>
        </g>
        <g
           id="g270"
           transform="translate(432.85133,59.99812)">
          <path
             d="m 0,0 c -15.839,0 -28.725,-12.886 -28.725,-28.725 0,-15.839 12.886,-28.726 28.725,-28.726 15.839,0 28.726,12.887 28.726,28.726 C 28.726,-12.886 15.839,0 0,0 m 0,-58.451 c -16.391,0 -29.725,13.335 -29.725,29.726 C -29.725,-12.334 -16.391,1 0,1 16.391,1 29.726,-12.334 29.726,-28.725 29.726,-45.116 16.391,-58.451 0,-58.451"
             style="fill:#ffaa45;fill-opacity:1;fill-rule:nonzero;stroke:none"
             id="path272"
             inkscape:connector-curvature="0"
             class="activity-background"
             ng-class="{'activity-selected' : route.activities.indexOf('snow_ice_mixed') &gt; -1}" />
        </g>
      </g>
    </g>
    <text
       xml:space="preserve"
       style="font-style:normal;font-weight:normal;font-size:12px;line-height:125%;font-family:sans-serif;letter-spacing:0px;word-spacing:0px;fill:#000000;fill-opacity:1;stroke:none;stroke-width:1px;stroke-linecap:butt;stroke-linejoin:miter;stroke-opacity:1"
       x="396.96906"
       y="-5.8529134"
       id="text4346"
       sodipodi:linespacing="125%"
       transform="scale(1,-1)"><tspan
         sodipodi:role="line"
         x="0"
         y="0"
         id="tspan4348"><tspan
           x="396.96906"
           y="-5.8529134"
           style="font-size:8px;line-height:122.00000286%"
           id="tspan4350" /></tspan></text>
  </g>
  <g
     id="mountain_biking"
     ng-click="editCtrl.pushToArray(route, 'activities', 'mountain_biking', $event)"
     class="activity-icon"
     transform="matrix(1,0,0,-1,0,76.382384)">
     <title>activity-icon</title>
    <g
       id="g5289"
       transform="translate(-4.8,11.2)">
      <g
         transform="translate(66.292329,32.67372)"
         id="g58">
        <path
           id="path60"
           style="fill:#ffaa45;fill-opacity:1;fill-rule:nonzero;stroke:none"
           d="m 0,0 c 0,-16.141 -13.085,-29.225 -29.225,-29.225 -16.141,0 -29.226,13.084 -29.226,29.225 0,16.141 13.085,29.225 29.226,29.225 C -13.085,29.225 0,16.141 0,0"
           inkscape:connector-curvature="0"
           class="activity-background"
           ng-class="{'activity-selected' : route.activities.indexOf('mountain_biking') &gt; -1}" />
      </g>
      <g
         transform="translate(30.057129,14.30462)"
         id="g62">
        <path
           id="path64"
           style="fill:#ffffff;fill-opacity:1;fill-rule:evenodd;stroke:none"
           d="m 0,0 c 0.218,-0.414 0.345,-0.919 0.572,-1.324 0.339,0.152 0.656,0.327 0.993,0.481 C 1.406,-0.419 1.235,-0.008 1.023,0.361 0.768,0.155 0.329,0.132 0,0 M 1.956,0.782 C 1.711,0.636 1.405,0.551 1.174,0.391 1.359,0.035 1.503,-0.362 1.685,-0.722 2.044,-0.539 2.36,-0.313 2.618,-0.03 2.381,0.225 2.247,0.582 1.956,0.782 M 2.799,1.174 C 2.589,1.063 2.378,0.952 2.137,0.873 2.305,0.579 2.527,0.34 2.708,0.06 3.029,0.241 3.249,0.522 3.461,0.812 3.204,0.897 3.055,1.089 2.799,1.174 m -4.725,-2.919 c 0.339,-0.089 0.77,-0.063 1.114,0 -0.203,1.031 -0.404,2.064 -0.662,3.039 -0.135,-1.029 -0.33,-1.998 -0.452,-3.039 M 2.979,1.234 C 3.197,1.141 3.342,0.974 3.581,0.903 3.757,1.188 3.993,1.413 4.123,1.745 4.154,1.747 4.146,1.784 4.092,1.775 3.74,1.576 3.33,1.434 2.979,1.234 M 0.271,1.143 C 0.449,1.05 0.591,0.922 0.662,0.722 0.624,0.61 0.513,0.57 0.542,0.391 0.692,0.252 0.842,0.417 0.993,0.451 0.766,0.986 0.568,1.551 0.271,2.016 0.192,1.742 0.303,1.464 0.271,1.143 M 2.076,0.993 C 2.263,1.097 2.478,1.173 2.648,1.294 2.144,1.562 1.639,1.99 1.143,2.167 1.487,1.808 1.705,1.324 2.076,0.993 M -6.319,0.451 c 0.221,-0.3 0.477,-0.565 0.812,-0.752 0.571,0.874 1.154,1.735 1.746,2.588 0.006,0.038 0.046,0.061 -0.031,0.06 C -4.615,1.696 -5.476,1.082 -6.319,0.451 m 3.159,-1.956 c 0.351,-0.091 0.708,-0.174 1.084,-0.24 0.087,0.543 0.176,1.117 0.27,1.715 0.137,0.869 0.396,1.745 0.091,2.437 -0.478,-1.308 -0.977,-2.594 -1.445,-3.912 m -1.203,0.452 c 0.368,-0.124 0.668,-0.315 1.083,-0.391 0.455,1.3 0.959,2.552 1.414,3.851 C -2.238,2.259 -2.655,2.365 -2.949,2.528 -3.387,1.301 -3.936,0.185 -4.363,-1.053 M 0.722,1.475 C 0.867,1.143 0.968,0.838 1.113,0.542 1.392,0.644 1.62,0.798 1.896,0.903 1.407,1.538 1.087,2.341 0.331,2.708 0.251,2.18 0.55,1.869 0.722,1.475 M -0.361,0.963 c -0.051,0.497 0.406,1.079 0.12,1.625 -0.135,0.005 -0.056,-0.205 -0.18,-0.211 -0.205,0.127 -0.394,0.268 -0.632,0.361 0.148,-0.554 0.451,-1.213 0.692,-1.775 m -0.331,-2.648 c 0.428,0.043 0.742,0.2 1.113,0.301 -0.194,0.558 -0.447,1.057 -0.632,1.625 l -0.421,0 c 0.476,0.351 0.044,0.853 -0.18,1.414 C -0.996,2.113 -1.12,2.54 -1.264,2.738 -1.587,1.124 -0.857,-0.19 -0.692,-1.685 M -3.22,2.768 c -0.805,-0.99 -1.475,-2.115 -2.197,-3.189 0.315,-0.178 0.579,-0.405 0.933,-0.542 0.459,1.227 0.985,2.386 1.445,3.611 -0.082,0.019 -0.075,0.126 -0.181,0.12 m 1.625,-0.03 c 0.027,-0.183 0.029,-0.414 0.121,-0.601 0.063,0.227 0.034,0.546 0.18,0.692 -0.137,0.007 -0.21,-0.051 -0.301,-0.091 m -1.354,0.061 c -0.014,0.094 0.043,0.117 0.06,0.18 C -3.01,2.965 -3.088,2.837 -2.949,2.799 M -7.072,1.475 C -6.901,1.114 -6.68,0.803 -6.41,0.542 -5.614,1.133 -4.761,1.783 -3.972,2.377 -3.723,2.565 -3.289,2.722 -3.34,3.13 -4.569,2.683 -5.836,2.014 -7.072,1.475 M -3.19,3.13 c 0,0.045 0.112,0.123 0.03,0.15 C -3.21,3.249 -3.31,3.163 -3.19,3.13 m 0.121,-0.121 c 0.161,0.09 0.273,0.388 0.511,0.301 -0.122,-0.178 -0.22,-0.381 -0.301,-0.602 0.123,-0.088 0.237,-0.184 0.422,-0.21 0.15,0.096 0.363,0.29 0.571,0.15 C -1.87,2.744 -1.934,2.78 -1.926,2.889 -2.32,2.896 -2.496,3.121 -2.588,3.43 -2.876,3.483 -3.044,3.195 -3.069,3.009 M 2.829,1.354 C 3.163,1.582 3.61,1.696 3.912,1.956 2.662,2.451 1.448,2.983 0.211,3.491 0.723,2.418 1.853,1.963 2.829,1.354 M 0.03,3.22 C 0.206,3.021 0.382,2.792 0.572,2.768 0.32,3.008 0.189,3.368 -0.09,3.581 -0.237,3.5 -0.082,3.347 0.03,3.22 m -3.31,0.12 c 0.085,0.106 0.295,0.086 0.361,0.211 C -3.081,3.65 -3.127,3.864 -3.25,4.002 -3.341,3.869 -3.396,3.494 -3.28,3.34 M 0.632,4.484 C 0.54,4.517 0.434,4.384 0.361,4.423 0.337,4.107 0.175,3.928 0.06,3.701 1.417,3.142 2.748,2.557 4.123,2.016 4.501,2.19 4.606,2.636 4.724,3.069 3.457,3.532 1.882,4.027 0.632,4.484 M -7.613,2.618 C -7.462,2.278 -7.337,1.911 -7.162,1.595 -5.887,2.136 -4.685,2.75 -3.4,3.28 -3.455,3.786 -3.311,4.253 -3.25,4.544 -4.661,3.858 -6.203,3.304 -7.613,2.618 M -7.884,3.852 C -7.836,3.468 -7.752,3.121 -7.643,2.799 -6.23,3.381 -4.814,3.962 -3.461,4.604 -5.003,4.54 -6.396,4.07 -7.884,3.852 M 0.933,4.514 C 2.237,4.102 3.458,3.609 4.785,3.22 4.816,3.56 4.899,3.847 4.875,4.243 3.574,4.398 2.261,4.896 0.933,4.514 M 2.618,4.755 C 3.375,4.639 4.097,4.488 4.875,4.393 4.891,4.66 4.858,4.878 4.845,5.116 4.082,5.016 3.285,4.95 2.618,4.755 M -7.914,3.972 c 1.18,0.274 2.485,0.423 3.611,0.752 -1.231,0.104 -2.403,0.266 -3.611,0.392 -0.027,-0.397 -0.036,-0.751 0,-1.144 M 6.289,3.069 c 0.284,0.248 0.749,0.314 0.933,0.662 -0.026,0.115 -0.081,0.2 -0.06,0.362 0.086,0.104 0.23,0.151 0.271,0.3 C 7.341,4.432 7.292,4.514 7.132,4.484 6.945,4.808 6.855,5.176 6.56,5.447 l -0.06,0 C 6.478,4.626 6.418,3.683 6.289,3.069 M 0.12,5.838 C 0.204,5.66 0.301,5.497 0.361,5.296 1.223,5.357 1.867,5.636 2.437,5.988 1.642,5.961 0.864,5.916 0.12,5.838 M 1.896,5.537 C 2.71,5.692 3.681,5.763 4.484,5.928 4.568,5.946 4.767,5.952 4.785,6.079 3.716,6.206 2.46,6.015 1.896,5.537 M -7.884,5.236 C -6.58,5.136 -5.259,4.892 -4.002,4.845 -5.265,5.307 -6.428,5.869 -7.704,6.319 -7.758,5.953 -7.873,5.646 -7.884,5.236 M 6.289,6.379 C 6.299,6.259 6.31,6.14 6.379,6.079 6.475,6.163 6.588,6.232 6.711,6.289 6.704,6.488 6.43,6.387 6.289,6.379 M -2.919,5.988 c 0.009,0.062 0.082,0.059 0.09,0.121 -0.201,0.039 -0.36,0.281 -0.511,0.27 0.157,-0.113 0.178,-0.363 0.421,-0.391 M 2.889,6.169 C 3.17,6.359 3.529,6.472 3.822,6.65 2.723,6.445 1.602,6.262 0.542,6.018 1.33,6.063 2.118,6.107 2.889,6.169 m -3.07,0.12 C -0.18,6.199 -0.102,6.187 -0.09,6.109 0.007,6.102 0.037,6.162 0.15,6.139 0.221,6.332 0.511,6.616 0.451,6.741 0.259,6.572 0.049,6.421 -0.181,6.289 M 4.514,6.801 C 4.072,6.621 3.652,6.419 3.25,6.199 3.775,6.206 4.272,6.24 4.755,6.289 4.725,6.511 4.654,6.69 4.514,6.801 m 1.685,0.15 C 6.189,6.841 6.309,6.86 6.379,6.831 6.441,6.889 6.426,7.025 6.47,7.102 6.351,7.08 6.235,7.055 6.199,6.951 m -8.035,0.512 c -0.004,-0.095 0.078,-0.104 0.151,-0.121 -0.039,0.075 0.088,0.125 0,0.151 C -1.68,7.428 -1.792,7.479 -1.836,7.463 M -0.602,6.53 C -0.5,6.492 -0.428,6.423 -0.331,6.379 -0.189,6.819 0.094,7.279 0.181,7.673 -0.062,7.274 -0.362,6.932 -0.602,6.53 M 20.974,4.755 C 21.263,4.67 21.599,4.48 21.877,4.484 21.969,5.576 22.222,6.666 22.268,7.704 21.865,6.692 21.401,5.742 20.974,4.755 M -7.072,7.764 C -7.33,7.4 -7.492,6.94 -7.643,6.47 -6.662,6.062 -5.607,5.631 -4.574,5.206 -4.159,5.035 -3.692,4.767 -3.31,4.845 c -0.077,0.42 0.061,0.746 0.211,1.023 -1.267,0.689 -2.628,1.284 -3.973,1.896 M 4.062,7.854 C 3.063,7.309 1.993,6.834 0.993,6.289 2.138,6.529 3.449,6.602 4.484,6.951 4.482,7.1 4.433,7.201 4.363,7.282 4.241,7.219 4.034,7.117 3.852,7.042 3.691,6.975 3.429,6.801 3.4,7.042 3.688,7.186 3.974,7.331 4.303,7.433 4.262,7.613 4.185,7.756 4.062,7.854 M 6.139,7.192 C 6.254,7.207 6.364,7.227 6.41,7.312 6.281,7.675 6.118,8.004 5.748,8.125 5.861,7.797 6.024,7.519 6.139,7.192 M 25.578,4.664 c 0.302,0.19 0.662,0.321 0.903,0.572 -0.805,0.93 -1.437,2.034 -2.227,2.979 0.442,-1.183 0.873,-2.377 1.324,-3.551 m -27.052,3.1 c 0.046,-0.044 0.14,-0.04 0.18,-0.091 -0.1,0.001 -0.103,-0.097 -0.211,-0.09 0.065,-0.236 0.089,-0.513 0.181,-0.722 0.155,0.477 0.36,0.904 0.512,1.384 0.031,0.002 0.023,0.039 -0.031,0.03 C -1.031,8.082 -1.433,8.104 -1.474,7.764 M 24.374,4.333 c 0.383,0.049 0.708,0.156 1.024,0.271 -0.449,1.257 -0.907,2.504 -1.385,3.731 0.11,-1.344 0.25,-2.658 0.361,-4.002 m -2.347,0.09 C 22.342,4.347 22.66,4.273 23.05,4.273 22.899,5.636 22.754,7.006 22.569,8.335 22.387,7.033 22.208,5.727 22.027,4.423 m 0.271,4.093 C 21.486,7.473 20.705,6.398 19.921,5.326 20.205,5.149 20.489,4.971 20.824,4.845 21.356,6.058 21.927,7.232 22.419,8.486 22.362,8.479 22.352,8.52 22.298,8.516 M -4.393,7.102 C -5.107,7.58 -5.812,8.114 -6.53,8.546 -6.532,8.564 -6.534,8.582 -6.56,8.576 -6.715,8.35 -6.897,8.151 -7.011,7.884 -5.773,7.377 -4.559,6.685 -3.37,6.229 -3.598,6.668 -3.986,6.829 -4.393,7.102 M 0.933,8.666 C 0.43,8.106 0.15,7.163 -0.12,6.47 0.157,6.674 0.432,6.88 0.722,7.072 0.997,7.619 1.363,8.076 1.625,8.636 1.37,8.622 1.197,8.69 0.933,8.666 m 21.816,-0.21 c 0.148,-1.418 0.333,-2.797 0.482,-4.213 0.351,-0.01 0.665,0.017 0.963,0.06 C 24.07,5.794 23.955,7.294 23.773,8.727 23.528,8.54 23.179,8.457 22.749,8.456 M -0.602,8.396 C -0.755,7.927 -1.019,7.408 -1.113,6.981 -0.87,7.29 -0.525,7.497 -0.361,7.884 -0.383,7.983 -0.501,7.985 -0.512,8.095 -0.44,8.077 -0.374,8.051 -0.271,8.065 -0.246,8.358 0.245,8.414 0.03,8.757 -0.197,8.653 -0.368,8.493 -0.602,8.396 M 2.106,7.914 C 1.415,7.413 0.595,6.977 0.361,6.169 1.618,6.748 2.842,7.359 4.032,8.004 3.834,8.277 3.67,8.585 3.461,8.847 3.025,8.574 2.573,8.252 2.106,7.914 M 19.018,6.079 C 19.201,5.8 19.493,5.63 19.77,5.447 20.54,6.493 21.346,7.502 22.087,8.576 21.743,8.683 21.528,8.919 21.245,9.088 20.518,8.07 19.772,7.07 19.018,6.079 M 1.023,7.282 C 1.773,7.877 2.622,8.372 3.34,8.997 3.279,9.006 3.281,9.079 3.22,9.088 3.047,8.636 2.365,8.611 1.806,8.636 1.567,8.183 1.196,7.702 1.023,7.282 m 21.125,1.655 c 0.063,-0.026 0.052,-0.128 0.15,-0.12 0.061,0.11 0.203,0.298 0.151,0.421 C 22.361,9.126 22.198,9.087 22.148,8.937 m -1.956,0.06 C 20.29,9.081 20.44,9.233 20.402,9.268 19.5,8.847 18.526,8.496 17.604,8.095 17.509,8.06 17.531,8.142 17.483,8.155 c 0.132,-0.359 0.334,-0.65 0.512,-0.963 0.717,0.561 1.516,1.226 2.197,1.805 m 3.25,0.271 C 23.382,9.177 23.272,9.01 23.351,8.877 23.734,8.859 23.697,9.276 23.442,9.268 M 21.094,9.359 C 20.939,9.374 20.899,9.273 20.733,9.298 19.894,8.503 18.973,7.789 18.115,7.011 c 0.263,-0.278 0.47,-0.613 0.783,-0.842 0.553,0.785 1.15,1.598 1.715,2.347 0.185,0.245 0.44,0.476 0.512,0.782 -0.024,0.007 -0.035,0.026 -0.031,0.061 M -5.717,9.449 C -5.981,9.201 -6.254,8.962 -6.47,8.666 -5.61,8.122 -4.787,7.541 -3.942,6.981 -4.513,7.824 -5.088,8.664 -5.717,9.449 M 22.81,8.817 c 0,0.03 0.024,0.036 0.03,0.06 0.116,0.016 0.147,-0.054 0.271,-0.03 -0.013,0.187 0.318,0.594 0.03,0.752 C 23.029,9.36 22.842,9.036 22.81,8.817 M 19.77,9.569 C 18.887,9.464 17.976,9.391 17.122,9.298 17.21,8.895 17.309,8.502 17.483,8.185 c 0.83,0.41 1.857,0.833 2.709,1.174 0.116,0.046 0.331,0.045 0.361,0.21 -0.211,0.183 -0.522,0.031 -0.783,0 m 8.817,-1.354 c 0.114,0.338 0.208,0.696 0.271,1.083 -1.003,0.111 -2.04,0.347 -3.009,0.392 0.933,-0.471 1.832,-0.977 2.738,-1.475 m -5.025,1.324 c -0.027,0.104 -0.008,0.253 -0.15,0.241 0.003,-0.127 0.089,-0.172 0.15,-0.241 m 4.604,-2.347 c 0.112,0.3 0.281,0.542 0.361,0.873 C 27.417,8.63 26.373,9.261 25.247,9.81 25.224,9.803 25.188,9.809 25.187,9.78 26.213,8.95 27.13,8.011 28.166,7.192 m -4.243,2.227 c 0.291,-0.027 0.229,0.42 0.03,0.451 -0.101,-0.05 -0.07,-0.357 -0.03,-0.451 m 3.521,-3.22 0,-0.06 C 27.405,6.137 27.402,6.1 27.354,6.109 26.22,6.991 25.119,8.067 24.013,8.877 24.882,7.69 25.738,6.489 26.601,5.296 27.182,5.759 27.657,6.327 28.046,6.981 27.249,7.78 26.386,8.52 25.548,9.238 25.267,9.479 25.027,9.844 24.615,9.9 24.507,9.557 24.332,9.281 24.164,8.997 25.279,8.087 26.387,7.168 27.444,6.199 M 22.749,9.69 C 22.873,9.654 22.87,9.899 22.78,9.9 22.797,9.803 22.759,9.76 22.749,9.69 m -0.782,0.09 c -0.168,0.335 -0.333,-0.14 -0.12,-0.271 -0.03,-0.121 -0.161,-0.14 -0.151,-0.301 0.232,-0.286 0.498,0.098 0.753,0.151 0.054,0.355 -0.141,0.461 -0.482,0.421 m 2.227,0.03 c 0.098,-0.008 0.145,0.036 0.15,0.12 -0.035,0.035 -0.106,0.034 -0.18,0.03 -0.01,-0.069 0.005,-0.115 0.03,-0.15 M 22.419,9.78 c 0.03,0.099 0.121,0.102 0.18,0.03 -0.01,0.07 0.005,0.115 0.03,0.15 -0.118,0.007 -0.274,-0.104 -0.21,-0.18 m 0.631,0.06 c 0.105,0.024 0.116,-0.045 0.211,-0.03 0.028,0.072 0.121,0.08 0.09,0.211 C 23.184,10.028 23.055,9.996 23.05,9.84 m 0.662,-0.09 c -0.07,0.06 0.036,0.297 -0.09,0.301 -0.08,-0.073 0.082,-0.318 0.09,-0.301 M -4.694,10.171 C -4.996,9.981 -5.294,9.788 -5.567,9.569 -5.29,9.078 -4.922,8.64 -4.574,8.155 -4.05,7.425 -3.658,6.632 -2.859,6.259 -3.463,7.571 -4.048,8.902 -4.694,10.171 m 28.587,0.06 c 0.114,0.067 0.392,-0.031 0.451,0.091 -0.122,0.114 -0.6,0.265 -0.451,-0.091 m 1.113,-0.09 c 1.1,-0.425 2.643,-0.406 3.882,-0.692 0.026,0.345 0.081,0.662 0.06,1.053 -1.33,-0.104 -2.665,-0.203 -3.942,-0.361 m -7.974,0.301 c -0.016,-0.367 0.033,-0.67 0.06,-0.993 1.069,0.145 2.194,0.234 3.25,0.391 -0.152,0.059 -0.229,0.192 -0.331,0.301 0.083,-0.005 0.103,0.046 0.06,0.09 -0.131,0.12 -0.258,0.244 -0.301,0.452 -0.919,-0.074 -1.842,-0.144 -2.738,-0.241 M -3.521,10.683 C -3.909,10.59 -4.194,10.393 -4.544,10.261 -4.02,9.02 -3.409,7.866 -2.889,6.62 c 0.276,0.176 0.502,0.401 0.692,0.662 -0.461,1.114 -0.881,2.269 -1.324,3.401 m 23.472,0.03 c 0.046,-0.104 0.053,-0.248 0.181,-0.271 0.073,0.086 0.107,0.214 0.18,0.301 -0.11,-0.021 -0.219,-0.042 -0.361,-0.03 m 4.454,-0.181 c -0.035,0.106 -0.077,0.204 -0.151,0.271 -0.128,-0.103 0.036,-0.234 0.151,-0.271 M -0.481,8.666 c 0.428,0.143 0.649,0.495 0.993,0.723 0.031,0.48 0.19,0.832 0.15,1.384 -0.136,0.004 -0.207,0.074 -0.331,0.09 C 0.092,10.099 -0.234,9.422 -0.481,8.666 m 20.883,1.746 c 0.043,-0.118 0.189,-0.132 0.361,-0.121 0.092,0.149 0.138,0.344 0.151,0.572 -0.29,0.085 -0.429,-0.23 -0.512,-0.451 m 3.491,0.361 c 0.09,0.041 0.201,0.06 0.241,0.15 -0.065,0.026 -0.103,0.078 -0.211,0.061 -0.01,-0.071 -0.047,-0.113 -0.03,-0.211 m -27.263,0 c 0.392,-1.142 0.834,-2.235 1.294,-3.31 0.028,0.159 0.322,0.224 0.361,0.421 0.031,0.158 -0.126,0.529 -0.181,0.782 -0.174,0.803 -0.325,1.757 -0.541,2.348 -0.34,-0.052 -0.608,-0.175 -0.933,-0.241 m 1.986,-2.678 c 0.218,0.153 0.441,0.301 0.692,0.421 0.291,0.812 0.631,1.576 0.903,2.407 -0.353,0.079 -0.687,0.177 -1.084,0.211 -0.118,-1.046 -0.411,-2.077 -0.511,-3.039 m -0.873,2.979 c 0.215,-1.049 0.424,-2.104 0.692,-3.1 0.197,1.067 0.38,2.149 0.602,3.19 -0.476,0.015 -0.919,-0.003 -1.294,-0.09 m 26.421,0.03 c 0.079,-0.009 0.129,0.011 0.12,0.09 -0.079,0.009 -0.129,-0.011 -0.12,-0.09 m -4.273,-0.241 c 0.164,0.046 0.394,0.028 0.571,0.06 0.035,0.333 -0.315,0.522 -0.662,0.572 0.023,-0.218 0.037,-0.445 0.091,-0.632 m 3.25,0.482 c -0.015,0.094 0.092,0.068 0.06,0.18 -0.058,0.013 -0.055,0.086 -0.151,0.06 -0.062,-0.078 -0.033,-0.256 0.091,-0.24 m 2.377,0 c -0.311,-0.036 -0.673,-0.034 -0.903,-0.241 0.066,-0.225 0.039,-0.543 0.09,-0.782 1.437,0.097 2.814,0.255 4.243,0.361 -0.045,0.356 -0.004,0.798 -0.18,1.023 -1.03,-0.137 -2.185,-0.239 -3.25,-0.361 m -1.083,0.18 c 0.061,-0.019 0.019,-0.14 0.09,-0.15 0.259,0.031 0.492,0.25 0.542,0.391 -0.184,-0.107 -0.449,-0.134 -0.632,-0.241 m -2.709,0 c 0.044,0.092 0.008,0.157 -0.03,0.241 l -0.09,0 c -0.058,-0.08 -0.058,-0.303 0.12,-0.241 m 1.625,-0.15 c 0.153,0.027 0.256,0.105 0.422,0.12 -0.01,0.111 0.025,0.267 -0.031,0.331 -0.221,-0.059 -0.244,-0.317 -0.391,-0.451 m -6.319,-0.753 c 0.889,0.084 1.796,0.151 2.678,0.241 -0.037,0.204 -0.055,0.426 -0.06,0.662 -0.847,0.096 -1.714,0.172 -2.528,0.301 -0.021,-0.41 -0.114,-0.748 -0.09,-1.204 m 6.139,1.024 c 0.18,-0.109 0.248,0.124 0.301,0.24 -0.139,-0.042 -0.259,-0.102 -0.301,-0.24 m -1.655,0.24 c 0.061,0.084 0.024,0.27 -0.121,0.241 -0.077,-0.099 0.009,-0.236 0.121,-0.241 m 1.324,0.331 c -0.018,-0.097 0.02,-0.14 0.03,-0.21 0.194,-0.024 0.184,0.157 0.241,0.271 -0.127,-0.052 -0.145,-0.033 -0.271,-0.061 m -0.151,-0.602 c 0.369,0.045 0.034,0.529 -0.12,0.602 -0.075,-0.162 -0.141,0.037 -0.211,0.061 0.081,-0.251 0.351,-0.312 0.331,-0.663 M 19.8,11.766 c 0.204,-0.128 0.618,-0.205 0.903,-0.151 -0.244,0.338 -0.441,0.723 -0.812,0.933 -0.055,-0.235 -0.058,-0.524 -0.091,-0.782 m 0.241,0.903 c 0.01,0.069 -0.005,0.115 -0.03,0.15 l -0.09,0 c -0.008,-0.098 0.036,-0.145 0.12,-0.15 m 6.982,-0.301 c -0.8,-0.265 -1.642,-0.38 -1.956,-0.933 1.204,0.199 2.553,0.255 3.731,0.481 -0.129,0.302 -0.161,0.702 -0.361,0.933 -0.436,-0.136 -0.917,-0.317 -1.414,-0.481 m -9.841,-0.391 c 0.773,-0.071 1.624,-0.222 2.348,-0.241 -0.715,0.378 -1.406,0.781 -2.107,1.173 -0.085,-0.306 -0.204,-0.578 -0.241,-0.932 m 6.23,0.481 c 0.146,-0.034 0.225,-0.136 0.391,-0.15 10e-4,0.36 0.088,0.794 0.03,1.113 -0.105,-0.357 -0.301,-0.622 -0.421,-0.963 m 4.453,1.444 c -0.636,-0.567 -1.303,-1.103 -1.926,-1.685 0.822,0.252 1.608,0.539 2.438,0.783 -0.123,0.348 -0.281,0.662 -0.512,0.902 m -9.9,0.151 c -0.171,-0.321 -0.349,-0.634 -0.482,-0.993 0.741,-0.383 1.445,-0.802 2.167,-1.204 l 0,0.873 c -0.554,0.449 -1.081,0.925 -1.685,1.324 m 2.076,0 c 0.175,-0.348 0.417,-0.654 0.632,-0.993 0.201,-0.316 0.325,-0.764 0.692,-0.933 -0.339,0.744 -0.783,1.383 -1.233,2.016 -0.007,0.024 -0.026,0.035 -0.061,0.03 -0.009,-0.04 -0.043,-0.057 -0.03,-0.12 m 4.514,-2.287 c 0.701,0.126 1.045,0.418 1.474,0.782 0.615,0.522 1.214,1.023 1.776,1.535 -0.231,0.26 -0.396,0.587 -0.662,0.812 -0.849,-1.056 -1.736,-2.075 -2.588,-3.129 m -6.47,2.437 c 0.405,-0.312 0.843,-0.659 1.234,-0.963 0.13,-0.101 0.239,-0.284 0.421,-0.27 -0.233,0.65 -0.743,1.281 -1.113,1.895 -0.002,0.019 -0.005,0.036 -0.03,0.03 -0.162,-0.239 -0.377,-0.426 -0.512,-0.692 m 6.44,-1.083 c -0.157,-0.222 -0.552,-0.714 -0.542,-0.903 0.011,-0.203 0.268,-0.323 0.361,-0.451 0.671,0.858 1.611,1.947 2.378,2.859 0.055,0.066 0.333,0.382 0.331,0.421 -0.014,0.183 -0.733,0.548 -0.753,0.662 -0.444,-0.753 -1.189,-1.756 -1.775,-2.588 m -0.542,-0.451 c -0.001,-0.032 0.014,-0.077 0.03,-0.03 0.742,1.044 1.435,2.136 2.197,3.159 -0.324,0.198 -0.63,0.413 -0.993,0.572 -0.401,-1.242 -1.292,-2.023 -1.234,-3.701 m -2.648,1.173 c -0.155,0.709 -0.501,1.745 -0.722,2.588 -0.252,-0.049 -0.394,-0.207 -0.602,-0.301 0.387,-0.816 0.877,-1.53 1.324,-2.287 m -0.572,2.678 c 0.25,-1.024 0.686,-2.021 0.813,-3.069 0.111,-0.142 0.215,-0.327 0.331,-0.511 0.097,-0.155 0.187,-0.459 0.421,-0.392 -0.153,1.352 -0.437,2.833 -0.662,4.213 -0.329,-0.052 -0.609,-0.153 -0.903,-0.241 m 3.341,-2.166 c 0.329,0.694 0.636,1.41 0.993,2.076 -0.591,0.232 -1.319,0.5 -2.083,0.458 0.156,-1.349 0.139,-2.883 0.307,-4.219 0.081,0.413 0.468,0.773 0.572,1.264 0.051,0.238 0.018,0.539 0.03,0.812 0.021,0.459 0.071,0.926 0.09,1.324 0.01,0.202 -0.086,0.507 0.151,0.632 0.081,-0.745 -0.093,-1.651 -0.06,-2.347 m -1.234,2.528 c -0.07,0.032 -0.905,-0.076 -1.023,-0.091 0.23,-1.404 0.446,-2.824 0.692,-4.213 0.227,0.007 0.433,-0.008 0.602,-0.06 -0.099,1.427 -0.251,2.959 -0.271,4.364 m -5.266,0.962 c 0.245,-0.362 0.423,-0.95 0.812,-1.083 -0.046,0.666 -0.472,0.952 -0.722,1.415 -0.154,0.016 -0.243,0.097 -0.361,0.15 0.01,-0.233 0.149,-0.302 0.271,-0.482 m -7.583,-7.402 c 0.973,2.357 2.181,4.964 3.219,7.222 0.154,0.334 0.375,0.653 0.392,1.023 -0.042,-0.001 -0.066,0.014 -0.091,0.03 -1.988,-1.141 -3.97,-2.289 -5.898,-3.49 1.025,-1.897 -0.028,-5.378 0.843,-7.373 0.089,0.062 0.27,0.031 0.361,0.09 l 0.602,1.294 c 0.175,0.417 0.352,0.832 0.572,1.204 m 7.884,8.847 c 0.244,-0.211 0.284,-0.704 0.451,-0.903 -0.138,0.956 -0.477,1.971 -0.843,2.799 -0.26,-0.416 -0.791,-0.709 -1.414,-0.662 0.269,-0.464 0.693,-0.772 0.813,-1.385 0.099,0.022 0.101,0.14 0.21,0.151 0.432,0.124 0.783,0 0.783,0 m -1.956,1.595 c 0.023,-0.088 0.047,-0.173 0.12,-0.211 0.285,0.257 0.731,0.513 0.782,0.903 -0.277,-0.254 -0.524,-0.539 -0.902,-0.692 m 0.331,-0.211 c 0.462,-0.079 1.194,0.434 1.233,0.752 0.04,0.317 -0.269,0.593 -0.361,0.903 0.024,-0.866 -0.394,-1.291 -0.872,-1.655 m 1.294,0.933 c 0.294,0.804 -0.017,1.727 -0.662,1.956 0.204,-0.668 0.407,-1.338 0.662,-1.956 m -0.542,0.722 c 0.029,0.599 -0.347,0.925 -0.752,1.234 l -0.091,0 c -0.169,-0.151 -0.362,-0.279 -0.601,-0.361 -0.092,-0.022 -0.037,-0.053 -0.211,-0.118 -0.285,-0.236 -0.517,-0.247 -0.752,-0.484 0.269,-0.222 0.418,-0.563 0.6,-0.834 0.265,-0.347 0.473,-0.55 0.694,-0.821 0.42,0.34 1.078,0.664 1.113,1.384 M 16.4,23.682 c 0.145,-0.119 0.364,-0.474 0.482,-0.421 -0.002,0.169 -0.193,0.148 -0.151,0.361 -0.213,0.028 -0.406,0.235 -0.632,0.151 0.094,-0.037 0.149,-0.112 0.301,-0.091 M 4.484,25.097 C 4.25,24.738 4.014,24.547 3.555,24.118 L 2.979,23.803 C 2.592,23.697 2.011,23.528 1.926,23.02 l 0.933,-0.15 0.722,-0.09 c 0.968,-0.168 1.447,-0.388 1.968,-0.515 0.965,-0.441 2.658,-0.764 2.937,-2.133 0.016,-0.078 0.029,-0.201 0.03,-0.271 0.009,-1.104 -0.577,-2.291 -0.692,-3.31 0.002,0.018 0.004,0.035 0.03,0.03 1.145,0.67 2.165,1.421 3.25,2.166 0.787,0.542 1.61,1.207 2.467,1.595 0.469,0.212 1.097,0.292 1.234,0.783 -0.056,0.124 -0.117,0.176 -0.18,0.293 -0.2,0.341 -0.411,0.596 -0.542,0.91 -0.071,0.135 -0.322,-0.047 -0.451,0.06 0.085,0.115 0.194,0.207 0.21,0.392 -0.165,0.309 -0.586,0.257 -0.692,-0.061 -0.274,0.168 -0.527,0.356 -0.903,0.422 -0.048,0.285 -0.313,0.563 -0.571,0.722 -0.134,0.083 -0.391,0.233 -0.542,0.271 C 10.867,24.2 10.563,24.08 10.472,24.405 8.408,24.638 6.454,24.981 5.146,25.969 5.041,25.813 4.631,25.312 4.484,25.097 m 10.712,-0.692 c 0.059,0.072 0.169,0.091 0.181,0.21 -0.23,0.131 -0.29,0.432 -0.391,0.692 -0.044,0.017 -0.156,-0.035 -0.151,0.03 -0.113,0.003 -0.07,-0.15 -0.15,-0.18 -0.111,0.2 -0.439,0.183 -0.632,0.301 0.113,0.102 0.059,0.172 0.03,0.331 -0.275,0.065 -0.574,0.108 -0.933,0.09 -0.191,0.178 -0.59,0.103 -0.963,0.12 -1.958,0.092 -2.965,0.393 -4.122,1.204 -0.438,0.307 -0.708,0.826 -1.174,0.572 -0.04,-0.552 0.261,-0.67 0.602,-0.873 1.05,-0.624 2.27,-1.268 3.4,-1.685 0.128,0.053 0.227,0.134 0.361,0.181 0.177,-0.064 0.356,-0.126 0.361,-0.362 0.624,-0.099 1.335,-0.11 1.926,-0.24 0.063,-0.138 0.152,-0.249 0.211,-0.391 -0.023,-0.088 -0.143,-0.078 -0.12,-0.211 0.251,-0.03 0.382,-0.18 0.451,-0.391 0.296,0.179 0.854,0.309 1.113,0.602 M -4.995,20.372 c -0.376,1.3 -0.29,1.842 -0.391,3.25 0,0 -0.272,1.835 0.782,3.13 0.198,0.244 0.638,0.653 0.542,0.902 -0.108,0.144 -0.429,0.074 -0.662,0.091 -0.493,0.295 -0.988,1.176 -0.813,2.016 0,0 1.858,7.66 7.162,5.567 0.221,-0.193 1.771,-1.004 2.347,1.113 0.022,0.12 0.101,0.151 0.09,0.271 -0.02,0.23 -0.347,0.741 -0.3,1.083 0.061,0.46 0.686,0.519 0.662,1.084 0.183,0.173 0.555,0.283 0.812,0.451 0.122,0.08 0.17,0.215 0.301,0.241 0.153,0.03 0.45,-0.075 0.722,-0.09 0.292,-0.017 0.492,0.024 0.632,-0.151 2.045,-0.443 2.773,-2.202 3.19,-4.273 -0.422,-0.269 -1.004,0.374 -1.324,0 0,0 -0.079,-1.052 -0.602,-1.565 C 7.846,33.299 7.93,32.921 7.764,32.59 7.674,32.41 7.261,32.233 7.222,32.018 7.181,31.79 7.467,31.523 7.613,31.296 7.915,30.829 8.188,30.441 8.486,30.002 8.742,29.625 8.899,29.354 9.268,29.069 9.417,28.954 9.517,28.813 9.66,28.768 9.872,28.701 10.074,28.621 10.291,28.587 10.844,28.502 13,27.083 13,27.083 c 0.222,-0.076 0.458,-0.068 0.692,-0.151 0.248,-0.087 0.665,-0.413 1.083,-0.21 0.153,-0.038 0.279,-0.196 0.482,-0.091 0.14,-0.04 0.148,-0.212 0.301,-0.24 0.288,0.213 0.972,0.03 1.293,0.21 0.37,-0.19 0.566,-0.369 0.632,-0.842 0.078,-0.555 -0.43,-1.069 0.03,-1.324 0.304,0.105 0.703,-0.087 0.873,-0.301 -0.149,-0.087 -0.361,0.096 -0.561,0.143 -0.23,0.009 -0.374,-0.016 -0.522,-0.173 -0.146,0.014 -0.124,0.197 -0.331,0.15 -0.196,-0.1 0.007,-0.382 0,-0.572 0.734,-0.25 1.166,-1.433 0.692,-2.257 0.32,-0.894 0.713,-1.714 0.873,-2.768 l 0.06,-0.181 c 0.034,-0.186 0.089,-0.351 0.12,-0.541 0.31,0.02 0.49,-0.166 0.602,-0.421 3.064,1.85 7,0.56 8.937,-1.505 1.268,-1.352 2.053,-3.13 2.167,-5.296 C 30.489,9.459 30.245,8.057 29.821,7.132 29.657,6.774 29.369,6.419 29.159,6.048 28.527,4.933 27.677,4.171 26.511,3.551 25.63,3.082 24.622,2.679 23.261,2.738 21.198,2.829 19.545,3.384 18.386,4.423 17.855,4.9 17.453,5.389 17.002,5.898 16.659,6.525 16.235,7.121 15.979,7.884 15.725,8.639 15.54,9.47 15.497,10.412 c -0.12,2.64 0.866,4.707 2.287,5.868 -0.318,0.511 -0.503,1.007 -0.902,1.534 -0.172,0.227 -0.335,0.413 -0.512,0.723 -0.086,0.151 -0.227,0.269 -0.301,0.391 -0.12,0.197 -0.111,0.375 -0.271,0.391 -0.356,0.035 -0.781,-1.023 -0.933,-1.324 C 13.591,15.459 12.451,12.942 11.194,10.442 10.69,9.439 10.135,8.409 9.78,7.433 9.781,7.307 9.897,7.297 9.991,7.342 9.945,7.146 10.049,7.042 10.201,7.132 10.178,7.065 10.138,7.014 10.141,6.921 10.168,6.807 10.262,6.899 10.352,6.891 10.237,6.843 10.287,6.503 10.442,6.65 10.495,6.615 10.371,6.502 10.352,6.44 10.353,6.34 10.437,6.325 10.532,6.319 10.439,6.262 10.382,6.05 10.592,6.079 10.507,5.997 10.353,5.809 10.532,5.717 10.292,5.616 10.484,5.416 10.322,5.296 10.59,4.657 11.766,4.785 11.766,4.785 c 0.69,0.018 1.398,0.128 2.106,0.21 C 14.01,4.838 14.241,4.638 14.233,4.423 14.217,3.957 13.312,3.83 13.15,3.43 13.034,3.426 13.011,3.329 12.879,3.34 12.896,3.023 12.699,2.919 12.669,2.648 12.262,2.473 11.742,2.578 11.435,2.287 11.323,2.255 11.387,2.4 11.284,2.377 11.048,2.208 10.888,2.292 10.592,2.227 10.567,2.353 10.674,2.346 10.713,2.407 10.47,2.471 10.66,2.632 10.622,2.768 10.453,2.81 10.264,2.63 10.111,2.558 10.111,2.407 10.088,2.28 10.051,2.167 9.185,2.009 8.644,1.368 7.553,1.535 7.532,1.666 7.604,1.704 7.583,1.836 7.281,2.189 7.319,2.746 7.252,3.37 6.824,3.276 6.583,2.997 6.199,2.859 5.217,-0.353 3.08,-2.934 -0.843,-3.13 c -2.703,-0.135 -4.98,0.839 -6.409,2.137 -1.38,1.253 -2.46,3.238 -2.347,5.808 0.091,2.087 0.995,4.054 2.287,5.416 1.42,1.498 3.396,2.566 6.319,2.438 1.021,-0.045 1.789,-0.206 2.648,-0.572 0.09,0.063 -0.04,0.158 0,0.271 0.17,0.288 0.359,0.572 0.542,0.903 0.148,0.268 0.443,0.668 0.451,0.963 0.009,0.325 -0.365,0.993 -0.542,1.143 -0.202,0.171 -0.521,0.211 -0.752,0.391 -0.277,0.216 -0.446,0.553 -0.692,0.783 -1.596,1.488 -4.418,1.883 -5.657,3.821"
           inkscape:connector-curvature="0" />
      </g>
    </g>
  </g>
  <g
     id="mountain_climbing"
     ng-click="editCtrl.pushToArray(route, 'activities', 'mountain_climbing', $event)"
     class="activity-icon"
     transform="matrix(1,0,0,-1,-195.84113,167.82213)">
    <title>mountain_climbing</title>
    <g
       id="g5143"
       transform="translate(-6.4,32.137826)">
      <g
         transform="translate(269.82013,103.34212)"
         id="g194" />
      <g
         transform="translate(264.01183,103.62892)"
         id="g198">
        <path
           id="path200"
           style="fill:#ffaa45;fill-opacity:1;fill-rule:nonzero;stroke:none"
           d="m 0,0 c 0,-16.141 -13.085,-29.225 -29.225,-29.225 -16.141,0 -29.226,13.084 -29.226,29.225 0,16.141 13.085,29.225 29.226,29.225 C -13.085,29.225 0,16.141 0,0"
           inkscape:connector-curvature="0"
           class="activity-background"
           ng-class="{'activity-selected' : route.activities.indexOf('mountain_climbing') &gt; -1}" />
      </g>
      <g
         transform="translate(233.67663,98.48442)"
         id="g202" />
      <g
         transform="translate(234.23453,104.14102)"
         id="g206" />
      <g
         transform="translate(-54.576271,-166.00678)"
         id="g210">
        <g
           clip-path="url(#clipPath214)"
           id="g212">
          <g
             transform="translate(295.1695,255.5815)"
             id="g218">
            <path
               id="path220"
               style="fill:#ffffff;fill-opacity:1;fill-rule:nonzero;stroke:none"
               d="m 0,0 c -0.619,0.707 -1.239,6.454 -1.239,6.454 0,0.993 -0.544,1.54 -1.163,1.842 0.644,0.444 1.334,0.946 1.667,1.191 0.423,-0.714 0.38,-1.72 0.38,-2.413 0,-0.973 -0.264,-1.415 0.796,-3.006 C 1.38,2.659 2.111,0.835 2.388,-0.485 1.344,-0.448 0,0 0,0 m -9.064,29.44 c 0.188,-0.774 0.465,-1.727 0.841,-2.563 0.796,-1.768 1.415,-3.183 1.857,-5.393 0.441,-2.21 1.238,-3.713 1.945,-5.924 0.56,-1.751 1.288,-3.778 2.182,-4.808 -0.91,-0.096 -1.788,0.082 -2.447,0.741 -1.327,1.327 -2.83,5.393 -2.83,5.393 -0.572,2.579 -1.552,4.46 -1.902,5.082 l -0.228,0.294 c -2.204,1.627 -5.295,-3.607 -5.295,-3.607 0.087,1.767 -1.062,2.829 -1.062,2.829 0.353,-0.177 3.006,0.442 3.006,0.442 0.707,0.619 2.387,4.42 2.564,5.835 0.114,0.921 0.755,1.915 1.187,2.498 0.002,-0.013 0.004,-0.026 0.007,-0.04 z M -7.543,9.169 c -3.099,0.065 -7.134,-0.239 -7.134,-0.239 1.503,1.237 3.625,7.426 3.625,7.426 0.125,-0.564 1.67,-2.724 2.907,-4.376 l 0.326,-0.435 c 0.375,-0.495 0.701,-0.919 0.923,-1.201 0.358,-0.456 0.499,-0.875 0.536,-1.223 -0.3,0.019 -0.619,0.033 -0.951,0.042 z m -5.984,29.997 0.675,0.337 c 0.297,-1.806 0.81,-3.924 1.623,-4.846 0.959,-1.086 1.502,-1.113 2.062,-1.611 -2.168,-2.597 -4.89,-8.203 -4.89,-8.203 -0.443,-0.795 -0.531,0.089 -0.531,0.089 2.21,3.979 -0.796,5.216 -0.796,5.216 0.708,1.768 1.857,9.018 1.857,9.018 m 5.283,-7.632 c 0.028,-0.338 -0.187,-0.492 -0.436,-0.56 z m 1.8,-26.648 c 0.147,0.024 0.265,0.047 0.343,0.065 1.15,0.265 1.415,-0.531 1.415,-0.531 0,-1.591 1.945,-3.978 2.21,-4.862 0.265,-0.884 0.089,-1.857 0.265,-2.741 0.177,-0.884 1.769,-0.707 2.476,-0.265 0.528,0.33 2.192,0.463 2.999,0.509 0.735,-1.447 1.717,-3.16 1.775,-4.133 l 0.088,-1.503 c 2.0589113,-4.756649 4.8506515,-3.887262 5.595,-2.176786 C 26.148517,2.9858101 24.336689,7.9624643 21.237875,26.168 L 10.432,39.472 6.8485266,41.521884 -11.478482,43.677272 c 0,0 -2.007911,1.39721 -1.033911,-0.19479 0.459,-0.753 -0.540607,1.350518 -0.549607,0.730518 -1.261,-1.582 -1.261,-4.429 -1.261,-4.429 -1.856,-3.006 -3.448,-9.194 -3.448,-9.194 0,0 -0.353,0.088 -0.884,-0.088 -0.53,-0.177 -0.884,-0.708 -1.327,-1.857 -0.442,-1.15 -0.706,0.177 -1.325,-1.591 -0.619,-1.769 0.619,-1.946 0.619,-1.946 0,0 0.078,-0.059 0.353,0.177 0.807,0.695 1.15,1.769 1.15,1.769 l 0,-1.15 c 0.177,-0.442 -0.797,-0.972 -0.797,-0.972 0,0 -0.706,-0.708 -1.501,-1.415 -0.797,-0.707 -0.974,-4.774 -0.532,-6.542 0.442,-1.769 0.532,-4.333 0.532,-4.333 -0.135,-1.097 0.008,-2.13 0.27,-3.037 l 0.751,-1.839 c 0.548,-1.037 1.1,-1.666 1.1,-1.666 l 1.414,-1.149 c 1.671,-1.193 8.995,-0.454 11.283,-0.1 z"
               inkscape:connector-curvature="0" />
          </g>
        </g>
      </g>
      <g
         transform="translate(234.78623,132.35422)"
         id="g230">
        <path
           id="path232"
           style="fill:#ffaa45;fill-opacity:1;fill-rule:nonzero;stroke:none"
           d="m 0,0 c -15.839,0 -28.725,-12.886 -28.725,-28.725 0,-15.839 12.886,-28.726 28.725,-28.726 15.839,0 28.726,12.887 28.726,28.726 C 28.726,-12.886 15.839,0 0,0 m 0,-58.451 c -16.391,0 -29.725,13.335 -29.725,29.726 C -29.725,-12.334 -16.391,1 0,1 16.391,1 29.726,-12.334 29.726,-28.725 29.726,-45.116 16.391,-58.451 0,-58.451"
           inkscape:connector-curvature="0"
           class="activity-background"
           ng-class="{'activity-selected' : route.activities.indexOf('mountain_climbing') &gt; -1}" />
      </g>
    </g>
  </g>
</svg>
