<?xml version="1.0" encoding="UTF-8" standalone="no"?>
<!-- Created with Inkscape (http://www.inkscape.org/) -->

<svg
   xmlns:dc="http://purl.org/dc/elements/1.1/"
   xmlns:cc="http://creativecommons.org/ns#"
   xmlns:rdf="http://www.w3.org/1999/02/22-rdf-syntax-ns#"
   xmlns:svg="http://www.w3.org/2000/svg"
   xmlns="http://www.w3.org/2000/svg"
   xmlns:sodipodi="http://sodipodi.sourceforge.net/DTD/sodipodi-0.dtd"
   xmlns:inkscape="http://www.inkscape.org/namespaces/inkscape"
   width="65"
   height="65"
   viewBox="0 0 65.000001 65.000001"
   id="svg2"
   version="1.1"
   inkscape:version="0.91 r13725"
   sodipodi:docname="climbing_indoor.svg">
  <defs
     id="defs4">
    <clipPath
       clipPathUnits="userSpaceOnUse"
       id="clipPath362">
      <path
         d="m 0,368 595.28,0 0,-368 L 0,0 0,368 Z"
         id="path364"
         inkscape:connector-curvature="0" />
    </clipPath>
    <clipPath
       clipPathUnits="userSpaceOnUse"
       id="clipPath346">
      <path
         d="m 0,368 595.28,0 0,-368 L 0,0 0,368 Z"
         id="path348"
         inkscape:connector-curvature="0" />
    </clipPath>
  </defs>
  <sodipodi:namedview
     id="base"
     pagecolor="#ffffff"
     bordercolor="#666666"
     borderopacity="1.0"
     inkscape:pageopacity="0.0"
     inkscape:pageshadow="2"
     inkscape:zoom="5.6"
     inkscape:cx="29.650549"
     inkscape:cy="33.917002"
     inkscape:document-units="px"
     inkscape:current-layer="layer1"
     showgrid="false"
     units="px"
     inkscape:window-width="1855"
     inkscape:window-height="1056"
     inkscape:window-x="1665"
     inkscape:window-y="24"
     inkscape:window-maximized="1" />
  <metadata
     id="metadata7">
    <rdf:RDF>
      <cc:Work
         rdf:about="">
        <dc:format>image/svg+xml</dc:format>
        <dc:type
           rdf:resource="http://purl.org/dc/dcmitype/StillImage" />
        <dc:title></dc:title>
      </cc:Work>
    </rdf:RDF>
  </metadata>
  <g
     inkscape:label="Layer 1"
     inkscape:groupmode="layer"
     id="layer1"
     transform="translate(0,-987.36216)">
    <g
       transform="matrix(2.6079576,0,0,-2.6079576,-1336.4752,1147.2345)"
       id="g342">
      <g
         id="g344"
         clip-path="url(#clipPath346)">
        <g
           id="g350"
           transform="translate(531.1818,55.552)">
          <path
             d="m 0,0 -3.278,-12.732 c -0.465,-1.806 -2.093,-3.068 -3.958,-3.068 -2.097,0 -3.802,1.565 -4.04,3.612 1.026,0.475 1.721,1.531 1.676,2.731 l -0.301,8.182 c -0.039,1.079 -0.67,1.989 -1.565,2.453 0.026,0.032 0.048,0.068 0.077,0.098 0.254,0.263 0.609,0.414 0.974,0.414 l 9.105,0 c 0.421,0 0.811,-0.191 1.069,-0.524 C 0.017,0.833 0.105,0.408 0,0 M 1.474,2.495 C 0.802,3.363 -0.213,3.86 -1.31,3.86 l -9.105,0 c -0.951,0 -1.876,-0.393 -2.536,-1.078 -0.396,-0.411 -0.667,-0.918 -0.827,-1.459 -1.146,-0.418 -1.951,-1.526 -1.903,-2.811 l 0.301,-8.182 c 0.044,-1.217 0.839,-2.223 1.921,-2.609 0.288,-3.216 2.955,-5.69 6.223,-5.69 2.856,0 5.347,1.931 6.059,4.696 L 2.101,-0.541 C 2.37,0.506 2.136,1.641 1.474,2.495"
             style="fill:#FFAA45;fill-opacity:1;fill-rule:nonzero;stroke:none"
             id="path352"
             inkscape:connector-curvature="0" />
        </g>
      </g>
    </g>
  </g>
</svg>
