<?xml version="1.0" encoding="UTF-8" standalone="no"?>
<!-- Created with Inkscape (http://www.inkscape.org/) -->

<svg
   xmlns:dc="http://purl.org/dc/elements/1.1/"
   xmlns:cc="http://creativecommons.org/ns#"
   xmlns:rdf="http://www.w3.org/1999/02/22-rdf-syntax-ns#"
   xmlns:svg="http://www.w3.org/2000/svg"
   xmlns="http://www.w3.org/2000/svg"
   xmlns:sodipodi="http://sodipodi.sourceforge.net/DTD/sodipodi-0.dtd"
   xmlns:inkscape="http://www.inkscape.org/namespaces/inkscape"
   width="65"
   height="65"
   viewBox="0 0 65.000001 65.000001"
   id="svg2"
   version="1.1"
   inkscape:version="0.91 r13725"
   sodipodi:docname="confluence.svg">
  <defs
     id="defs4" />
  <sodipodi:namedview
     id="base"
     pagecolor="#ffffff"
     bordercolor="#666666"
     borderopacity="1.0"
     inkscape:pageopacity="0.0"
     inkscape:pageshadow="2"
     inkscape:zoom="7.9195959"
     inkscape:cx="-7.058037"
     inkscape:cy="27.382596"
     inkscape:document-units="px"
     inkscape:current-layer="layer1"
     showgrid="false"
     units="px"
     inkscape:window-width="1855"
     inkscape:window-height="1056"
     inkscape:window-x="1665"
     inkscape:window-y="24"
     inkscape:window-maximized="1" />
  <metadata
     id="metadata7">
    <rdf:RDF>
      <cc:Work
         rdf:about="">
        <dc:format>image/svg+xml</dc:format>
        <dc:type
           rdf:resource="http://purl.org/dc/dcmitype/StillImage" />
        <dc:title />
      </cc:Work>
    </rdf:RDF>
  </metadata>
  <g
     inkscape:label="Layer 1"
     inkscape:groupmode="layer"
     id="layer1"
     transform="translate(0,-987.36216)">
    <g
       id="g68"
       transform="matrix(1.1772801,0,0,-1.1772801,61.560909,1020.6452)" />
    <g
       id="g72"
       transform="matrix(1.1772801,0,0,-1.2814499,61.757157,1032.323)">
      <path
         id="path74"
         style="fill:#FFAA45;fill-opacity:1;fill-rule:nonzero;stroke:none"
         d="m 0,0 c 7.083,-10.25 -19.917,-7.833 -29.833,-6.75 -9.917,1.083 8.083,4.5 8.083,4.5 4.785,-1.206 13.776,-2.084 15.933,-0.178 C -2.458,0.542 0,0 0,0 m -0.1666961,2.6666551 0.75,4.333 -3.667,-1.333 -0.75,5.5829999 -1.916,-2.5829999 -5.0839999,9.8329999 -2.25,-8 -2.333,4.834 -3.917,-5.3339999 -2.083,2.5839999 -1.5,-2.6669999 -4,7.8329999 -1.333,-2.666 -5.084,7.25 -8.25,-11.667 -1.25,1 -1.583,-5.4169999 -3.333,-1 -0.084,-4.41599999 -1.916,0.33299999 -0.667,-5.333 c 0,0 -6,-10.5000001 18.5,-9.8340001 24.4999999,0.667 1.25,4 1.25,4 0,0 -19.75,2.3340001 1.917,8.3340001 21.6659999,6 8.75,4.833 8.75,4.833 l -1.042,1.5 c 1.917,0.083 15.6249999,0.083 10.125,-2.25 -5.5,-2.33299999 -8.083,-3.417 -8.083,-3.417 0,0 9.4999999,-1.841 13.0829999,0.90900001 0,0 3.818,2.87299999 5.75,2.75799999"
         inkscape:connector-curvature="0" />
    </g>
    <g
       id="g76"
       transform="matrix(1.1772801,0,0,-1.2814499,10.594456,1028.7456)">
      <path
         d="M 0,0 1.292,5.917 2.042,5.042 10.083,16.25 14,10.083 16.417,11.542 20,1.542 15.25,2.958 12.958,9.25 11.417,5.292 10,8.125 8.375,2.583 8.417,9.583 4.083,2.667 2.625,3.958 0,0 Z"
         style="fill:#ffffff;fill-opacity:1;fill-rule:nonzero;stroke:none"
         id="path78"
         inkscape:connector-curvature="0" />
    </g>
  </g>
</svg>
