<?xml version="1.0" encoding="UTF-8" standalone="no"?>
<svg
   xmlns:dc="http://purl.org/dc/elements/1.1/"
   xmlns:cc="http://creativecommons.org/ns#"
   xmlns:rdf="http://www.w3.org/1999/02/22-rdf-syntax-ns#"
   xmlns:svg="http://www.w3.org/2000/svg"
   xmlns="http://www.w3.org/2000/svg"
   xmlns:sodipodi="http://sodipodi.sourceforge.net/DTD/sodipodi-0.dtd"
   xmlns:inkscape="http://www.inkscape.org/namespaces/inkscape"
   height="65"
   width="65"
   id="svg4340"
   version="1.1"
   inkscape:version="0.91 r13725"
   sodipodi:docname="mountain_biking.svg">
  <metadata
     id="metadata4354">
    <rdf:RDF>
      <cc:Work
         rdf:about="">
        <dc:format>image/svg+xml</dc:format>
        <dc:type
           rdf:resource="http://purl.org/dc/dcmitype/StillImage" />
        <dc:title />
      </cc:Work>
    </rdf:RDF>
  </metadata>
  <defs
     id="defs4352" />
  <sodipodi:namedview
     pagecolor="#ffffff"
     bordercolor="#666666"
     borderopacity="1"
     objecttolerance="10"
     gridtolerance="10"
     guidetolerance="10"
     inkscape:pageopacity="0"
     inkscape:pageshadow="2"
     inkscape:window-width="1855"
     inkscape:window-height="1056"
     id="namedview4350"
     showgrid="false"
     inkscape:zoom="7.069231"
     inkscape:cx="48.816994"
     inkscape:cy="27.089611"
     inkscape:window-x="1665"
     inkscape:window-y="24"
     inkscape:window-maximized="1"
     inkscape:current-layer="svg4340" />
  <g
     id="mountain_biking"
     ng-click="editCtrl.pushToArray(route, 'activities', 'mountain_biking', $event)"
     class="activity-icon"
     transform="matrix(1,0,0,-1,0,76.382384)">
    <title
       id="title4343">activity-icon</title>
    <g
       id="g5289"
       transform="translate(-4.8,11.2)">
      <g
         transform="translate(66.292329,32.67372)"
         id="g58">
        <path
           style="fill:#ffaa45;fill-opacity:1;fill-rule:nonzero;stroke:none"
           d="M 32.267578 3.2832031 C 16.126578 3.2832031 3.0410156 16.366813 3.0410156 32.507812 C 3.0410156 48.648813 16.126578 61.734375 32.267578 61.734375 C 48.407578 61.734375 61.492188 48.648812 61.492188 32.507812 C 61.492187 16.366813 48.407578 3.2832031 32.267578 3.2832031 z M 30.794922 11.306641 C 30.947922 11.276641 31.243625 11.381484 31.515625 11.396484 C 31.807625 11.413484 32.008437 11.371875 32.148438 11.546875 C 34.193438 11.989875 34.920891 13.749313 35.337891 15.820312 C 34.915891 16.089312 34.333672 15.446312 34.013672 15.820312 C 34.013672 15.820312 33.935109 16.873719 33.412109 17.386719 C 33.103109 17.579719 33.187484 17.956109 33.021484 18.287109 C 32.931484 18.467109 32.517516 18.644375 32.478516 18.859375 C 32.437516 19.087375 32.725094 19.355031 32.871094 19.582031 C 33.173094 20.049031 33.444188 20.436 33.742188 20.875 C 33.998188 21.252 34.156391 21.523594 34.525391 21.808594 C 34.674391 21.923594 34.774969 22.064375 34.917969 22.109375 C 35.129969 22.176375 35.331828 22.257016 35.548828 22.291016 C 36.101828 22.376016 38.257812 23.794922 38.257812 23.794922 C 38.479813 23.870922 38.715219 23.862312 38.949219 23.945312 C 39.197219 24.032312 39.61325 24.35925 40.03125 24.15625 C 40.18425 24.19425 40.310672 24.351094 40.513672 24.246094 C 40.653672 24.286094 40.661453 24.458328 40.814453 24.486328 C 41.102453 24.273328 41.786422 24.457344 42.107422 24.277344 C 42.477422 24.467344 42.674234 24.646141 42.740234 25.119141 C 42.818234 25.674141 42.309531 26.188359 42.769531 26.443359 C 43.073531 26.338359 43.472578 26.530141 43.642578 26.744141 C 43.493578 26.831141 43.282031 26.648563 43.082031 26.601562 C 42.852031 26.592562 42.708547 26.616438 42.560547 26.773438 C 42.414547 26.759438 42.435516 26.576047 42.228516 26.623047 C 42.032516 26.723047 42.235516 27.005313 42.228516 27.195312 C 42.962516 27.445312 43.395875 28.629125 42.921875 29.453125 C 43.241875 30.347125 43.634922 31.166703 43.794922 32.220703 L 43.853516 32.402344 C 43.887516 32.588344 43.943609 32.753359 43.974609 32.943359 C 44.284609 32.923359 44.464172 33.108281 44.576172 33.363281 C 47.640172 31.513281 51.576672 32.804141 53.513672 34.869141 C 54.781672 36.221141 55.565688 37.998063 55.679688 40.164062 C 55.745687 41.418062 55.502125 42.821094 55.078125 43.746094 C 54.914125 44.104094 54.626016 44.459078 54.416016 44.830078 C 53.784016 45.945078 52.933578 46.706172 51.767578 47.326172 C 50.886578 47.795172 49.878578 48.199625 48.517578 48.140625 C 46.454578 48.049625 44.801578 47.494078 43.642578 46.455078 C 43.111578 45.978078 42.710766 45.489469 42.259766 44.980469 C 41.916766 44.353469 41.492328 43.757141 41.236328 42.994141 C 40.982328 42.239141 40.796906 41.406844 40.753906 40.464844 C 40.633906 37.824844 41.620016 35.758656 43.041016 34.597656 C 42.723016 34.086656 42.537672 33.591453 42.138672 33.064453 C 41.966672 32.837453 41.803953 32.649844 41.626953 32.339844 C 41.540953 32.188844 41.400172 32.071219 41.326172 31.949219 C 41.206172 31.752219 41.214688 31.574594 41.054688 31.558594 C 40.698688 31.523594 40.275047 32.581813 40.123047 32.882812 C 38.849047 35.418812 37.708172 37.935547 36.451172 40.435547 C 35.947172 41.438547 35.392109 42.469312 35.037109 43.445312 C 35.038109 43.571312 35.154047 43.580156 35.248047 43.535156 C 35.202047 43.731156 35.306984 43.836094 35.458984 43.746094 C 35.435984 43.813094 35.395437 43.864031 35.398438 43.957031 C 35.425438 44.071031 35.519375 43.978328 35.609375 43.986328 C 35.494375 44.034328 35.544219 44.375516 35.699219 44.228516 C 35.752219 44.263516 35.628375 44.3755 35.609375 44.4375 C 35.610375 44.5375 35.694062 44.552594 35.789062 44.558594 C 35.696062 44.615594 35.639609 44.827828 35.849609 44.798828 C 35.764609 44.880828 35.610062 45.068156 35.789062 45.160156 C 35.549062 45.261156 35.742078 45.462031 35.580078 45.582031 C 35.848078 46.221031 37.023438 46.091797 37.023438 46.091797 C 37.713437 46.073797 38.420906 45.964813 39.128906 45.882812 C 39.266906 46.039812 39.498234 46.240078 39.490234 46.455078 C 39.474234 46.921078 38.56825 47.047266 38.40625 47.447266 C 38.29025 47.451266 38.268719 47.548109 38.136719 47.537109 C 38.153719 47.854109 37.955781 47.959469 37.925781 48.230469 C 37.518781 48.405469 36.998406 48.298844 36.691406 48.589844 C 36.579406 48.621844 36.644016 48.477 36.541016 48.5 C 36.305016 48.669 36.145609 48.585391 35.849609 48.650391 C 35.824609 48.524391 35.931703 48.531703 35.970703 48.470703 C 35.727703 48.406703 35.916906 48.245375 35.878906 48.109375 C 35.709906 48.067375 35.520187 48.248313 35.367188 48.320312 C 35.367188 48.471313 35.345594 48.597937 35.308594 48.710938 C 34.442594 48.868938 33.901547 49.508797 32.810547 49.341797 C 32.789547 49.210797 32.860844 49.173016 32.839844 49.041016 C 32.537844 48.688016 32.576766 48.131813 32.509766 47.507812 C 32.081766 47.601813 31.841031 47.881531 31.457031 48.019531 C 30.475031 51.231531 28.337063 53.811813 24.414062 54.007812 C 21.711063 54.142812 19.434859 53.169094 18.005859 51.871094 C 16.625859 50.618094 15.545203 48.6325 15.658203 46.0625 C 15.749203 43.9755 16.653312 42.008484 17.945312 40.646484 C 19.365313 39.148484 21.340672 38.080984 24.263672 38.208984 C 25.284672 38.253984 26.053109 38.41525 26.912109 38.78125 C 27.002109 38.71825 26.872109 38.622766 26.912109 38.509766 C 27.082109 38.221766 27.272078 37.938422 27.455078 37.607422 C 27.603078 37.339422 27.896297 36.939531 27.904297 36.644531 C 27.913297 36.319531 27.540281 35.65 27.363281 35.5 C 27.161281 35.329 26.842328 35.289375 26.611328 35.109375 C 26.334328 34.893375 26.165922 34.556172 25.919922 34.326172 C 24.323922 32.838172 21.500719 32.443859 20.261719 30.505859 C 19.885719 29.205859 19.972094 28.663859 19.871094 27.255859 C 19.871094 27.255859 19.598344 25.42 20.652344 24.125 C 20.850344 23.881 21.291313 23.473609 21.195312 23.224609 C 21.087312 23.080609 20.766203 23.149812 20.533203 23.132812 C 20.040203 22.837812 19.545703 21.957187 19.720703 21.117188 C 19.720703 21.117188 21.578812 13.455828 26.882812 15.548828 C 27.103813 15.741828 28.652516 16.5545 29.228516 14.4375 C 29.250516 14.3175 29.329359 14.286016 29.318359 14.166016 C 29.298359 13.936016 28.972531 13.424031 29.019531 13.082031 C 29.080531 12.622031 29.705641 12.563047 29.681641 11.998047 C 29.864641 11.825047 30.235187 11.714875 30.492188 11.546875 C 30.614187 11.466875 30.663922 11.332641 30.794922 11.306641 z M 32.314453 23.041016 C 32.261617 23.050533 32.206688 23.071766 32.148438 23.103516 C 32.108438 23.655516 32.409 23.773563 32.75 23.976562 C 33.8 24.600562 35.020391 25.243156 36.150391 25.660156 C 36.278391 25.607156 36.377719 25.527469 36.511719 25.480469 C 36.688719 25.544469 36.868047 25.605797 36.873047 25.841797 C 37.497047 25.940797 38.207828 25.952031 38.798828 26.082031 C 38.861828 26.220031 38.950766 26.330656 39.009766 26.472656 C 38.986766 26.560656 38.865672 26.550594 38.888672 26.683594 C 39.139672 26.713594 39.270844 26.863219 39.339844 27.074219 C 39.635844 26.895219 40.194125 26.765656 40.453125 26.472656 C 40.512125 26.400656 40.622766 26.382672 40.634766 26.263672 C 40.404766 26.132672 40.343187 25.830312 40.242188 25.570312 C 40.198188 25.553313 40.086797 25.606016 40.091797 25.541016 C 39.978797 25.538016 40.021406 25.690703 39.941406 25.720703 C 39.830406 25.520703 39.503547 25.537922 39.310547 25.419922 C 39.423547 25.317922 39.368844 25.246891 39.339844 25.087891 C 39.064844 25.022891 38.76525 24.980047 38.40625 24.998047 C 38.21525 24.820047 37.816359 24.895906 37.443359 24.878906 C 35.485359 24.786906 34.479266 24.484828 33.322266 23.673828 C 32.939016 23.405203 32.684305 22.974393 32.314453 23.041016 z M 30.402344 24.908203 C 30.297344 25.064203 29.887234 25.56625 29.740234 25.78125 C 29.506234 26.14025 29.2715 26.330766 28.8125 26.759766 L 28.236328 27.074219 C 27.849328 27.180219 27.268594 27.349422 27.183594 27.857422 L 28.115234 28.007812 L 28.837891 28.097656 C 29.805891 28.265656 30.285641 28.486281 30.806641 28.613281 C 31.771641 29.054281 33.463188 29.377094 33.742188 30.746094 C 33.758188 30.824094 33.772438 30.947578 33.773438 31.017578 C 33.782438 32.121578 33.197031 33.307172 33.082031 34.326172 C 33.084031 34.308172 33.085328 34.291875 33.111328 34.296875 C 34.256328 33.626875 35.276328 32.875859 36.361328 32.130859 C 37.148328 31.588859 37.971125 30.923156 38.828125 30.535156 C 39.297125 30.323156 39.9255 30.242953 40.0625 29.751953 C 40.0065 29.627953 39.945812 29.575984 39.882812 29.458984 C 39.682813 29.117984 39.470844 28.862828 39.339844 28.548828 C 39.268844 28.413828 39.017672 28.597234 38.888672 28.490234 C 38.973672 28.375234 39.083609 28.282656 39.099609 28.097656 C 38.934609 27.788656 38.51225 27.840203 38.40625 28.158203 C 38.13225 27.990203 37.879906 27.802328 37.503906 27.736328 C 37.455906 27.451328 37.191594 27.174625 36.933594 27.015625 C 36.799594 26.932625 36.541625 26.782141 36.390625 26.744141 C 36.123625 26.678141 35.819516 26.797656 35.728516 26.472656 C 33.664516 26.239656 31.710344 25.896203 30.402344 24.908203 z M 41.519531 27.089844 C 41.466328 27.081813 41.411969 27.084469 41.355469 27.105469 C 41.449469 27.142469 41.50425 27.216312 41.65625 27.195312 C 41.80125 27.314312 42.020672 27.670188 42.138672 27.617188 C 42.136672 27.448187 41.946281 27.468859 41.988281 27.255859 C 41.828531 27.234859 41.679141 27.113937 41.519531 27.089844 z M 41.445312 27.316406 C 41.276312 27.467406 41.084703 27.595734 40.845703 27.677734 C 40.753703 27.699734 40.808766 27.729922 40.634766 27.794922 C 40.349766 28.030922 40.117812 28.042297 39.882812 28.279297 C 40.151813 28.501297 40.300422 28.842281 40.482422 29.113281 C 40.747422 29.460281 40.954781 29.662594 41.175781 29.933594 C 41.595781 29.593594 42.254063 29.268828 42.289062 28.548828 C 42.318063 27.949828 41.942109 27.625406 41.537109 27.316406 L 41.445312 27.316406 z M 42.169922 27.316406 C 42.373922 27.984406 42.577031 28.653484 42.832031 29.271484 C 43.126031 28.467484 42.814922 27.545406 42.169922 27.316406 z M 42.408203 28.548828 C 42.432203 29.414828 42.015109 29.841078 41.537109 30.205078 C 41.999109 30.284078 42.730531 29.771125 42.769531 29.453125 C 42.809531 29.136125 42.500203 28.858828 42.408203 28.548828 z M 42.107422 29.302734 C 41.830422 29.556734 41.585031 29.841141 41.207031 29.994141 C 41.230031 30.082141 41.253172 30.167078 41.326172 30.205078 C 41.611172 29.948078 42.056422 29.692734 42.107422 29.302734 z M 42.769531 29.693359 C 42.509531 30.109359 41.978469 30.402469 41.355469 30.355469 C 41.624469 30.819469 42.049922 31.127234 42.169922 31.740234 C 42.268922 31.718234 42.269906 31.598891 42.378906 31.587891 C 42.810906 31.463891 43.162109 31.587891 43.162109 31.587891 C 43.406109 31.798891 43.446281 32.293188 43.613281 32.492188 C 43.475281 31.536187 43.135531 30.521359 42.769531 29.693359 z M 38.798828 32.160156 C 36.810828 33.301156 34.828391 34.449391 32.900391 35.650391 C 33.925391 37.547391 32.871188 41.028438 33.742188 43.023438 C 33.831188 42.961438 34.012516 42.992594 34.103516 42.933594 L 34.707031 41.640625 C 34.882031 41.223625 35.057344 40.807547 35.277344 40.435547 C 36.250344 38.078547 37.460047 35.470891 38.498047 33.212891 C 38.652047 32.878891 38.871672 32.561406 38.888672 32.191406 C 38.846672 32.192406 38.823828 32.176156 38.798828 32.160156 z M 42.589844 32.552734 C 42.599844 32.785734 42.739328 32.853203 42.861328 33.033203 C 43.106328 33.395203 43.284828 33.984188 43.673828 34.117188 C 43.627828 33.451187 43.201172 33.164172 42.951172 32.701172 C 42.797172 32.685172 42.707844 32.605734 42.589844 32.552734 z M 48.271484 33.990234 C 48.427484 35.339234 48.410125 36.872984 48.578125 38.208984 C 48.659125 37.795984 49.046391 37.436312 49.150391 36.945312 C 49.201391 36.707313 49.167688 36.405813 49.179688 36.132812 C 49.200688 35.673812 49.250531 35.206594 49.269531 34.808594 C 49.279531 34.606594 49.184875 34.302734 49.421875 34.177734 C 49.502875 34.922734 49.328328 35.827438 49.361328 36.523438 C 49.690328 35.829437 49.996516 35.113266 50.353516 34.447266 C 49.762516 34.215266 49.035484 33.948234 48.271484 33.990234 z M 48.126953 33.996094 C 48.056953 33.964094 47.221516 34.070937 47.103516 34.085938 C 47.333516 35.489937 47.550875 36.909828 47.796875 38.298828 C 48.023875 38.291828 48.229437 38.307375 48.398438 38.359375 C 48.299438 36.932375 48.146953 35.401094 48.126953 33.996094 z M 46.923828 34.117188 C 46.594828 34.169187 46.313531 34.269422 46.019531 34.357422 C 46.269531 35.381422 46.706984 36.379734 46.833984 37.427734 C 46.944984 37.569734 47.048063 37.7535 47.164062 37.9375 C 47.261063 38.0925 47.351937 38.397078 47.585938 38.330078 C 47.432938 36.978078 47.148828 35.497187 46.923828 34.117188 z M 45.871094 34.447266 C 45.619094 34.496266 45.475578 34.654047 45.267578 34.748047 C 45.654578 35.564047 46.144797 36.278156 46.591797 37.035156 C 46.436797 36.326156 46.092094 35.290266 45.871094 34.447266 z M 50.474609 34.507812 C 50.073609 35.749812 49.182234 36.530984 49.240234 38.208984 C 49.239234 38.240984 49.253531 38.285281 49.269531 38.238281 C 50.011531 37.194281 50.704797 36.103078 51.466797 35.080078 C 51.142797 34.882078 50.837609 34.666812 50.474609 34.507812 z M 51.556641 35.169922 C 51.112641 35.922922 50.36725 36.925813 49.78125 37.757812 C 49.62425 37.979813 49.230234 38.471156 49.240234 38.660156 C 49.251234 38.863156 49.508563 38.983328 49.601562 39.111328 C 50.272562 38.253328 51.211516 37.163953 51.978516 36.251953 C 52.033516 36.185953 52.312547 35.871031 52.310547 35.832031 C 52.296547 35.649031 51.576641 35.283922 51.556641 35.169922 z M 43.853516 35.982422 C 43.691516 36.221422 43.476797 36.407828 43.341797 36.673828 C 43.746797 36.985828 44.185172 37.334672 44.576172 37.638672 C 44.706172 37.739672 44.816047 37.922203 44.998047 37.908203 C 44.765047 37.258203 44.254766 36.627672 43.884766 36.013672 C 43.882766 35.994672 43.878516 35.976422 43.853516 35.982422 z M 52.400391 35.982422 C 51.551391 37.038422 50.6645 38.057328 49.8125 39.111328 C 50.5135 38.985328 50.856156 38.694078 51.285156 38.330078 C 51.900156 37.808078 52.5005 37.306922 53.0625 36.794922 C 52.8315 36.534922 52.666391 36.207422 52.400391 35.982422 z M 45.328125 36.705078 C 45.319125 36.745078 45.285828 36.761219 45.298828 36.824219 C 45.473828 37.172219 45.714687 37.479359 45.929688 37.818359 C 46.130688 38.134359 46.256047 38.581 46.623047 38.75 C 46.284047 38.006 45.838672 37.367375 45.388672 36.734375 C 45.381672 36.710375 45.363125 36.700078 45.328125 36.705078 z M 43.222656 36.824219 C 43.051656 37.145219 42.873234 37.459359 42.740234 37.818359 C 43.481234 38.201359 44.18425 38.619484 44.90625 39.021484 L 44.90625 38.148438 C 44.35225 37.699438 43.826656 37.223219 43.222656 36.824219 z M 53.123047 36.976562 C 52.487047 37.543563 51.818312 38.078156 51.195312 38.660156 C 52.017313 38.408156 52.804766 38.120953 53.634766 37.876953 C 53.511766 37.528953 53.354047 37.216563 53.123047 36.976562 z M 49.089844 37.457031 C 48.984844 37.814031 48.789922 38.078922 48.669922 38.419922 C 48.815922 38.453922 48.894547 38.556312 49.060547 38.570312 C 49.061547 38.210313 49.147844 37.776031 49.089844 37.457031 z M 42.679688 37.96875 C 42.594687 38.27475 42.476453 38.546391 42.439453 38.900391 C 43.212453 38.971391 44.063109 39.123578 44.787109 39.142578 C 44.072109 38.764578 43.380688 38.36075 42.679688 37.96875 z M 53.693359 38.029297 C 53.257359 38.165297 52.776297 38.345766 52.279297 38.509766 C 51.479297 38.774766 50.638219 38.890359 50.324219 39.443359 C 51.528219 39.244359 52.876688 39.186937 54.054688 38.960938 C 53.925687 38.658937 53.893359 38.260297 53.693359 38.029297 z M 45.177734 38.058594 C 45.169734 38.156594 45.214828 38.203984 45.298828 38.208984 C 45.308828 38.139984 45.292578 38.093594 45.267578 38.058594 L 45.177734 38.058594 z M 45.148438 38.330078 C 45.093438 38.565078 45.089641 38.853328 45.056641 39.111328 C 45.260641 39.239328 45.675938 39.317672 45.960938 39.263672 C 45.716938 38.925672 45.519437 38.540078 45.148438 38.330078 z M 47.615234 38.599609 C 47.696234 38.850609 47.965312 38.912672 47.945312 39.263672 C 48.314312 39.218672 47.980172 38.733156 47.826172 38.660156 C 47.751172 38.822156 47.685234 38.623609 47.615234 38.599609 z M 48.367188 38.599609 C 48.240188 38.651609 48.223656 38.632156 48.097656 38.660156 C 48.079656 38.757156 48.116953 38.801094 48.126953 38.871094 C 48.320953 38.895094 48.310187 38.713609 48.367188 38.599609 z M 46.652344 38.75 C 46.575344 38.849 46.661438 38.987188 46.773438 38.992188 C 46.834437 38.908188 46.797344 38.721 46.652344 38.75 z M 48.728516 38.992188 C 48.589516 39.034188 48.469734 39.094422 48.427734 39.232422 C 48.607734 39.341422 48.675516 39.108188 48.728516 38.992188 z M 42.378906 39.052734 C 42.357906 39.462734 42.265062 39.799859 42.289062 40.255859 C 43.178063 40.171859 44.084797 40.105625 44.966797 40.015625 C 44.929797 39.811625 44.91125 39.589516 44.90625 39.353516 C 44.05925 39.257516 43.192906 39.181734 42.378906 39.052734 z M 49 39.052734 C 48.779 39.111734 48.754422 39.367953 48.607422 39.501953 C 48.760422 39.474953 48.863297 39.397813 49.029297 39.382812 C 49.019297 39.271813 49.056 39.116734 49 39.052734 z M 46.863281 39.111328 C 46.805281 39.191328 46.804422 39.415516 46.982422 39.353516 C 47.026422 39.261516 46.991125 39.195328 46.953125 39.111328 L 46.863281 39.111328 z M 50.324219 39.111328 C 50.140219 39.218328 49.874406 39.246516 49.691406 39.353516 C 49.752406 39.372516 49.71025 39.491953 49.78125 39.501953 C 50.04025 39.470953 50.274219 39.252328 50.324219 39.111328 z M 54.025391 39.171875 C 52.995391 39.308875 51.840391 39.411203 50.775391 39.533203 C 50.464391 39.569203 50.103047 39.566438 49.873047 39.773438 C 49.939047 39.998438 49.911891 40.317641 49.962891 40.556641 C 51.399891 40.459641 52.776078 40.301312 54.205078 40.195312 C 54.160078 39.839312 54.201391 39.396875 54.025391 39.171875 z M 48.306641 39.292969 C 48.244641 39.370969 48.274437 39.549203 48.398438 39.533203 C 48.383437 39.439203 48.490984 39.465516 48.458984 39.353516 C 48.400984 39.340516 48.402641 39.266969 48.306641 39.292969 z M 45.056641 39.382812 C 45.079641 39.600812 45.094437 39.828625 45.148438 40.015625 C 45.312438 39.969625 45.54175 39.987078 45.71875 39.955078 C 45.75375 39.622078 45.403641 39.432813 45.056641 39.382812 z M 49.541016 39.683594 C 49.462016 39.674594 49.412875 39.694438 49.421875 39.773438 C 49.500875 39.782438 49.550016 39.762594 49.541016 39.683594 z M 24.294922 39.712891 C 23.818922 39.697891 23.375 39.717687 23 39.804688 C 23.215 40.853687 23.423406 41.908297 23.691406 42.904297 C 23.888406 41.837297 24.072922 40.753891 24.294922 39.712891 z M 24.384766 39.744141 C 24.266766 40.790141 23.973047 41.821203 23.873047 42.783203 C 24.091047 42.630203 24.313453 42.481328 24.564453 42.361328 C 24.855453 41.549328 25.19675 40.786078 25.46875 39.955078 C 25.11575 39.876078 24.781766 39.778141 24.384766 39.744141 z M 22.820312 39.863281 C 22.480313 39.915281 22.211719 40.039469 21.886719 40.105469 C 22.278719 41.247469 22.721641 42.339063 23.181641 43.414062 C 23.209641 43.255063 23.503969 43.191141 23.542969 42.994141 C 23.573969 42.836141 23.416328 42.463938 23.361328 42.210938 C 23.187328 41.407937 23.036312 40.454281 22.820312 39.863281 z M 49.179688 39.894531 C 49.169688 39.965531 49.133391 40.007469 49.150391 40.105469 C 49.240391 40.064469 49.350625 40.045078 49.390625 39.955078 C 49.325625 39.929078 49.287688 39.877531 49.179688 39.894531 z M 25.587891 40.015625 C 25.348891 40.779625 25.022391 41.454937 24.775391 42.210938 C 25.203391 42.067937 25.425531 41.716281 25.769531 41.488281 C 25.800531 41.008281 25.959922 40.657469 25.919922 40.105469 C 25.783922 40.101469 25.711891 40.031625 25.587891 40.015625 z M 46.171875 40.015625 C 45.881875 39.930625 45.741203 40.243844 45.658203 40.464844 C 45.701203 40.582844 45.847531 40.596937 46.019531 40.585938 C 46.111531 40.436937 46.158875 40.243625 46.171875 40.015625 z M 49.511719 40.074219 C 49.383719 40.177219 49.547109 40.308703 49.662109 40.345703 C 49.627109 40.239703 49.585719 40.141219 49.511719 40.074219 z M 45.568359 40.134766 C 45.458359 40.155766 45.350984 40.176062 45.208984 40.164062 C 45.254984 40.268062 45.260672 40.412547 45.388672 40.435547 C 45.461672 40.349547 45.495359 40.221766 45.568359 40.134766 z M 21.736328 40.195312 C 21.348328 40.288312 21.062891 40.485188 20.712891 40.617188 C 21.236891 41.858187 21.847188 43.011812 22.367188 44.257812 C 22.643187 44.081812 22.870547 43.856703 23.060547 43.595703 C 22.599547 42.481703 22.179328 41.327313 21.736328 40.195312 z M 45.027344 40.195312 C 44.108344 40.269313 43.185063 40.338547 42.289062 40.435547 C 42.273062 40.802547 42.322609 41.106687 42.349609 41.429688 C 43.418609 41.284688 44.543609 41.194109 45.599609 41.037109 C 45.447609 40.978109 45.369578 40.845328 45.267578 40.736328 C 45.350578 40.741328 45.371125 40.690484 45.328125 40.646484 C 45.197125 40.526484 45.070344 40.403312 45.027344 40.195312 z M 54.205078 40.375 C 52.875078 40.479 51.540672 40.578328 50.263672 40.736328 C 51.363672 41.161328 52.905531 41.143688 54.144531 41.429688 C 54.170531 41.084688 54.226078 40.766 54.205078 40.375 z M 49.273438 40.425781 C 49.157313 40.418281 49.075891 40.468484 49.150391 40.646484 C 49.264391 40.579484 49.542563 40.678641 49.601562 40.556641 C 49.540563 40.499641 49.389562 40.433281 49.273438 40.425781 z M 20.5625 40.707031 C 20.2605 40.897031 19.962453 41.089594 19.689453 41.308594 C 19.966453 41.799594 20.335594 42.237656 20.683594 42.722656 C 21.207594 43.452656 21.599438 44.246141 22.398438 44.619141 C 21.794438 43.307141 21.2085 41.976031 20.5625 40.707031 z M 48.878906 40.826172 C 48.798906 40.899172 48.96075 41.143953 48.96875 41.126953 C 48.89875 41.066953 49.004906 40.830172 48.878906 40.826172 z M 48.607422 40.857422 C 48.440422 40.850422 48.311641 40.881109 48.306641 41.037109 C 48.411641 41.013109 48.422578 41.083359 48.517578 41.068359 C 48.545578 40.996359 48.638422 40.988422 48.607422 40.857422 z M 47.886719 40.917969 C 47.768719 40.910969 47.611781 41.021656 47.675781 41.097656 C 47.705781 40.998656 47.796469 40.996359 47.855469 41.068359 C 47.845469 40.998359 47.861719 40.952969 47.886719 40.917969 z M 49.421875 40.917969 C 49.411875 40.986969 49.426172 41.033359 49.451172 41.068359 C 49.549172 41.076359 49.596563 41.031266 49.601562 40.947266 C 49.566562 40.912266 49.495875 40.913969 49.421875 40.917969 z M 48.037109 40.978516 C 48.054109 41.075516 48.015859 41.1175 48.005859 41.1875 C 48.129859 41.2235 48.127109 40.979516 48.037109 40.978516 z M 49.873047 40.978516 C 49.765047 41.321516 49.589875 41.596859 49.421875 41.880859 C 50.536875 42.790859 51.644172 43.710687 52.701172 44.679688 L 52.701172 44.738281 C 52.662172 44.740281 52.659328 44.778531 52.611328 44.769531 C 51.477328 43.887531 50.375531 42.81 49.269531 42 C 50.138531 43.187 50.994422 44.389031 51.857422 45.582031 C 52.438422 45.119031 52.913734 44.550484 53.302734 43.896484 C 52.505734 43.097484 51.642687 42.358625 50.804688 41.640625 C 50.523688 41.399625 50.285047 41.034516 49.873047 40.978516 z M 47.105469 40.980469 C 46.998172 40.978875 46.943766 41.270891 47.103516 41.369141 C 47.073516 41.490141 46.943125 41.508922 46.953125 41.669922 C 47.185125 41.955922 47.452031 41.572531 47.707031 41.519531 C 47.761031 41.164531 47.565609 41.057656 47.224609 41.097656 C 47.182609 41.013906 47.141234 40.981 47.105469 40.980469 z M 49.210938 41.007812 C 49.109938 41.057813 49.139688 41.364984 49.179688 41.458984 C 49.470688 41.485984 49.409937 41.038813 49.210938 41.007812 z M 50.503906 41.068359 C 50.480906 41.075359 50.444359 41.068656 50.443359 41.097656 C 51.469359 41.927656 52.387828 42.866547 53.423828 43.685547 C 53.535828 43.385547 53.703203 43.1435 53.783203 42.8125 C 52.673203 42.2475 51.629906 41.617359 50.503906 41.068359 z M 48.669922 41.097656 C 48.672922 41.224656 48.757359 41.268891 48.818359 41.337891 C 48.791359 41.233891 48.811922 41.085656 48.669922 41.097656 z M 51.105469 41.1875 C 52.038469 41.6585 52.93775 42.164109 53.84375 42.662109 C 53.95775 42.324109 54.052234 41.967078 54.115234 41.580078 C 53.112234 41.469078 52.074469 41.2325 51.105469 41.1875 z M 45.634766 41.226562 C 45.446047 41.193562 45.223094 41.285344 45.027344 41.308594 C 44.144344 41.413594 43.232906 41.487078 42.378906 41.580078 C 42.466906 41.983078 42.566234 42.376359 42.740234 42.693359 C 43.570234 42.283359 44.597219 41.860531 45.449219 41.519531 C 45.565219 41.473531 45.780547 41.473594 45.810547 41.308594 C 45.757797 41.262844 45.697672 41.237563 45.634766 41.226562 z M 48.398438 41.279297 C 48.286438 41.518297 48.098406 41.841547 48.066406 42.060547 C 48.066406 42.030547 48.091656 42.024 48.097656 42 C 48.213656 41.984 48.243188 42.05525 48.367188 42.03125 C 48.354188 41.84425 48.686437 41.437297 48.398438 41.279297 z M 19.541016 41.429688 C 19.277016 41.677687 19.003109 41.914937 18.787109 42.210938 C 19.647109 42.754937 20.469453 43.336484 21.314453 43.896484 C 20.743453 43.053484 20.170016 42.214688 19.541016 41.429688 z M 46.351562 41.519531 C 46.196562 41.504531 46.156234 41.605078 45.990234 41.580078 C 45.151234 42.375078 44.231047 43.089188 43.373047 43.867188 C 43.636047 44.145187 43.841297 44.479984 44.154297 44.708984 C 44.707297 43.923984 45.306094 43.110328 45.871094 42.361328 C 46.056094 42.116328 46.310813 41.886078 46.382812 41.580078 C 46.358812 41.573078 46.347563 41.554531 46.351562 41.519531 z M 45.658203 41.609375 C 44.756203 42.030375 43.783328 42.382203 42.861328 42.783203 C 42.766328 42.818203 42.788234 42.735656 42.740234 42.722656 C 42.872234 43.081656 43.073953 43.372547 43.251953 43.685547 C 43.968953 43.124547 44.768219 42.459859 45.449219 41.880859 C 45.547219 41.796859 45.696203 41.644375 45.658203 41.609375 z M 48.699219 41.609375 C 48.639219 41.700375 48.528422 41.867 48.607422 42 C 48.990422 42.018 48.954219 41.601375 48.699219 41.609375 z M 47.707031 41.640625 C 47.619031 41.752625 47.454297 41.791406 47.404297 41.941406 C 47.467297 41.967406 47.456688 42.068547 47.554688 42.060547 C 47.615688 41.950547 47.759031 41.763625 47.707031 41.640625 z M 28.476562 41.789062 C 28.303563 42.241063 27.6215 42.267187 27.0625 42.242188 C 26.8235 42.695187 26.452297 43.175703 26.279297 43.595703 C 27.029297 43.000703 27.879656 42.505859 28.597656 41.880859 C 28.536656 41.871859 28.537563 41.798062 28.476562 41.789062 z M 46.501953 41.789062 C 45.774953 42.807063 45.029391 43.807828 44.275391 44.798828 C 44.458391 45.077828 44.750344 45.248641 45.027344 45.431641 C 45.797344 44.385641 46.60275 43.376734 47.34375 42.302734 C 46.99975 42.195734 46.784953 41.958063 46.501953 41.789062 z M 28.71875 42.03125 C 28.28275 42.30425 27.830281 42.624891 27.363281 42.962891 C 26.672281 43.463891 25.851187 43.900984 25.617188 44.708984 C 26.874187 44.129984 28.099063 43.518047 29.289062 42.873047 C 29.091062 42.600047 28.92775 42.29325 28.71875 42.03125 z M 25.287109 42.121094 C 25.060109 42.225094 24.888297 42.385422 24.654297 42.482422 C 24.501297 42.951422 24.238531 43.469484 24.144531 43.896484 C 24.387531 43.587484 24.732484 43.381141 24.896484 42.994141 C 24.874484 42.895141 24.757094 42.893203 24.746094 42.783203 C 24.818094 42.801203 24.883328 42.8265 24.986328 42.8125 C 25.011328 42.5195 25.502109 42.464094 25.287109 42.121094 z M 49.029297 42.150391 C 48.784297 42.337391 48.435859 42.420875 48.005859 42.421875 C 48.153859 43.839875 48.339281 45.218766 48.488281 46.634766 C 48.839281 46.644766 49.153172 46.617219 49.451172 46.574219 C 49.327172 45.083219 49.211297 43.583391 49.029297 42.150391 z M 26.189453 42.210938 C 25.686453 42.770937 25.406719 43.715203 25.136719 44.408203 C 25.413719 44.204203 25.688516 43.998641 25.978516 43.806641 C 26.253516 43.259641 26.620812 42.802187 26.882812 42.242188 C 26.627813 42.256187 26.453453 42.186937 26.189453 42.210938 z M 18.697266 42.302734 C 18.542266 42.528734 18.360094 42.727141 18.246094 42.994141 C 19.484094 43.501141 20.697719 44.192437 21.886719 44.648438 C 21.658719 44.209437 21.270281 44.048391 20.863281 43.775391 C 20.149281 43.297391 19.444562 42.764031 18.726562 42.332031 C 18.724563 42.314031 18.723266 42.296734 18.697266 42.302734 z M 47.554688 42.361328 C 46.742687 43.404328 45.961734 44.480734 45.177734 45.552734 C 45.461734 45.729734 45.747031 45.907203 46.082031 46.033203 C 46.614031 44.820203 47.183781 43.646578 47.675781 42.392578 C 47.618781 42.399578 47.608688 42.357328 47.554688 42.361328 z M 47.826172 42.542969 C 47.644172 43.844969 47.464203 45.151078 47.283203 46.455078 C 47.598203 46.531078 47.916641 46.605469 48.306641 46.605469 C 48.155641 45.242469 48.011172 43.871969 47.826172 42.542969 z M 49.269531 42.542969 C 49.379531 43.886969 49.519859 45.200922 49.630859 46.544922 C 50.013859 46.495922 50.338297 46.388438 50.654297 46.273438 C 50.205297 45.016438 49.747531 43.769969 49.269531 42.542969 z M 24.414062 42.603516 C 24.226063 42.796516 23.824203 42.773281 23.783203 43.113281 C 23.829203 43.157281 23.922891 43.154078 23.962891 43.205078 C 23.862891 43.204078 23.859953 43.301922 23.751953 43.294922 C 23.816953 43.530922 23.841594 43.808578 23.933594 44.017578 C 24.088594 43.540578 24.293312 43.112812 24.445312 42.632812 C 24.476313 42.630812 24.468063 42.594516 24.414062 42.603516 z M 49.511719 42.662109 C 49.953719 43.845109 50.384938 45.038891 50.835938 46.212891 C 51.137938 46.022891 51.497281 45.893578 51.738281 45.642578 C 50.933281 44.712578 50.301719 43.607109 49.511719 42.662109 z M 31.005859 42.751953 C 31.118859 43.079953 31.281484 43.358547 31.396484 43.685547 C 31.511484 43.670547 31.621969 43.651406 31.667969 43.566406 C 31.538969 43.203406 31.375859 42.872953 31.005859 42.751953 z M 29.318359 43.023438 C 28.319359 43.568438 27.25 44.042891 26.25 44.587891 C 27.395 44.347891 28.705234 44.276734 29.740234 43.927734 C 29.738234 43.778734 29.691094 43.676703 29.621094 43.595703 C 29.499094 43.658703 29.291375 43.760937 29.109375 43.835938 C 28.948375 43.902938 28.68525 44.076937 28.65625 43.835938 C 28.94425 43.691938 29.231547 43.547313 29.560547 43.445312 C 29.519547 43.265313 29.441359 43.121438 29.318359 43.023438 z M 18.185547 43.113281 C 17.927547 43.477281 17.764281 43.938203 17.613281 44.408203 C 18.594281 44.816203 19.650594 45.246875 20.683594 45.671875 C 21.098594 45.842875 21.565266 46.111203 21.947266 46.033203 C 21.870266 45.613203 22.008203 45.286766 22.158203 45.009766 C 20.891203 44.320766 19.530547 43.725281 18.185547 43.113281 z M 47.525391 43.173828 C 47.122391 44.185828 46.657469 45.136047 46.230469 46.123047 C 46.519469 46.208047 46.856766 46.398531 47.134766 46.394531 C 47.226766 45.302531 47.479391 44.211828 47.525391 43.173828 z M 25.4375 43.205078 C 25.1945 43.604078 24.894297 43.945656 24.654297 44.347656 C 24.756297 44.385656 24.828781 44.454047 24.925781 44.498047 C 25.067781 44.058047 25.3505 43.599078 25.4375 43.205078 z M 23.572266 43.384766 C 23.577266 43.449766 23.465875 43.398063 23.421875 43.414062 C 23.417875 43.509062 23.499266 43.518156 23.572266 43.535156 C 23.533266 43.460156 23.660266 43.410766 23.572266 43.384766 z M 31.726562 43.775391 C 31.607563 43.797391 31.493031 43.823734 31.457031 43.927734 C 31.447031 44.037734 31.566719 44.017875 31.636719 44.046875 C 31.698719 43.988875 31.682562 43.852391 31.726562 43.775391 z M 29.771484 44.076172 C 29.329484 44.256172 28.909812 44.459688 28.507812 44.679688 C 29.032812 44.672687 29.528719 44.636891 30.011719 44.587891 C 29.981719 44.365891 29.911484 44.187172 29.771484 44.076172 z M 25.708984 44.136719 C 25.516984 44.305719 25.306172 44.455891 25.076172 44.587891 C 25.077172 44.677891 25.155969 44.691531 25.167969 44.769531 C 25.264969 44.776531 25.29325 44.715281 25.40625 44.738281 C 25.47725 44.545281 25.768984 44.261719 25.708984 44.136719 z M 29.080078 44.228516 C 27.981078 44.433516 26.858828 44.615375 25.798828 44.859375 C 26.586828 44.814375 27.375484 44.770984 28.146484 44.708984 C 28.427484 44.518984 28.787078 44.406516 29.080078 44.228516 z M 31.806641 44.466797 C 31.719641 44.468172 31.617375 44.494047 31.546875 44.498047 C 31.556875 44.618047 31.567719 44.737828 31.636719 44.798828 C 31.732719 44.714828 31.84575 44.644891 31.96875 44.587891 C 31.96525 44.488391 31.893641 44.465422 31.806641 44.466797 z M 21.917969 44.498047 C 22.074969 44.611047 22.094891 44.862625 22.337891 44.890625 C 22.346891 44.828625 22.419734 44.831531 22.427734 44.769531 C 22.226734 44.730531 22.068969 44.487047 21.917969 44.498047 z M 17.552734 44.558594 C 17.498734 44.924594 17.384047 45.232578 17.373047 45.642578 C 18.677047 45.742578 19.998859 45.986203 21.255859 46.033203 C 19.992859 45.571203 18.828734 45.008594 17.552734 44.558594 z M 29.21875 44.761719 C 28.388078 44.784266 27.575344 44.981344 27.152344 45.339844 C 27.966344 45.184844 28.937234 45.114219 29.740234 44.949219 C 29.824234 44.931219 30.024969 44.925828 30.042969 44.798828 C 29.775719 44.767078 29.495641 44.754203 29.21875 44.761719 z M 27.693359 44.890625 C 26.898359 44.917625 26.120953 44.961062 25.376953 45.039062 C 25.460953 45.217063 25.557187 45.381031 25.617188 45.582031 C 26.479187 45.521031 27.123359 45.242625 27.693359 44.890625 z M 31.757812 45.431641 C 31.735813 46.252641 31.675875 47.194594 31.546875 47.808594 C 31.830875 47.560594 32.294516 47.494484 32.478516 47.146484 C 32.452516 47.031484 32.398922 46.947156 32.419922 46.785156 C 32.505922 46.681156 32.648453 46.633375 32.689453 46.484375 C 32.597453 46.445375 32.548672 46.364531 32.388672 46.394531 C 32.201672 46.070531 32.111406 45.702641 31.816406 45.431641 L 31.757812 45.431641 z M 17.34375 45.761719 C 17.31675 46.158719 17.30775 46.51325 17.34375 46.90625 C 18.52375 46.63225 19.829078 46.483297 20.955078 46.154297 C 19.724078 46.050297 18.55175 45.887719 17.34375 45.761719 z M 30.101562 45.761719 C 29.338563 45.861719 28.542 45.928047 27.875 46.123047 C 28.632 46.239047 29.354812 46.389375 30.132812 46.484375 C 30.148812 46.217375 30.114563 45.999719 30.101562 45.761719 z M 27.183594 46.222656 C 26.853422 46.227266 26.521453 46.267781 26.189453 46.363281 C 27.493453 46.775281 28.715969 47.269203 30.042969 47.658203 C 30.073969 47.318203 30.156812 47.030766 30.132812 46.634766 C 29.157062 46.518516 28.174109 46.208828 27.183594 46.222656 z M 21.796875 46.273438 C 20.254875 46.337438 18.861047 46.807391 17.373047 47.025391 C 17.421047 47.409391 17.504281 47.756125 17.613281 48.078125 C 19.026281 47.496125 20.443875 46.915438 21.796875 46.273438 z M 22.007812 46.333984 C 20.596812 47.019984 19.054531 47.573766 17.644531 48.259766 C 17.795531 48.599766 17.920703 48.967203 18.095703 49.283203 C 19.370703 48.742203 20.572422 48.127656 21.857422 47.597656 C 21.802422 47.091656 21.946812 46.624984 22.007812 46.333984 z M 25.888672 46.394531 C 25.796672 46.361531 25.690188 46.494078 25.617188 46.455078 C 25.593187 46.771078 25.431406 46.950734 25.316406 47.177734 C 26.673406 47.736734 28.005859 48.320328 29.380859 48.861328 C 29.758859 48.687328 29.862469 48.241594 29.980469 47.808594 C 28.713469 47.345594 27.138672 46.851531 25.888672 46.394531 z M 22.007812 46.875 C 21.916812 47.008 21.860563 47.383109 21.976562 47.537109 C 22.061563 47.431109 22.271891 47.451172 22.337891 47.326172 C 22.175891 47.227172 22.130812 47.013 22.007812 46.875 z M 25.167969 47.296875 C 25.020969 47.377875 25.175109 47.531203 25.287109 47.658203 C 25.463109 47.857203 25.640078 48.085375 25.830078 48.109375 C 25.578078 47.869375 25.446969 47.509875 25.167969 47.296875 z M 25.46875 47.386719 C 25.98075 48.459719 27.109937 48.914438 28.085938 49.523438 C 28.419937 49.295437 28.867922 49.181875 29.169922 48.921875 C 27.919922 48.426875 26.70575 47.894719 25.46875 47.386719 z M 22.669922 47.447266 C 22.381922 47.394266 22.2125 47.683141 22.1875 47.869141 C 22.3485 47.779141 22.461219 47.481359 22.699219 47.568359 C 22.577219 47.746359 22.479438 47.948922 22.398438 48.169922 C 22.521438 48.257922 22.635312 48.352906 22.820312 48.378906 C 22.970313 48.282906 23.182625 48.090469 23.390625 48.230469 C 23.386625 48.134469 23.324031 48.097281 23.332031 47.988281 C 22.938031 47.981281 22.761922 47.756266 22.669922 47.447266 z M 22.097656 47.597656 C 22.047656 47.628656 21.946406 47.715047 22.066406 47.748047 C 22.066406 47.703047 22.179656 47.624656 22.097656 47.597656 z M 21.917969 47.748047 C 20.688969 48.195047 19.421547 48.863344 18.185547 49.402344 C 18.356547 49.763344 18.577656 50.074937 18.847656 50.335938 C 19.643656 49.744937 20.496156 49.094 21.285156 48.5 C 21.534156 48.312 21.968969 48.156047 21.917969 47.748047 z M 22.367188 47.898438 C 22.246188 47.912437 22.169594 48.040125 22.308594 48.078125 C 22.294594 47.984125 22.350188 47.961437 22.367188 47.898438 z M 23.962891 48.048828 C 23.825891 48.041828 23.753109 48.100625 23.662109 48.140625 C 23.689109 48.323625 23.691203 48.553234 23.783203 48.740234 C 23.846203 48.513234 23.816891 48.194828 23.962891 48.048828 z M 22.037109 48.109375 C 21.232109 49.099375 20.561844 50.224828 19.839844 51.298828 C 20.154844 51.476828 20.419438 51.702844 20.773438 51.839844 C 21.232438 50.612844 21.75875 49.455469 22.21875 48.230469 C 22.13675 48.211469 22.143109 48.103375 22.037109 48.109375 z M 23.992188 48.140625 C 23.669187 49.754625 24.399453 51.0675 24.564453 52.5625 C 24.992453 52.5195 25.306734 52.362719 25.677734 52.261719 C 25.483734 51.703719 25.231875 51.204719 25.046875 50.636719 L 24.625 50.636719 C 25.101 50.285719 24.669313 49.783656 24.445312 49.222656 C 24.261313 48.764656 24.136188 48.338625 23.992188 48.140625 z M 24.205078 48.140625 C 24.353078 48.694625 24.655484 49.352062 24.896484 49.914062 C 24.845484 49.417063 25.301625 48.835062 25.015625 48.289062 C 24.880625 48.284062 24.959937 48.494 24.835938 48.5 C 24.630937 48.373 24.443078 48.233625 24.205078 48.140625 z M 25.587891 48.169922 C 25.507891 48.697922 25.806516 49.008344 25.978516 49.402344 C 26.123516 49.734344 26.226094 50.039937 26.371094 50.335938 C 26.650094 50.233938 26.876344 50.079609 27.152344 49.974609 C 26.663344 49.339609 26.343891 48.536922 25.587891 48.169922 z M 22.308594 48.349609 C 21.870594 49.576609 21.321531 50.693641 20.894531 51.931641 C 21.262531 52.055641 21.561563 52.246266 21.976562 52.322266 C 22.431563 51.022266 22.935625 49.769703 23.390625 48.470703 C 23.018625 48.618703 22.602594 48.512609 22.308594 48.349609 z M 23.542969 48.470703 C 23.064969 49.778703 22.565656 51.064812 22.097656 52.382812 C 22.448656 52.473812 22.805641 52.557047 23.181641 52.623047 C 23.268641 52.080047 23.357172 51.506203 23.451172 50.908203 C 23.588172 50.039203 23.847969 49.162703 23.542969 48.470703 z M 21.464844 48.53125 C 20.641844 49.18225 19.7805 49.796734 18.9375 50.427734 C 19.1585 50.727734 19.415 50.992688 19.75 51.179688 C 20.321 50.305687 20.904094 49.442844 21.496094 48.589844 C 21.502094 48.551844 21.541844 48.53025 21.464844 48.53125 z M 26.400391 48.710938 C 26.744391 49.069938 26.962984 49.553766 27.333984 49.884766 C 27.520984 49.780766 27.734297 49.704984 27.904297 49.583984 C 27.400297 49.315984 26.896391 48.887937 26.400391 48.710938 z M 25.527344 48.861328 C 25.448344 49.135328 25.559344 49.413375 25.527344 49.734375 C 25.705344 49.827375 25.848922 49.95625 25.919922 50.15625 C 25.881922 50.26825 25.769828 50.307328 25.798828 50.486328 C 25.948828 50.625328 26.099 50.461734 26.25 50.427734 C 26.023 49.892734 25.824344 49.326328 25.527344 48.861328 z M 29.349609 49.103516 C 28.997609 49.302516 28.587328 49.444531 28.236328 49.644531 C 28.454328 49.737531 28.598891 49.903609 28.837891 49.974609 C 29.013891 49.689609 29.250859 49.464812 29.380859 49.132812 C 29.411859 49.130812 29.403609 49.094516 29.349609 49.103516 z M 23.783203 49.583984 C 23.648203 50.612984 23.454031 51.582047 23.332031 52.623047 C 23.671031 52.712047 24.101313 52.686047 24.445312 52.623047 C 24.242313 51.592047 24.041203 50.558984 23.783203 49.583984 z M 28.056641 49.703125 C 27.846641 49.814125 27.635531 49.924906 27.394531 50.003906 C 27.562531 50.297906 27.783844 50.538359 27.964844 50.818359 C 28.285844 50.637359 28.50675 50.356406 28.71875 50.066406 C 28.46175 49.981406 28.312641 49.788125 28.056641 49.703125 z M 27.212891 50.095703 C 26.967891 50.241703 26.662641 50.326328 26.431641 50.486328 C 26.616641 50.842328 26.759406 51.239609 26.941406 51.599609 C 27.300406 51.416609 27.617 51.191203 27.875 50.908203 C 27.638 50.653203 27.503891 50.295703 27.212891 50.095703 z M 26.279297 50.517578 C 26.024297 50.723578 25.586812 50.744953 25.257812 50.876953 C 25.475812 51.290953 25.603078 51.796172 25.830078 52.201172 C 26.169078 52.049172 26.485266 51.874703 26.822266 51.720703 C 26.663266 51.296703 26.491297 50.886578 26.279297 50.517578 z "
           transform="matrix(1,0,0,-1,-61.492329,32.508664)"
           id="path60" />
      </g>
      <g
         transform="translate(30.057129,14.30462)"
         id="g62" />
    </g>
  </g>
</svg>
