<?xml version="1.0" encoding="UTF-8" standalone="no"?>
<svg
   xmlns:dc="http://purl.org/dc/elements/1.1/"
   xmlns:cc="http://creativecommons.org/ns#"
   xmlns:rdf="http://www.w3.org/1999/02/22-rdf-syntax-ns#"
   xmlns:svg="http://www.w3.org/2000/svg"
   xmlns="http://www.w3.org/2000/svg"
   xmlns:sodipodi="http://sodipodi.sourceforge.net/DTD/sodipodi-0.dtd"
   xmlns:inkscape="http://www.inkscape.org/namespaces/inkscape"
   height="65"
   width="65"
   id="svg4947"
   version="1.1"
   inkscape:version="0.91 r13725"
   sodipodi:docname="paragliding.svg">
  <metadata
     id="metadata4961">
    <rdf:RDF>
      <cc:Work
         rdf:about="">
        <dc:format>image/svg+xml</dc:format>
        <dc:type
           rdf:resource="http://purl.org/dc/dcmitype/StillImage" />
        <dc:title></dc:title>
      </cc:Work>
    </rdf:RDF>
  </metadata>
  <defs
     id="defs4959" />
  <sodipodi:namedview
     pagecolor="#ffffff"
     bordercolor="#666666"
     borderopacity="1"
     objecttolerance="10"
     gridtolerance="10"
     guidetolerance="10"
     inkscape:pageopacity="0"
     inkscape:pageshadow="2"
     inkscape:window-width="1855"
     inkscape:window-height="1056"
     id="namedview4957"
     showgrid="false"
     inkscape:zoom="5.6568542"
     inkscape:cx="28.609802"
     inkscape:cy="21.45584"
     inkscape:window-x="3585"
     inkscape:window-y="24"
     inkscape:window-maximized="1"
     inkscape:current-layer="g4242" />
  <g
     transform="matrix(1.0184316,0,0,-1.0184316,62.823663,32.622264)"
     id="g4242">
    <path
       style="fill:#f7931d;fill-opacity:1;fill-rule:nonzero;stroke:none"
       d="M 33.060547 2.859375 C 16.622042 2.859375 3.2949219 16.184542 3.2949219 32.623047 C 3.2949219 49.061551 16.622042 62.386719 33.060547 62.386719 C 49.498033 62.386719 62.824219 49.061551 62.824219 32.623047 C 62.824219 16.184542 49.498033 2.859375 33.060547 2.859375 z M 37.966797 14.1875 C 38.395684 14.166877 38.875473 14.321501 39.398438 14.613281 C 39.491115 14.577636 39.583188 14.548898 39.673828 14.523438 C 40.602638 14.26883 41.434125 14.532259 42.205078 15.101562 C 42.528939 14.88871 42.87318 14.74071 43.25 14.681641 C 43.726626 14.607295 44.25306 14.67508 44.84375 14.929688 C 45.812278 14.745351 46.609895 15.083844 47.214844 16.013672 C 47.985796 15.871091 48.740915 15.658493 49.769531 16.744141 C 50.980446 16.485459 51.652364 17.288137 52.126953 18.474609 C 53.228896 18.373785 54.065997 18.732304 54.384766 19.994141 C 55.513188 20.54002 56.368516 21.512304 56.169922 24.134766 C 56.046692 25.620658 55.745811 26.937568 55.111328 27.933594 C 54.918845 28.314487 54.725687 28.696213 54.533203 29.078125 C 54.771516 30.074151 54.465731 30.41547 53.945312 30.5 C 53.799677 31.449178 53.2159 31.328019 52.548828 30.998047 C 52.358381 30.914535 52.1353 30.840654 51.884766 30.773438 C 50.948827 31.395699 46.825713 33.759161 43.25 35.792969 C 41.917891 36.5517 40.661707 37.264165 39.673828 37.822266 C 38.842788 38.292781 38.202251 38.654322 37.867188 38.84375 C 37.944588 38.975128 37.853502 39.129212 37.830078 39.216797 C 37.807673 39.303364 37.780831 39.402215 37.791016 39.619141 C 37.8012 39.835048 37.78471 40.098616 37.748047 40.289062 C 37.711383 40.479509 37.78111 40.671913 37.832031 40.884766 C 37.882953 41.098636 37.67309 41.64447 37.572266 41.978516 C 37.471441 42.312561 37.298916 42.468259 37.011719 42.646484 C 36.810069 42.770733 36.461974 42.962024 36.199219 43.078125 C 36.085154 43.128028 35.985952 43.164579 35.923828 43.175781 C 35.713013 43.214482 35.596054 43.304337 35.46875 43.431641 C 35.342464 43.558945 35.213128 44.003918 35.183594 44.169922 C 35.153041 44.335926 35.43401 44.636438 35.566406 44.738281 C 35.700839 44.840124 35.790764 45.210082 35.796875 45.492188 C 35.802986 45.774293 35.640249 46.039825 35.578125 46.330078 C 35.514982 46.620331 35.533386 46.800315 35.410156 47.167969 C 35.286926 47.536641 34.949642 47.807268 34.654297 47.863281 C 34.358952 47.919295 34.324527 48.459023 34.269531 48.671875 C 34.213518 48.883709 34.018108 49.472987 34.052734 49.75 C 34.087361 50.025995 34.237971 50.06551 34.435547 50.277344 C 34.634141 50.489178 34.708161 50.81615 34.751953 51.107422 C 34.795746 51.399712 34.586866 51.692898 34.136719 51.775391 C 33.688609 51.857884 33.492622 51.684825 33.363281 51.464844 C 33.234959 51.242826 32.911874 51.147209 32.798828 51.224609 C 32.684764 51.300992 32.653027 51.625611 32.660156 51.800781 C 32.667285 51.975951 32.806752 52.265817 32.851562 52.451172 C 32.896373 52.636526 33.089242 52.967768 33.222656 53.324219 C 33.357089 53.678633 33.46342 54.496508 33.498047 54.771484 C 33.532674 55.048498 33.263201 55.406053 33.037109 55.505859 C 32.809999 55.607703 32.317762 55.301831 32.166016 55.0625 C 32.070283 54.908717 31.869367 54.799722 31.673828 54.730469 C 31.562819 54.691768 31.452819 54.666518 31.365234 54.654297 C 31.120811 54.616615 30.835883 54.327724 30.742188 54.076172 C 30.647473 53.823601 30.835992 53.513215 30.929688 53.310547 C 31.022365 53.107879 30.916016 52.292969 30.916016 52.292969 L 30.947266 52.072266 C 30.947266 52.072266 30.963296 51.450047 30.929688 51.121094 C 30.896079 50.791122 30.833749 50.267275 30.720703 50.037109 C 30.606639 49.806944 30.673394 49.396889 30.802734 49.363281 C 30.932075 49.330691 31.008691 49.0841 31.058594 48.84375 C 31.107478 48.602382 30.983567 48.370596 30.908203 48.097656 C 30.832839 47.823698 31.020158 47.258709 31.076172 47.046875 C 31.131167 46.834023 31.401857 46.009225 31.294922 45.808594 C 31.186968 45.605926 30.875726 44.962965 30.810547 44.652344 C 30.745367 44.341722 30.247101 44.505873 30.080078 44.529297 C 29.951756 44.54661 29.751774 44.345776 29.589844 44.177734 C 29.541977 44.12885 29.498619 44.082604 29.460938 44.044922 C 29.289841 43.879936 29.325923 43.435325 29.189453 43.345703 C 29.127329 43.305984 28.953268 43.203657 28.759766 43.095703 C 28.522471 42.963307 28.257912 42.824192 28.136719 42.777344 C 27.918774 42.692814 27.698481 42.460467 27.597656 42.234375 C 27.496832 42.007265 27.635252 41.375842 27.742188 41.070312 C 27.849123 40.764783 28.128388 40.210286 28.259766 39.964844 C 28.391143 39.718383 28.594934 39.198637 28.732422 38.927734 C 28.743625 38.90431 28.752637 38.880762 28.759766 38.859375 C 28.777079 38.812527 28.783203 38.771122 28.783203 38.732422 L 28.759766 38.693359 L 26.333984 34.705078 L 23.503906 30.052734 C 22.823594 30.245218 22.127569 30.326355 21.138672 30.203125 C 20.430862 30.275434 19.721482 30.34566 19.013672 30.417969 C 18.628705 30.470927 18.246295 30.525083 17.861328 30.580078 C 17.478398 30.625908 17.009164 30.706889 16.263672 30.900391 C 15.863428 31.012418 15.464697 31.122348 15.064453 31.234375 C 14.139717 30.648777 13.491776 29.74508 13.074219 28.582031 C 12.691288 27.312047 12.454718 26.45382 12.273438 25.748047 C 11.999479 24.16133 11.949809 22.575597 12.529297 20.998047 C 13.176001 19.68427 14.855305 18.508915 16.332031 18.505859 C 17.244546 17.061723 18.92158 15.571392 20.757812 16.115234 C 21.422848 15.441033 22.138581 14.852658 23.447266 15.277344 C 24.10008 14.818031 24.835358 14.500588 26.179688 15.222656 C 26.229591 15.156458 26.280008 15.093207 26.333984 15.035156 C 26.915509 14.406784 27.708744 14.244971 28.759766 14.652344 L 28.851562 14.6875 C 29.10006 14.586675 29.344402 14.513059 29.589844 14.480469 C 30.244695 14.391865 30.885802 14.587363 31.501953 15.289062 C 31.55593 15.188238 31.613741 15.094379 31.673828 15.007812 C 32.207486 14.241952 33.030826 14.075395 34.205078 14.640625 C 34.897612 14.347317 35.573902 14.193998 36.199219 14.416016 C 36.422255 14.495453 36.638878 14.622221 36.847656 14.808594 C 37.161333 14.403767 37.53791 14.208123 37.966797 14.1875 z M 39.445312 28.210938 C 38.669268 28.232325 37.856333 28.235045 37.003906 28.21875 C 36.737077 28.255414 36.469103 28.287974 36.199219 28.314453 C 35.814252 28.353154 35.426067 28.384528 35.039062 28.414062 C 34.791584 28.420173 34.542401 28.426465 34.294922 28.433594 L 31.673828 37.091797 L 30.148438 42.125 C 30.342958 42.107687 30.527552 42.0685 30.59375 42.017578 C 30.709851 41.927956 30.846957 41.964606 30.958984 41.994141 C 31.07203 42.022657 31.527468 42.116758 31.595703 41.960938 C 31.66292 41.805117 31.499851 41.562167 31.242188 41.427734 C 30.394852 40.986753 30.669655 39.44056 31.673828 39.152344 C 31.752247 39.129938 31.835225 39.114467 31.923828 39.109375 C 33.094006 39.029937 33.433908 40.684214 32.951172 41.167969 C 32.824886 41.294254 32.735253 41.43239 32.785156 41.699219 C 32.836078 41.966048 33.031359 41.830022 33.21875 41.878906 C 33.406141 41.927791 33.401966 41.686903 33.482422 41.535156 C 33.562878 41.381373 33.564444 41.276674 34.134766 41.292969 C 34.704069 41.308245 34.844008 41.130988 35.289062 40.914062 C 35.620053 40.752132 35.970072 40.380013 36.199219 40.091797 C 36.27662 39.994027 36.338936 39.904089 36.384766 39.837891 C 36.558917 39.576154 36.679407 39.220764 36.78125 38.886719 C 36.882075 38.552673 36.912037 38.44113 37.080078 38.257812 C 37.110631 38.224204 37.139536 38.185436 37.166016 38.140625 L 37.091797 38.117188 L 39.673828 29.851562 L 40.142578 28.355469 L 39.673828 28.257812 L 39.445312 28.210938 z M 40.445312 28.419922 L 39.673828 30.886719 L 37.667969 37.306641 C 37.71889 37.289327 37.773297 37.288393 37.824219 37.304688 C 37.964762 37.34848 37.893723 37.7219 37.818359 37.882812 L 39.673828 33.939453 L 42.109375 28.767578 L 40.445312 28.419922 z M 33.970703 28.445312 C 33.207898 28.470773 32.441726 28.504017 31.673828 28.548828 C 31.155446 28.5804 30.635737 28.615345 30.113281 28.660156 L 29.589844 35.820312 L 29.376953 38.751953 C 29.466575 38.985174 29.530818 39.186258 29.517578 39.240234 C 29.501283 39.299303 29.470425 39.368763 29.429688 39.449219 L 29.589844 40.154297 L 29.949219 41.714844 L 31.673828 36.025391 L 33.970703 28.445312 z M 29.804688 28.6875 L 29.589844 28.707031 C 29.313849 28.732492 29.037797 28.75851 28.759766 28.789062 C 28.413499 28.826744 28.066119 28.869252 27.716797 28.914062 L 28.759766 35.439453 L 29.136719 37.794922 L 29.148438 37.837891 L 29.589844 31.669922 L 29.804688 28.6875 z M 42.414062 28.847656 L 39.673828 34.666016 L 38.138672 37.923828 L 39.673828 36.169922 L 43.25 32.082031 L 45.314453 29.724609 C 44.596459 29.578974 43.896704 29.403742 43.25 29.179688 C 42.958729 29.079881 42.680892 28.96885 42.414062 28.847656 z M 26.787109 29.044922 C 26.636381 29.067327 26.485731 29.092745 26.333984 29.117188 C 26.183256 29.14163 26.032606 29.165945 25.880859 29.191406 C 25.04269 29.482678 24.416514 29.761325 23.810547 29.960938 L 26.333984 34.111328 L 28.759766 38.099609 L 28.792969 38.150391 C 28.814356 38.106598 28.837904 38.062222 28.861328 38.021484 L 28.832031 37.849609 L 28.759766 37.541016 L 26.787109 29.044922 z M 45.666016 29.792969 L 43.25 32.552734 L 39.673828 36.640625 L 39.207031 37.173828 L 39.673828 36.763672 L 43.25 33.615234 L 47.294922 30.060547 C 46.753116 29.982128 46.206803 29.894812 45.666016 29.792969 z M 47.699219 30.115234 L 43.25 34.029297 L 39.673828 37.175781 L 38.744141 37.994141 L 39.673828 37.46875 C 40.676983 36.902502 41.931131 36.192841 43.25 35.445312 C 46.699428 33.491961 50.588196 31.281078 51.554688 30.691406 C 50.533201 30.460222 49.154558 30.314847 47.699219 30.115234 z M 36.873047 39.648438 C 36.873047 39.648437 36.613492 39.988571 36.537109 40.195312 C 36.476003 40.358262 36.348928 40.620992 36.199219 40.884766 C 36.1595 40.954019 36.117928 41.02458 36.076172 41.091797 C 35.876559 41.416677 35.678198 41.359413 35.453125 41.572266 C 35.227033 41.784099 35.383283 41.836788 35.609375 41.839844 C 35.822227 41.841881 35.985348 41.689412 36.199219 41.619141 L 36.234375 41.607422 C 36.466577 41.544279 36.791921 41.291787 36.888672 41.011719 C 36.984404 40.73165 37.039495 40.133193 37.052734 39.910156 C 37.064956 39.688138 36.873047 39.648438 36.873047 39.648438 z M 29.210938 39.886719 C 29.126408 40.098553 28.902346 40.788302 28.759766 41.234375 L 28.648438 41.589844 C 28.587332 41.78029 28.619222 41.834122 28.759766 41.925781 C 28.800503 41.95226 28.852106 41.980915 28.910156 42.017578 C 29.129119 42.152011 29.369863 42.092564 29.589844 42.097656 C 29.634655 42.098675 29.680817 42.103181 29.724609 42.111328 L 29.589844 41.53125 L 29.210938 39.886719 z "
       transform="matrix(0.98190198,0,0,-0.98190198,-61.686679,32.031865)"
       id="path4244" />
  </g>
</svg>
