<?xml version="1.0" encoding="UTF-8" standalone="no"?>
<svg
   xmlns:dc="http://purl.org/dc/elements/1.1/"
   xmlns:cc="http://creativecommons.org/ns#"
   xmlns:rdf="http://www.w3.org/1999/02/22-rdf-syntax-ns#"
   xmlns:svg="http://www.w3.org/2000/svg"
   xmlns="http://www.w3.org/2000/svg"
   xmlns:sodipodi="http://sodipodi.sourceforge.net/DTD/sodipodi-0.dtd"
   xmlns:inkscape="http://www.inkscape.org/namespaces/inkscape"
   height="65"
   width="65"
   id="svg5707"
   version="1.1"
   inkscape:version="0.91 r13725"
   sodipodi:docname="skishoeing.svg">
  <metadata
     id="metadata5721">
    <rdf:RDF>
      <cc:Work
         rdf:about="">
        <dc:format>image/svg+xml</dc:format>
        <dc:type
           rdf:resource="http://purl.org/dc/dcmitype/StillImage" />
        <dc:title />
      </cc:Work>
    </rdf:RDF>
  </metadata>
  <defs
     id="defs5719" />
  <sodipodi:namedview
     pagecolor="#ffffff"
     bordercolor="#666666"
     borderopacity="1"
     objecttolerance="10"
     gridtolerance="10"
     guidetolerance="10"
     inkscape:pageopacity="0"
     inkscape:pageshadow="2"
     inkscape:window-width="1855"
     inkscape:window-height="1056"
     id="namedview5717"
     showgrid="false"
     inkscape:zoom="10.269366"
     inkscape:cx="42.951685"
     inkscape:cy="23.573544"
     inkscape:window-x="1665"
     inkscape:window-y="24"
     inkscape:window-maximized="1"
     inkscape:current-layer="svg5707" />
  <g
     id="snowshoeing"
     ng-click="editCtrl.pushToArray(route, 'activities', 'snowshoeing', $event)"
     class="activity-icon"
     transform="matrix(1,0,0,-1,-97.6,76.861824)">
    <title
       id="title5710">snowshoeing</title>
    <g
       id="g5283"
       transform="translate(-6.4,11.2)">
      <g
         transform="translate(164.91963,33.02392)"
         id="g24">
        <path
           style="fill:#ffaa45;fill-opacity:1;fill-rule:nonzero;stroke:none"
           d="M 31.695312 3.4121094 C 15.554313 3.4121094 2.46875 16.497672 2.46875 32.638672 C 2.46875 48.779672 15.554313 61.863281 31.695312 61.863281 C 47.835313 61.863281 60.919922 48.779672 60.919922 32.638672 C 60.919922 16.497672 47.835313 3.4121094 31.695312 3.4121094 z M 36.080078 10.359375 C 37.304199 10.43584 38.148438 11.40625 38.148438 11.40625 C 38.298437 11.92825 38.508922 12.451156 38.794922 12.910156 C 39.261922 13.659156 39.132297 14.355219 38.779297 15.074219 C 38.669297 15.297219 38.455469 15.537094 38.480469 15.746094 C 38.540469 16.245094 38.370703 16.654312 37.970703 16.820312 C 37.456703 17.033312 37.728656 17.935562 36.972656 17.851562 C 36.962656 18.250562 36.89575 18.697156 36.96875 19.035156 C 37.53475 21.664156 37.263672 24.365234 37.263672 24.365234 C 37.181672 24.452234 37.186031 24.652016 37.207031 24.791016 C 37.215031 24.848016 37.371937 24.923875 37.460938 24.921875 C 37.870938 24.914875 38.293906 25.032328 38.628906 24.611328 C 39.164906 23.939328 39.923078 24.358313 40.580078 24.320312 C 40.808078 24.307312 40.993125 25.417813 40.828125 25.632812 C 40.517125 26.039813 40.291578 26.677453 39.892578 26.814453 C 39.317578 27.011453 39.089734 27.480156 38.677734 27.785156 C 38.332734 28.040156 38.411359 28.288359 38.693359 28.568359 C 38.972359 28.847359 39.233609 28.943891 39.474609 28.587891 C 39.758609 28.165891 40.14675 28.142391 40.59375 28.150391 C 40.93675 28.156391 41.056641 28.267328 41.056641 28.611328 C 41.055641 28.798328 41.158906 28.996922 41.253906 29.169922 C 41.492906 29.609922 41.424297 29.971391 41.029297 30.275391 C 40.825297 30.431391 40.639109 30.627328 40.412109 30.736328 C 39.869109 30.997328 39.558359 31.406891 39.318359 31.962891 C 38.825359 33.104891 38.476766 34.303109 37.884766 35.412109 C 37.672766 35.810109 37.767562 36.386781 37.976562 36.925781 C 38.503562 38.282781 38.760516 39.728531 39.103516 41.144531 C 39.302516 41.967531 39.259344 42.604484 39.152344 43.646484 C 38.339344 51.511484 40.244141 51.039062 40.244141 51.039062 C 40.745141 50.636063 40.975297 50.817734 41.279297 51.177734 C 41.613297 51.572734 42.457094 51.274266 42.496094 52.072266 C 42.749094 52.035266 43.016906 52.039031 43.253906 51.957031 C 43.957906 51.711031 44.658703 51.44725 45.345703 51.15625 C 45.762703 50.97925 45.927047 51.292766 46.123047 51.509766 C 46.365047 51.776766 46.433422 52.049281 46.232422 52.238281 C 45.080422 53.319281 43.544953 54.189734 41.876953 54.177734 C 38.161953 54.149734 34.444469 54.132219 30.730469 54.199219 C 30.015469 54.212219 29.435672 53.853703 28.763672 53.845703 C 28.318672 53.840703 28.426984 53.490578 28.458984 53.267578 C 28.478984 53.124578 28.659828 52.829469 28.798828 52.730469 C 28.869828 52.679469 29.008234 52.726703 29.115234 52.720703 C 30.848234 52.613703 32.5795 52.505437 34.3125 52.398438 C 34.3655 52.395437 34.424609 52.410484 34.474609 52.396484 C 34.907609 52.272484 35.431 52.254234 35.75 51.990234 C 35.75 51.990234 36.122703 52.004812 35.220703 49.257812 C 34.963703 48.474812 34.971016 47.625687 34.916016 46.804688 C 34.862016 46.000688 34.912484 45.189812 34.896484 44.382812 C 34.894484 44.259813 34.781703 44.137625 34.720703 44.015625 C 34.606703 44.129625 34.436719 44.224328 34.386719 44.361328 C 33.966719 45.534328 33.544141 46.702172 32.994141 47.826172 C 32.867141 48.085172 33.010969 48.555422 33.167969 48.857422 C 33.458969 49.414422 33.215141 49.543516 32.744141 49.478516 C 32.129141 49.394516 32.459703 50.093172 32.095703 50.201172 C 31.973703 50.237172 31.865953 50.317953 31.751953 50.376953 C 31.724953 50.280953 31.645641 50.13175 31.681641 50.09375 C 32.064641 49.68575 32.033125 49.340906 31.703125 48.878906 C 31.554125 48.670906 31.496844 47.963031 32.214844 48.457031 C 32.239844 48.474031 32.509156 48.260906 32.535156 48.128906 C 32.725156 47.131906 33.306469 46.290844 33.605469 45.339844 C 33.630469 45.258844 33.572391 45.140687 33.525391 45.054688 C 33.516391 45.037687 33.362547 45.065328 33.310547 45.111328 C 33.310547 45.111328 27.930703 48.201422 27.470703 48.607422 C 27.639703 48.685422 27.835656 48.861219 27.972656 48.824219 C 28.352656 48.720219 28.710219 48.530141 29.074219 48.369141 C 29.438219 48.207141 29.791062 48.019766 30.164062 47.884766 C 30.291062 47.839766 30.463234 47.921312 30.615234 47.945312 C 30.559234 48.060313 30.534359 48.446766 30.443359 48.509766 C 29.818359 48.941766 29.162734 49.331203 28.552734 49.783203 C 28.188734 50.053203 27.614391 50.185578 27.775391 50.892578 C 27.847391 51.209578 27.332672 51.468984 27.013672 51.333984 C 26.001672 50.905984 25.689953 50.993766 24.251953 51.134766 L 16.023438 51.986328 C 15.725437 52.009328 15.390344 52.051031 15.152344 52.207031 C 14.734344 52.480031 14.52 51.964703 14.375 51.720703 C 14.138 51.317703 14.595875 51.166953 14.796875 51.126953 L 24.951172 49.509766 C 25.561172 49.426766 25.617375 49.401766 25.359375 48.759766 C 25.091375 48.094766 25.042969 47.387188 24.417969 46.867188 C 24.212969 46.696188 24.221578 46.175984 24.267578 45.833984 C 24.291578 45.653984 24.607969 45.513469 24.792969 45.355469 C 24.792969 45.355469 29.868141 42.839766 30.994141 40.634766 C 31.449141 39.745766 31.858766 38.827422 32.384766 37.982422 C 32.641766 37.571422 32.647188 37.319422 32.492188 36.857422 C 31.996187 35.376422 31.240953 34.025828 30.501953 32.673828 C 30.203953 32.128828 30.050297 31.346453 30.029297 30.564453 C 29.980297 30.592453 29.943359 30.615234 29.943359 30.615234 C 29.849359 30.623234 28.593672 30.852 28.138672 30.75 C 27.682672 30.647 27.132812 30.189453 27.132812 30.189453 L 26.5 29.822266 C 26.5 29.822266 26.3495 29.679312 26.1875 29.570312 C 26.1875 29.570312 25.154609 29.026031 25.224609 28.707031 C 25.224609 28.707031 24.111891 25.453406 25.587891 22.941406 C 25.770891 22.630406 25.925672 22.241219 26.388672 21.574219 C 26.850672 20.908219 27.256609 20.981703 27.974609 19.970703 C 28.691609 18.959703 28.543469 19.03675 28.980469 18.21875 C 29.417469 17.39975 29.832031 17.181641 29.832031 17.181641 C 29.832031 17.181641 30.408266 16.703531 30.572266 16.644531 C 30.737266 16.583531 31.042156 16.396344 31.285156 16.402344 C 31.528156 16.407344 31.786734 16.479922 31.927734 16.544922 C 32.071734 16.607922 32.543469 16.849047 32.855469 16.873047 C 33.550469 16.169047 33.791281 15.297234 33.613281 14.240234 C 33.512281 13.637234 33.803406 12.988109 33.316406 12.412109 C 33.212406 12.288109 33.386359 11.791844 33.568359 11.589844 C 34.474359 10.588594 35.345605 10.313496 36.080078 10.359375 z M 37.707031 27.574219 C 37.631031 27.591219 37.560281 27.639781 37.488281 27.675781 L 37.603516 27.791016 C 37.671516 27.753016 37.7415 27.714781 37.8125 27.675781 C 37.7765 27.639781 37.734031 27.568219 37.707031 27.574219 z M 37.837891 30.09375 C 37.755063 30.088891 37.669391 30.109609 37.587891 30.162109 C 36.967891 30.560109 36.696625 31.216016 36.890625 31.916016 C 36.942625 32.103016 37.175391 32.403828 37.150391 32.423828 C 36.397391 32.998828 37.331125 33.529469 37.203125 34.105469 C 37.155125 34.321469 37.523172 34.630484 37.701172 34.896484 C 37.738172 34.644484 37.734266 34.376531 37.822266 34.144531 C 37.927266 33.869531 38.141859 33.636281 38.255859 33.363281 C 38.579859 32.588281 38.877594 31.804297 39.183594 31.029297 C 39.086594 30.788297 39.014406 30.605828 38.941406 30.423828 C 38.867406 30.606828 38.827078 30.819937 38.705078 30.960938 C 38.629078 31.047938 38.428203 31.025734 38.283203 31.052734 C 38.299203 30.939734 38.331172 30.825891 38.326172 30.712891 C 38.310422 30.358141 38.086375 30.108328 37.837891 30.09375 z M 32.867188 38.240234 C 32.792187 38.273234 32.663391 38.291797 32.650391 38.341797 C 32.365391 39.423797 31.505844 40.189312 31.089844 41.195312 C 31.038844 41.318313 31.081078 41.481 31.080078 41.625 C 31.192078 41.585 31.303016 41.543859 31.416016 41.505859 C 31.746016 41.392859 32.001156 41.319266 32.035156 40.822266 C 32.066156 40.369266 32.434672 39.944047 32.638672 39.498047 C 32.780672 39.186047 32.897047 38.860422 32.998047 38.607422 C 32.934047 38.425422 32.900188 38.333234 32.867188 38.240234 z "
           transform="matrix(1,0,0,-1,-60.91963,32.637904)"
           id="path26" />
      </g>
      <g
         transform="translate(141.20323,31.55672)"
         id="g28" />
    </g>
  </g>
</svg>
