<?xml version="1.0" encoding="UTF-8" standalone="no"?>
<!-- Created with Inkscape (http://www.inkscape.org/) -->

<svg
   xmlns:dc="http://purl.org/dc/elements/1.1/"
   xmlns:cc="http://creativecommons.org/ns#"
   xmlns:rdf="http://www.w3.org/1999/02/22-rdf-syntax-ns#"
   xmlns:svg="http://www.w3.org/2000/svg"
   xmlns="http://www.w3.org/2000/svg"
   xmlns:sodipodi="http://sodipodi.sourceforge.net/DTD/sodipodi-0.dtd"
   xmlns:inkscape="http://www.inkscape.org/namespaces/inkscape"
   width="65"
   height="65"
   viewBox="0 0 65.000001 65.000001"
   id="svg2"
   version="1.1"
   inkscape:version="0.91 r13725"
   sodipodi:docname="bisse.svg">
  <defs
     id="defs4">
    <clipPath
       clipPathUnits="userSpaceOnUse"
       id="clipPath304">
      <path
         d="m 0,368 595.28,0 0,-368 L 0,0 0,368 Z"
         id="path306"
         inkscape:connector-curvature="0" />
    </clipPath>
  </defs>
  <sodipodi:namedview
     id="base"
     pagecolor="#ffffff"
     bordercolor="#666666"
     borderopacity="1.0"
     inkscape:pageopacity="0.0"
     inkscape:pageshadow="2"
     inkscape:zoom="5.6"
     inkscape:cx="1.4591576"
     inkscape:cy="15.245742"
     inkscape:document-units="px"
     inkscape:current-layer="layer1"
     showgrid="false"
     units="px"
     inkscape:window-width="1855"
     inkscape:window-height="1056"
     inkscape:window-x="1665"
     inkscape:window-y="24"
     inkscape:window-maximized="1" />
  <metadata
     id="metadata7">
    <rdf:RDF>
      <cc:Work
         rdf:about="">
        <dc:format>image/svg+xml</dc:format>
        <dc:type
           rdf:resource="http://purl.org/dc/dcmitype/StillImage" />
        <dc:title />
      </cc:Work>
    </rdf:RDF>
  </metadata>
  <g
     inkscape:label="Layer 1"
     inkscape:groupmode="layer"
     id="layer1"
     transform="translate(0,-987.36216)">
    <g
       transform="matrix(1.6043778,0,0,-1.9376487,-692.28785,1247.0629)"
       id="g302"
       clip-path="url(#clipPath304)">
      <g
         id="g324"
         transform="translate(460.7086,110.3609)" />
      <g
         id="g326"
         transform="translate(442.9153,102.5351)">
        <path
           d="m 0,0 17.793,21.968 10,0 L 10,0 0,0 Z"
           style="fill:#95cb3e;fill-opacity:1;fill-rule:nonzero;stroke:none"
           id="path328"
           inkscape:connector-curvature="0" />
      </g>
      <g
         id="g330"
         transform="translate(450.7087,124.5027)">
        <path
           d="m 0,0 -4.01,-4.951 c 0.185,-0.333 0.349,-0.654 0.502,-0.968 L 0.477,-1 7.903,-1 -8.27,-20.968 l -7.427,0 5.244,6.474 c -0.292,0.168 -0.565,0.359 -0.82,0.576 l -6.52,-8.05 10,0 L 10,0 0,0 Z"
           style="fill:#95cb3e;fill-opacity:1;fill-rule:nonzero;stroke:none"
           id="path332"
           inkscape:connector-curvature="0" />
      </g>
      <g
         id="g334"
         transform="translate(443.6068,111.6642)">
        <path
           d="m 0,0 c -0.294,-0.075 -0.6,-0.113 -0.908,-0.113 -1.883,0 -3.415,1.423 -3.415,3.172 0,0.422 0.112,0.915 0.331,1.466 0.037,0.093 0.143,0.146 0.247,0.124 C -3.64,4.626 -3.57,4.535 -3.581,4.437 -3.594,4.319 -3.601,4.203 -3.601,4.094 -3.601,2.19 -2.067,0.596 -0.033,0.386 0.068,0.376 0.147,0.3 0.155,0.206 0.163,0.111 0.098,0.025 0,0 m 2.368,8.515 c -1.02,1.684 -2.154,3.14 -2.74,3.859 -0.078,0.096 -0.195,0.152 -0.32,0.152 -0.124,0 -0.241,-0.056 -0.319,-0.152 -0.586,-0.719 -1.72,-2.176 -2.74,-3.859 -1.314,-2.17 -1.98,-3.964 -1.98,-5.331 0,-2.78 2.26,-5.04 5.039,-5.04 2.78,0 5.04,2.26 5.04,5.04 0.001,1.368 -0.666,3.162 -1.98,5.331"
           style="fill:#95cb3e;fill-opacity:1;fill-rule:nonzero;stroke:none"
           id="path336"
           inkscape:connector-curvature="0" />
      </g>
    </g>
  </g>
</svg>
