<?xml version="1.0" encoding="UTF-8" standalone="no"?>
<!-- Created with Inkscape (http://www.inkscape.org/) -->

<svg
   xmlns:dc="http://purl.org/dc/elements/1.1/"
   xmlns:cc="http://creativecommons.org/ns#"
   xmlns:rdf="http://www.w3.org/1999/02/22-rdf-syntax-ns#"
   xmlns:svg="http://www.w3.org/2000/svg"
   xmlns="http://www.w3.org/2000/svg"
   xmlns:sodipodi="http://sodipodi.sourceforge.net/DTD/sodipodi-0.dtd"
   xmlns:inkscape="http://www.inkscape.org/namespaces/inkscape"
   width="65"
   height="65"
   viewBox="0 0 65.000001 65.000001"
   id="svg2"
   version="1.1"
   inkscape:version="0.91 r13725"
   sodipodi:docname="camping.svg">
  <defs
     id="defs4" />
  <sodipodi:namedview
     id="base"
     pagecolor="#ffffff"
     bordercolor="#666666"
     borderopacity="1.0"
     inkscape:pageopacity="0.0"
     inkscape:pageshadow="2"
     inkscape:zoom="5.6"
     inkscape:cx="31.637729"
     inkscape:cy="15.245742"
     inkscape:document-units="px"
     inkscape:current-layer="layer1"
     showgrid="false"
     units="px"
     inkscape:window-width="1855"
     inkscape:window-height="1056"
     inkscape:window-x="1665"
     inkscape:window-y="24"
     inkscape:window-maximized="1" />
  <metadata
     id="metadata7">
    <rdf:RDF>
      <cc:Work
         rdf:about="">
        <dc:format>image/svg+xml</dc:format>
        <dc:type
           rdf:resource="http://purl.org/dc/dcmitype/StillImage" />
        <dc:title></dc:title>
      </cc:Work>
    </rdf:RDF>
  </metadata>
  <g
     inkscape:label="Layer 1"
     inkscape:groupmode="layer"
     id="layer1"
     transform="translate(0,-987.36216)">
    <g
       id="g112"
       transform="matrix(1.9368132,0,0,-1.9368132,49.537957,995.5765)">
      <path
         d="m 0,0 c -0.203,0 -0.406,-0.024 -0.603,-0.073 -0.065,-0.016 -0.114,-0.07 -0.124,-0.136 -0.011,-0.066 0.019,-0.131 0.075,-0.167 0.635,-0.401 1.013,-1.087 1.013,-1.836 0,-1 -0.676,-1.865 -1.646,-2.105 -0.065,-0.016 -0.114,-0.069 -0.124,-0.135 -0.011,-0.066 0.019,-0.132 0.075,-0.168 0.399,-0.252 0.86,-0.384 1.334,-0.384 1.38,0 2.502,1.122 2.502,2.502 C 2.502,-1.122 1.38,0 0,0"
         style="fill:#FFAA45;fill-opacity:1;fill-rule:nonzero;stroke:none"
         id="path114"
         inkscape:connector-curvature="0" />
    </g>
    <g
       id="g116"
       transform="matrix(1.9368132,0,0,-1.9368132,15.216266,1007.5781)">
      <path
         d="M 0,0 -0.515,0.056 -0.84,0.458 C -0.864,0.488 -0.903,0.504 -0.941,0.499 -0.979,0.494 -1.012,0.469 -1.028,0.434 L -1.241,-0.038 -1.724,-0.223 C -1.76,-0.237 -1.786,-0.269 -1.793,-0.307 -1.8,-0.344 -1.787,-0.384 -1.759,-0.409 l 0.383,-0.348 0.028,-0.517 c 0.002,-0.039 0.024,-0.074 0.057,-0.092 0.017,-0.009 0.035,-0.014 0.054,-0.014 0.019,0 0.038,0.005 0.055,0.015 l 0.449,0.257 0.5,-0.134 c 0.038,-0.01 0.077,0 0.105,0.027 0.028,0.026 0.041,0.065 0.033,0.103 l -0.106,0.507 0.282,0.434 c 0.021,0.032 0.024,0.073 0.007,0.108 C 0.072,-0.028 0.039,-0.004 0,0"
         style="fill:#FFAA45;fill-opacity:1;fill-rule:nonzero;stroke:none"
         id="path118"
         inkscape:connector-curvature="0" />
    </g>
    <g
       id="g120"
       transform="matrix(1.9368132,0,0,-1.9368132,21.056533,1001.3783)">
      <path
         d="m 0,0 c -0.017,0.035 -0.05,0.059 -0.089,0.063 l -0.514,0.056 -0.326,0.403 c -0.024,0.029 -0.062,0.045 -0.1,0.04 C -1.068,0.557 -1.1,0.532 -1.117,0.497 L -1.329,0.025 -1.812,-0.16 c -0.036,-0.014 -0.062,-0.046 -0.07,-0.084 -0.007,-0.037 0.006,-0.077 0.035,-0.102 l 0.383,-0.349 0.027,-0.516 c 0.002,-0.039 0.024,-0.074 0.058,-0.092 0.017,-0.009 0.035,-0.014 0.053,-0.014 0.019,0 0.038,0.005 0.055,0.015 l 0.45,0.257 0.5,-0.134 c 0.037,-0.01 0.077,0 0.105,0.027 0.028,0.026 0.04,0.065 0.032,0.103 l -0.105,0.507 0.281,0.434 C 0.014,-0.076 0.017,-0.035 0,0"
         style="fill:#FFAA45;fill-opacity:1;fill-rule:nonzero;stroke:none"
         id="path122"
         inkscape:connector-curvature="0" />
    </g>
    <g
       id="g124"
       transform="matrix(1.9368132,0,0,-1.9368132,9.5479894,1001.2562)">
      <path
         d="m 0,0 -0.514,0.056 -0.327,0.402 c -0.024,0.03 -0.062,0.046 -0.1,0.041 -0.038,-0.005 -0.071,-0.03 -0.087,-0.065 l -0.213,-0.472 -0.483,-0.185 c -0.036,-0.014 -0.062,-0.046 -0.07,-0.084 -0.007,-0.037 0.006,-0.076 0.035,-0.102 l 0.383,-0.349 0.027,-0.516 c 0.002,-0.039 0.024,-0.074 0.058,-0.092 0.017,-0.009 0.035,-0.014 0.053,-0.014 0.019,0 0.038,0.005 0.056,0.015 l 0.449,0.257 0.5,-0.134 c 0.037,-0.01 0.077,0 0.105,0.027 0.028,0.026 0.041,0.065 0.033,0.103 l -0.106,0.507 0.282,0.434 c 0.021,0.032 0.024,0.073 0.007,0.108 C 0.072,-0.028 0.038,-0.004 0,0"
         style="fill:#FFAA45;fill-opacity:1;fill-rule:nonzero;stroke:none"
         id="path126"
         inkscape:connector-curvature="0" />
    </g>
    <g
       id="g128"
       transform="matrix(1.9368132,0,0,-1.9368132,32.5,1019.2513)">
      <path
         d="m 0,0 3.456,-8.728 -6.912,0 L 0,0 Z m -0.593,8.72 -12.412,-17.448 -2.708,0 c -0.368,0 -0.667,-0.299 -0.667,-0.667 0,-0.369 0.299,-0.667 0.667,-0.667 l 31.426,0 c 0.368,0 0.667,0.298 0.667,0.667 0,0.368 -0.299,0.667 -0.667,0.667 l -2.708,0 L 0.593,8.72 0,9.438 -0.593,8.72 Z"
         style="fill:#FFAA45;fill-opacity:1;fill-rule:nonzero;stroke:none"
         id="path130"
         inkscape:connector-curvature="0" />
    </g>
  </g>
</svg>
