<?xml version="1.0" encoding="UTF-8" standalone="no"?>
<!-- Created with Inkscape (http://www.inkscape.org/) -->

<svg
   xmlns:dc="http://purl.org/dc/elements/1.1/"
   xmlns:cc="http://creativecommons.org/ns#"
   xmlns:rdf="http://www.w3.org/1999/02/22-rdf-syntax-ns#"
   xmlns:svg="http://www.w3.org/2000/svg"
   xmlns="http://www.w3.org/2000/svg"
   xmlns:sodipodi="http://sodipodi.sourceforge.net/DTD/sodipodi-0.dtd"
   xmlns:inkscape="http://www.inkscape.org/namespaces/inkscape"
   width="65"
   height="65"
   viewBox="0 0 65.000001 65.000001"
   id="svg4997"
   version="1.1"
   inkscape:version="0.91 r13725"
   sodipodi:docname="lake.svg">
  <defs
     id="defs4999" />
  <sodipodi:namedview
     id="base"
     pagecolor="#ffffff"
     bordercolor="#666666"
     borderopacity="1.0"
     inkscape:pageopacity="0.0"
     inkscape:pageshadow="2"
     inkscape:zoom="3.959798"
     inkscape:cx="-39.864393"
     inkscape:cy="-0.62943203"
     inkscape:document-units="px"
     inkscape:current-layer="layer1"
     showgrid="false"
     units="px"
     inkscape:window-width="1855"
     inkscape:window-height="1056"
     inkscape:window-x="1665"
     inkscape:window-y="24"
     inkscape:window-maximized="1" />
  <metadata
     id="metadata5002">
    <rdf:RDF>
      <cc:Work
         rdf:about="">
        <dc:format>image/svg+xml</dc:format>
        <dc:type
           rdf:resource="http://purl.org/dc/dcmitype/StillImage" />
        <dc:title />
      </cc:Work>
    </rdf:RDF>
  </metadata>
  <g
     inkscape:label="Layer 1"
     inkscape:groupmode="layer"
     id="layer1"
     transform="translate(0,-987.36216)">
    <path
       inkscape:connector-curvature="0"
       style="fill:#94ca3d;fill-opacity:1;fill-rule:nonzero;stroke:none"
       d="m 29.182578,1003.833 8.022359,10.8779 -6.382677,-2.5576 -1.639682,7.0562 -1.634192,-7.0562 -6.382676,2.5576 z m 16.517922,11.3737 4.709977,6.3912 -3.747077,-1.4995 -0.9629,4.1419 -0.962898,-4.1419 -3.747076,1.4995 z M 7.4374564,1027.052 c 0.2971279,0 0.5887494,0.1451 0.7813319,0.3991 0.5832409,0.7618 1.4305929,1.1972 2.3329787,1.1972 0.902372,0 1.749723,-0.4354 2.332978,-1.1972 0.192569,-0.254 0.478695,-0.3991 0.781317,-0.3991 l 0.0057,0 c 0.297128,0 0.588749,0.1451 0.781332,0.3991 0.583241,0.7618 1.430592,1.1972 2.32747,1.1972 0.902386,0 1.755231,-0.4354 2.338486,-1.1972 0.192583,-0.254 0.478696,-0.3991 0.781317,-0.3991 0.0057,0 0.01127,0 0.01648,0 0.0057,0 0.01127,0 0.02198,0 0.297128,0 0.588749,0.1451 0.781331,0.3991 0.583241,0.7618 1.430593,1.1972 2.332978,1.1972 0.902372,0 1.749724,-0.4354 2.332979,-1.1972 0.192569,-0.254 0.478696,-0.3991 0.781317,-0.3991 l 0.0057,0 c 0.297128,0 0.588749,0.1451 0.781332,0.3991 0.583241,0.7618 1.430593,1.1972 2.327471,1.1972 0.902385,0 1.75523,-0.4354 2.338485,-1.1972 0.192583,-0.254 0.478696,-0.3991 0.781317,-0.3991 0.0057,0 0.01127,0 0.01647,0 0.0057,0 0.01127,0 0.02198,0 0.297128,0 0.588749,0.1451 0.781331,0.3991 0.583242,0.7618 1.430594,1.1972 2.332979,1.1972 0.902372,0 1.749723,-0.4354 2.332978,-1.1972 0.192569,-0.254 0.478696,-0.3991 0.781317,-0.3991 l 0.0057,0 c 0.297128,0 0.588749,0.1451 0.781333,0.3991 0.583241,0.7618 1.430593,1.1972 2.327471,1.1972 0.902385,0 1.75523,-0.4354 2.338485,-1.1972 0.192582,-0.254 0.478695,-0.3991 0.781316,-0.3991 0.0057,0 0.01127,0 0.01648,0 0.0057,0 0.01127,0 0.02198,0 0.297128,0 0.588749,0.1451 0.781331,0.3991 0.583242,0.7618 1.430593,1.1972 2.332978,1.1972 0.902372,0 1.749724,-0.4354 2.33298,-1.1972 0.192568,-0.254 0.478695,-0.3991 0.781316,-0.3991 l 0.0057,0 c 0.297127,0 0.588748,0.1451 0.781331,0.3991 0.583242,0.7618 1.430594,1.1972 2.327471,1.1972 0.902385,0 1.75523,-0.4354 2.338486,-1.1972 0.176075,-0.2299 0.42917,-0.3568 0.704296,-0.381 l -11.626538,-15.7754 -3.053781,4.1478 -13.464143,-18.27262 -22.0752658,29.96072 c 0.1045174,-0.043 0.2090912,-0.078 0.3301455,-0.078"
       id="path743" />
    <path
       inkscape:connector-curvature="0"
       style="fill:#94ca3d;fill-opacity:1;fill-rule:nonzero;stroke:none"
       d="m 64.232274,1032.8264 c 0,-0.9191 -1.012426,-1.7897 -2.789672,-2.5698 -0.165073,0.381 -0.511713,0.647 -0.924388,0.647 -1.138973,0 -2.228433,-0.4171 -3.11431,-1.1669 -0.885862,0.7498 -1.975323,1.1669 -3.119804,1.1669 -1.138971,0 -2.228431,-0.4171 -3.114309,-1.1669 -0.885862,0.7498 -1.975323,1.1669 -3.114296,1.1669 -0.01127,0 -0.01647,0 -0.02746,0 0,0 -0.0057,0 -0.01127,0 -1.133479,0 -2.217432,-0.4111 -3.097802,-1.1547 -0.880369,0.7436 -1.964321,1.1547 -3.0978,1.1547 -0.0057,0 -0.0057,0 -0.01127,0 -0.01127,0 -0.01648,0 -0.02746,0 -1.138973,0 -2.228434,-0.4171 -3.11431,-1.1669 -0.885863,0.7498 -1.975324,1.1669 -3.114295,1.1669 -0.01127,0 -0.01647,0 -0.02746,0 0,0 -0.0057,0 -0.01127,0 -1.133479,0 -2.217432,-0.4111 -3.0978,-1.1547 -0.88037,0.7436 -1.964324,1.1547 -3.097802,1.1547 -0.0057,0 -0.0057,0 -0.01127,0 -0.01127,0 -0.01648,0 -0.02748,0 -1.138972,0 -2.228432,-0.4171 -3.11431,-1.1669 -0.885863,0.7498 -1.975323,1.1669 -3.114295,1.1669 -0.01127,0 -0.01647,0 -0.02746,0 0,0 -0.0057,0 -0.01127,0 -1.133478,0 -2.217432,-0.4111 -3.097801,-1.1547 -0.880369,0.7436 -1.964322,1.1547 -3.097801,1.1547 -0.0057,0 -0.0057,0 -0.01127,0 -0.01127,0 -0.01648,0 -0.02746,0 -1.138972,0 -2.228432,-0.4171 -3.114309,-1.1669 -0.885862,0.7498 -1.975323,1.1669 -3.114295,1.1669 -1.1389872,0 -2.2339412,-0.4171 -3.1143109,-1.1669 -0.8858769,0.7498 -1.9808308,1.1669 -3.1198173,1.1669 -0.2916206,0 -0.5502238,-0.133 -0.7372987,-0.3506 -1.3810809,0.7014 -2.151411,1.4692 -2.151411,2.2734 0,2.0619 5.0071034,3.888 12.7268439,5.0308 2.255941,1.0157 7.829779,1.3183 4.825521,3.1864 -1.359064,0.8406 -2.327471,1.4876 -3.037274,1.9955 -0.825349,0.4173 -1.397588,0.8768 -1.656193,1.3726 -0.214584,0.2479 -0.18158,0.3204 -0.18158,0.3204 l 0,0.2842 c -0.07155,2.6665 8.446051,5.0973 19.026989,5.4238 10.575432,0.3265 19.20305,-1.5721 19.274579,-4.2386 0.02748,-1.1248 -1.474625,-2.201 -3.994678,-3.0959 l 0.01647,0 c 0,0 -0.02746,-0.012 -0.06057,-0.019 -0.341148,-0.1213 -0.698789,-0.2357 -1.072952,-0.3506 -0.979408,-0.3809 -2.222926,-1.0521 -2.14589,-2.0015 0.165058,-1.9288 3.372913,-2.4789 4.236774,-2.5939 0.02198,0 0.04958,0 0.07705,0 0.08255,-0.013 0.13762,-0.019 0.13762,-0.019 l -0.0057,0 c 8.792678,-1.1126 14.636132,-3.0655 14.636132,-5.2908"
       id="path745" />
  </g>
</svg>
