<?xml version="1.0" encoding="UTF-8" standalone="no"?>
<!-- Created with Inkscape (http://www.inkscape.org/) -->

<svg
   xmlns:dc="http://purl.org/dc/elements/1.1/"
   xmlns:cc="http://creativecommons.org/ns#"
   xmlns:rdf="http://www.w3.org/1999/02/22-rdf-syntax-ns#"
   xmlns:svg="http://www.w3.org/2000/svg"
   xmlns="http://www.w3.org/2000/svg"
   xmlns:sodipodi="http://sodipodi.sourceforge.net/DTD/sodipodi-0.dtd"
   xmlns:inkscape="http://www.inkscape.org/namespaces/inkscape"
   width="65"
   height="65"
   viewBox="0 0 65.000001 65.000001"
   id="svg2"
   version="1.1"
   inkscape:version="0.91 r13725"
   sodipodi:docname="waterfall.svg">
  <defs
     id="defs4" />
  <sodipodi:namedview
     id="base"
     pagecolor="#ffffff"
     bordercolor="#666666"
     borderopacity="1.0"
     inkscape:pageopacity="0.0"
     inkscape:pageshadow="2"
     inkscape:zoom="5.6"
     inkscape:cx="31.637729"
     inkscape:cy="15.245742"
     inkscape:document-units="px"
     inkscape:current-layer="layer1"
     showgrid="false"
     units="px"
     inkscape:window-width="1855"
     inkscape:window-height="1056"
     inkscape:window-x="1665"
     inkscape:window-y="24"
     inkscape:window-maximized="1" />
  <metadata
     id="metadata7">
    <rdf:RDF>
      <cc:Work
         rdf:about="">
        <dc:format>image/svg+xml</dc:format>
        <dc:type
           rdf:resource="http://purl.org/dc/dcmitype/StillImage" />
        <dc:title></dc:title>
      </cc:Work>
    </rdf:RDF>
  </metadata>
  <g
     inkscape:label="Layer 1"
     inkscape:groupmode="layer"
     id="layer1"
     transform="translate(0,-987.36216)">
    <g
       id="g36"
       transform="matrix(1.2868111,0,0,-1.2868111,46.278313,1021.5507)">
      <path
         d="M 0,0 -0.871,6.002 -3.233,4.942 0,13.084 4.263,3.825 0.871,6.002 0,0 Z m 0,18.749 -4.263,-9.259 0.744,-19.866 16.928,0 L 0,18.749 Z"
         style="fill:#95cb3e;fill-opacity:1;fill-rule:nonzero;stroke:none"
         id="path38"
         inkscape:connector-curvature="0" />
    </g>
    <g
       id="g40"
       transform="matrix(1.2868111,0,0,-1.2868111,31.521153,1020.8011)">
      <path
         d="m 0,0 c 0.433,0 0.784,0.351 0.784,0.785 l 0,3.529 c 0,0.433 -0.351,0.784 -0.784,0.784 -0.433,0 -0.784,-0.351 -0.784,-0.784 l 0,-3.529 C -0.784,0.351 -0.433,0 0,0"
         style="fill:#95cb3e;fill-opacity:1;fill-rule:nonzero;stroke:none"
         id="path42"
         inkscape:connector-curvature="0" />
    </g>
    <g
       id="g44"
       transform="matrix(1.2868111,0,0,-1.2868111,36.819861,1017.6466)">
      <path
         d="m 0,0 c 0.433,0 0.784,0.351 0.784,0.784 l 0,1.079 c 0,0.433 -0.351,0.784 -0.784,0.784 -0.433,0 -0.785,-0.351 -0.785,-0.784 l 0,-1.079 C -0.785,0.351 -0.433,0 0,0"
         style="fill:#95cb3e;fill-opacity:1;fill-rule:nonzero;stroke:none"
         id="path46"
         inkscape:connector-curvature="0" />
    </g>
    <g
       id="g48"
       transform="matrix(1.2868111,0,0,-1.2868111,38.510864,1038.3368)">
      <path
         d="m 0,0 -10.823,0 c -1.066,0 -1.933,0.858 -1.933,1.924 0,1.065 0.867,1.928 1.933,1.928 0.131,0 0.262,-0.016 0.389,-0.042 0.094,-0.019 0.189,-0.03 0.283,-0.03 0.522,0 0.964,0.314 1.126,0.801 0.276,0.828 1.021,1.384 1.854,1.384 0.025,0 0.049,0.011 0.074,0.01 0.058,-0.005 0.116,0.005 0.174,0.005 l 0.015,0 c 0.617,0 1.052,0.329 1.17,0.914 0.383,1.185 1.472,1.972 2.721,1.972 0.464,0 0.902,-0.116 1.289,-0.312 0.033,-0.021 0.066,-0.041 0.102,-0.056 0.876,-0.49 1.469,-1.427 1.469,-2.499 0,-0.271 -0.04,-0.546 -0.119,-0.818 C -0.39,4.788 -0.294,4.489 -0.193,4.308 0.026,3.914 0.405,3.809 0.537,3.771 0.886,3.671 1.189,3.475 1.423,3.218 1.48,3.095 1.561,2.987 1.66,2.898 1.833,2.607 1.932,2.278 1.932,1.924 1.932,0.858 1.066,0 0,0 m 2.444,21.373 0.022,1.764 -1.684,0 -12.674,0 -2.128,0 -0.205,-1.645 c -0.083,-0.241 -0.129,-0.499 -0.129,-0.767 l 0,-2.508 0,-14.394 0,-0.809 c -0.108,-0.348 -0.166,-0.708 -0.166,-1.09 0,-2.039 1.658,-3.688 3.697,-3.688 l 10.823,0 c 2.038,0 3.697,1.649 3.697,3.688 0,0.249 -0.027,0.485 -0.076,0.723 M 0.782,21.373 c 0.376,0 0.649,-0.273 0.649,-0.648 l 0,-13.462 C 1.118,8.361 0.41,9.293 -0.53,9.894 l 0,3.636 c 0,0.433 -0.351,0.784 -0.784,0.784 -0.433,0 -0.785,-0.351 -0.785,-0.784 l 0,-2.999 c -0.296,0.06 -0.604,0.092 -0.918,0.092 -0.571,0 -1.121,-0.103 -1.631,-0.293 l 0,0.651 c 0,0.433 -0.351,0.784 -0.784,0.784 -0.433,0 -0.784,-0.351 -0.784,-0.784 l 0,-1.637 C -6.682,8.898 -7.058,8.351 -7.307,7.727 -7.861,7.706 -8.389,7.558 -8.863,7.31 l 0,10.631 c 0,0.434 -0.352,0.785 -0.784,0.785 -0.434,0 -0.785,-0.351 -0.785,-0.785 l 0,-12.189 c -0.027,-0.051 -0.055,-0.101 -0.08,-0.153 -0.104,0.009 -0.208,0.013 -0.311,0.013 -0.639,0 -1.241,-0.163 -1.766,-0.449 l 0,15.562 c 0,0.363 0.307,0.648 0.697,0.648 l 12.674,0 z"
         style="fill:#95cb3e;fill-opacity:1;fill-rule:nonzero;stroke:none"
         id="path50"
         inkscape:connector-curvature="0" />
    </g>
    <g
       id="g52"
       transform="matrix(1.2868111,0,0,-1.2868111,15.785774,1015.7311)">
      <path
         d="M 0,0 -3.085,-1.98 0.792,6.442 3.734,-0.964 1.585,0 0.792,-5.46 0,0 Z m -11.405,-14.899 15.399,10e-4 0.676,18.07 -3.878,8.424 -12.197,-26.495 z"
         style="fill:#95cb3e;fill-opacity:1;fill-rule:nonzero;stroke:none"
         id="path54"
         inkscape:connector-curvature="0" />
    </g>
  </g>
</svg>
