<?xml version="1.0" encoding="UTF-8" standalone="no"?>
<!-- Created with Inkscape (http://www.inkscape.org/) -->

<svg
   xmlns:dc="http://purl.org/dc/elements/1.1/"
   xmlns:cc="http://creativecommons.org/ns#"
   xmlns:rdf="http://www.w3.org/1999/02/22-rdf-syntax-ns#"
   xmlns:svg="http://www.w3.org/2000/svg"
   xmlns="http://www.w3.org/2000/svg"
   xmlns:sodipodi="http://sodipodi.sourceforge.net/DTD/sodipodi-0.dtd"
   xmlns:inkscape="http://www.inkscape.org/namespaces/inkscape"
   width="65"
   height="65"
   viewBox="0 0 65.000001 65.000001"
   id="svg2"
   version="1.1"
   inkscape:version="0.91 r13725"
   sodipodi:docname="weather_station.svg">
  <defs
     id="defs4" />
  <sodipodi:namedview
     id="base"
     pagecolor="#ffffff"
     bordercolor="#666666"
     borderopacity="1.0"
     inkscape:pageopacity="0.0"
     inkscape:pageshadow="2"
     inkscape:zoom="5.6"
     inkscape:cx="31.637729"
     inkscape:cy="15.245742"
     inkscape:document-units="px"
     inkscape:current-layer="layer1"
     showgrid="false"
     units="px"
     inkscape:window-width="1855"
     inkscape:window-height="1056"
     inkscape:window-x="1665"
     inkscape:window-y="24"
     inkscape:window-maximized="1" />
  <metadata
     id="metadata7">
    <rdf:RDF>
      <cc:Work
         rdf:about="">
        <dc:format>image/svg+xml</dc:format>
        <dc:type
           rdf:resource="http://purl.org/dc/dcmitype/StillImage" />
        <dc:title></dc:title>
      </cc:Work>
    </rdf:RDF>
  </metadata>
  <g
     inkscape:label="Layer 1"
     inkscape:groupmode="layer"
     id="layer1"
     transform="translate(0,-987.36216)">
    <path
       d="m 52.953637,1019.7719 -0.241286,0 c -0.651474,-5.7082 -5.497889,-10.1651 -11.404242,-10.1651 -2.031979,0 -3.939867,0.5481 -5.608191,1.4701 -2.193986,-4.5603 -6.859436,-7.6935 -12.269428,-7.6935 -7.512633,0 -13.6033977,6.089 -13.6033977,13.6033 0,1.0445 0.1240906,2.0596 0.3326317,3.0454 -4.1346202,0.9532 -7.224813,4.6655 -7.224813,9.1018 0,5.1653 4.1966645,9.3498 9.346412,9.3498 l 1.53217,-0.062 37.492502,0 1.647642,0.062 c 5.153195,0 9.349859,-4.1845 9.349859,-9.3498 0,-5.1653 -4.1846,-9.362 -9.349859,-9.362"
       style="fill:#95cb3e;fill-opacity:1;fill-rule:nonzero;stroke:none"
       id="path236"
       inkscape:connector-curvature="0" />
  </g>
</svg>
